<svg width="386" height="231" viewBox="0 0 386 231" fill="none" xmlns="http://www.w3.org/2000/svg">
<path d="M270.62 230.76C334.343 230.76 386 179.102 386 115.38C386 51.6574 334.343 0 270.62 0C206.898 0 155.24 51.6574 155.24 115.38C155.24 179.102 206.898 230.76 270.62 230.76Z" fill="#EA1A21"/>
<path d="M115.38 230.76C179.102 230.76 230.76 179.102 230.76 115.38C230.76 51.6574 179.102 0 115.38 0C51.6573 0 0 51.6574 0 115.38C0 179.102 51.6573 230.76 115.38 230.76Z" fill="#1D93D8"/>
<path fill-rule="evenodd" clip-rule="evenodd" d="M200.226 36.7354C203.454 40.2259 206.469 43.9161 209.25 47.7857H176.75C179.532 43.9162 182.546 40.2259 185.774 36.7354H200.226V36.7354ZM214.002 54.9445C216.181 58.5051 218.171 62.193 219.96 65.9946H166.04C167.829 62.193 169.819 58.5051 171.997 54.9445H214.002H214.002ZM223.037 73.1534C224.441 76.7526 225.67 80.4393 226.713 84.2035H159.287C160.33 80.4393 161.559 76.7526 162.963 73.1534H223.037H223.037ZM226.713 145.989C225.67 149.753 224.441 153.44 223.037 157.039H162.963C161.559 153.44 160.33 149.753 159.287 145.989H226.713H226.713ZM219.96 164.198C218.171 167.999 216.18 171.687 214.002 175.248H171.998C169.82 171.687 167.829 167.999 166.04 164.198H219.96V164.198ZM209.249 182.407C206.468 186.276 203.453 189.967 200.226 193.457H185.774C182.547 189.967 179.532 186.276 176.751 182.407H209.249V182.407Z" fill="#EA1A21"/>
<path fill-rule="evenodd" clip-rule="evenodd" d="M69.561 124.239L65.0536 76.6768H51.6867L38.8845 137.196H47.956L55.5726 101.009C56.8441 94.8904 57.593 90.1993 57.8474 86.9352H58.1017L62.8638 137.196H71.3417L97.9628 86.9352H98.2032C96.9174 91.245 95.7302 95.9643 94.6566 101.093L87.111 137.196H96.5075L109.14 76.6768H94.8967L69.8158 124.239H69.5611H69.561Z" fill="#FFFFFE"/>
<path fill-rule="evenodd" clip-rule="evenodd" d="M123.858 128.076C122.741 126.678 122.19 124.572 122.19 121.76C122.19 117.846 122.812 114.059 124.041 110.399C125.285 106.74 126.952 103.857 129.015 101.724C131.093 99.6037 133.297 98.5444 135.642 98.5444C137.733 98.5444 139.429 99.279 140.729 100.749C142.029 102.232 142.679 104.182 142.679 106.613C142.679 110.866 141.973 114.78 140.559 118.369C139.161 121.958 137.366 124.826 135.19 126.96C133 129.094 130.781 130.167 128.521 130.167C126.528 130.167 124.974 129.475 123.858 128.076V128.076ZM134.229 90.5889C130.202 90.5889 126.5 92.002 123.137 94.828C119.774 97.6682 117.132 101.511 115.21 106.358C113.288 111.219 112.327 116.433 112.327 122.014C112.327 127.087 113.458 131.029 115.733 133.827C117.994 136.625 121.074 138.038 124.96 138.038C130.231 138.038 135.049 135.325 139.401 129.913H139.655L138.779 137.204H146.325L156.089 91.4226H148.642L146.07 97.965H145.661C144.587 95.5628 143.075 93.7259 141.139 92.4683C139.217 91.2246 136.914 90.5889 134.229 90.5889L134.229 90.5889Z" fill="#FFFFFE"/>
<path fill-rule="evenodd" clip-rule="evenodd" d="M173.265 127.808C171.711 126.07 170.934 123.668 170.934 120.601V119.401L171.019 118.114H172.799C181.291 118.114 187.833 116.701 192.44 113.875C197.032 111.049 199.321 107.121 199.321 102.105C199.321 98.431 198.092 95.5908 195.619 93.5986C193.146 91.5921 189.699 90.5889 185.248 90.5889C180.726 90.5889 176.628 91.875 172.983 94.4465C169.323 97.0042 166.426 100.649 164.278 105.355C162.145 110.06 161.071 115.133 161.071 120.601C161.071 126.098 162.597 130.38 165.649 133.431C168.701 136.498 172.94 138.038 178.38 138.038C181.107 138.038 183.594 137.784 185.813 137.261C188.031 136.752 190.462 135.89 193.118 134.675V126.931C190.448 128.203 188.116 129.107 186.166 129.63C184.202 130.153 182.224 130.422 180.245 130.422C177.151 130.422 174.834 129.546 173.265 127.808V127.808ZM185.544 108.789C182.62 110.258 178.564 110.993 173.378 110.993H172.177C173.195 107.107 174.862 103.97 177.208 101.596C179.539 99.2225 182.026 98.0498 184.669 98.0498C186.406 98.0498 187.72 98.4309 188.611 99.2225C189.487 100.014 189.925 101.102 189.925 102.514C189.925 105.213 188.469 107.305 185.544 108.789V108.789Z" fill="#FFFFFE"/>
<path fill-rule="evenodd" clip-rule="evenodd" d="M221.316 128.924C219.662 130.026 217.5 130.577 214.816 130.577C210.435 130.577 206.126 129.334 201.901 126.861V135.254C205.546 137.105 209.983 138.038 215.226 138.038C221.033 138.038 225.555 136.738 228.805 134.166C232.069 131.581 233.694 127.907 233.694 123.131C233.694 121.336 233.382 119.754 232.747 118.383C232.111 117.026 231.178 115.755 229.963 114.596C228.748 113.437 226.699 112.053 223.803 110.413C220.991 108.902 219.125 107.658 218.207 106.697C217.303 105.722 216.85 104.62 216.85 103.376C216.85 101.752 217.472 100.48 218.73 99.5758C219.987 98.6571 221.626 98.2051 223.633 98.2051C227.109 98.2051 230.783 99.2508 234.64 101.356L237.791 94.0648C233.651 91.7476 228.875 90.5889 223.463 90.5889C218.447 90.5889 214.462 91.804 211.509 94.2343C208.556 96.6649 207.072 100.014 207.072 104.295C207.072 106.909 207.793 109.184 209.206 111.106C210.633 113.028 213.064 114.907 216.511 116.758C219.465 118.439 221.414 119.782 222.375 120.785C223.322 121.803 223.803 123.004 223.803 124.416C223.803 126.31 222.969 127.822 221.316 128.924L221.316 128.924Z" fill="#FFFFFE"/>
<path fill-rule="evenodd" clip-rule="evenodd" d="M244.64 122.388C244.187 124.437 243.975 126.245 243.975 127.814C243.975 134.624 247.748 138.044 255.322 138.044C256.975 138.044 258.629 137.86 260.282 137.507C261.935 137.14 263.249 136.73 264.21 136.263V128.888C261.921 129.75 259.843 130.173 257.964 130.173C256.552 130.173 255.506 129.82 254.813 129.113C254.135 128.407 253.782 127.475 253.782 126.287C253.782 125.256 253.966 123.984 254.319 122.473L259.378 98.7904H270.837L272.448 91.4285H260.903L263.051 81.2407H257.018L251.677 90.8492L243.806 94.2403L242.944 98.7904H249.642L244.64 122.388H244.64Z" fill="#FFFFFE"/>
<path fill-rule="evenodd" clip-rule="evenodd" d="M281.613 91.4227L271.849 137.204H281.613L286.008 116.503C287.082 111.459 288.989 107.375 291.716 104.253C294.443 101.13 297.552 99.5758 301.028 99.5758C302.356 99.5758 303.755 99.7735 305.253 100.155L307.358 91.0834C306.101 90.7586 304.603 90.5889 302.893 90.5889C300.322 90.5889 297.891 91.3095 295.602 92.7648C293.313 94.2204 291.024 96.5943 288.735 99.9008H288.367L289.229 91.4226H281.613V91.4227Z" fill="#FFFFFE"/>
<path fill-rule="evenodd" clip-rule="evenodd" d="M306.334 120.31C306.334 125.736 307.902 130.045 311.011 133.196C314.134 136.362 318.344 137.944 323.643 137.944C328.221 137.944 332.277 136.715 335.795 134.27C339.314 131.84 342.083 128.335 344.089 123.757C346.11 119.193 347.113 114.12 347.113 108.553C347.113 103.028 345.602 98.6618 342.564 95.4688C339.526 92.2611 335.315 90.6646 329.931 90.6646C325.268 90.6646 321.157 91.9361 317.596 94.4937C314.035 97.0514 311.28 100.612 309.301 105.19C307.323 109.783 306.334 114.813 306.334 120.31V120.31ZM318.246 127.544C316.875 125.919 316.197 123.574 316.197 120.507C316.197 116.678 316.748 113.061 317.864 109.684C318.98 106.307 320.563 103.636 322.584 101.658C324.618 99.6793 326.908 98.6903 329.479 98.6903C331.994 98.6903 333.93 99.5241 335.272 101.206C336.629 102.873 337.307 105.176 337.307 108.129C337.307 112.185 336.756 115.915 335.654 119.292C334.538 122.669 332.998 125.298 331.005 127.177C329.027 129.056 326.794 129.989 324.307 129.989C321.623 129.989 319.602 129.183 318.246 127.544V127.544Z" fill="#FFFFFE"/>
</svg>
