<svg width="386" height="386" viewBox="0 0 386 386" fill="none" xmlns="http://www.w3.org/2000/svg">
<g clip-path="url(#clip0)">
<path d="M241.156 192.999C241.156 259.627 187.181 313.613 120.578 313.613C53.9742 313.613 0 259.615 0 192.999C0 126.384 53.9874 72.3857 120.578 72.3857C187.168 72.3857 241.156 126.384 241.156 192.999Z" fill="#E2574C"/>
<path d="M265.389 72.3857C238.347 72.3857 213.452 81.3958 193.333 96.4367L193.43 96.4486C197.387 100.272 201.752 102.962 205.118 107.364L180.029 107.762C176.098 111.73 172.516 116.048 169.138 120.535H213.379C216.744 124.575 219.856 128.086 222.679 132.548H161.118C158.862 136.432 156.776 140.425 154.955 144.573H229.687C231.641 148.71 233.39 151.834 234.874 156.213H150.528C149.189 160.375 148.044 164.632 147.175 168.973H238.407C239.3 173.147 239.987 177.006 240.458 180.939H145.365C144.967 184.907 144.762 188.935 144.762 193.001H241.144C241.144 197.271 240.843 201.226 240.409 205.062H145.365C145.775 209.151 146.378 213.168 147.175 217.124H238.262C237.321 221.032 236.235 224.964 234.873 229.041H150.25C151.528 233.165 153.085 237.17 154.785 241.077H229.687C227.613 245.468 225.261 248.978 222.668 253.09H160.902C163.339 257.312 166.028 261.34 168.946 265.2L213.38 265.863C209.593 270.409 204.733 273.148 200.305 277.128C200.546 277.321 193.225 277.104 178.811 276.875C200.739 299.503 231.387 313.614 265.387 313.614C332.003 313.614 386.001 259.615 386.001 193.001C386.001 126.386 332.015 72.3857 265.389 72.3857Z" fill="#F4B459"/>
</g>
<defs>
<clipPath id="clip0">
<rect width="386" height="386" fill="white"/>
</clipPath>
</defs>
</svg>
