<svg width="386" height="386" viewBox="0 0 386 386" fill="none" xmlns="http://www.w3.org/2000/svg">
<g clip-path="url(#clip0)">
<path d="M141.533 248.448L161.139 138.162H191.774L172.78 248.448H141.533Z" fill="white"/>
<path d="M141.533 248.448L166.653 138.162H191.774L172.78 248.448H141.533Z" fill="white"/>
<path d="M283.68 139.388C277.553 136.938 267.75 134.487 255.496 134.487C224.861 134.487 202.804 149.804 202.804 171.861C202.804 188.404 218.121 196.982 230.375 202.496C242.629 208.011 246.305 211.687 246.305 216.588C246.305 223.941 236.502 227.617 227.924 227.617C215.67 227.617 208.931 225.779 198.515 221.49L194.226 219.652L189.937 244.773C197.289 247.836 210.769 250.9 224.861 250.9C257.334 250.9 278.778 235.582 278.778 212.3C278.778 199.433 270.813 189.63 252.432 181.665C241.404 176.15 234.664 173.087 234.664 167.573C234.664 162.671 240.178 157.769 252.432 157.769C262.848 157.769 270.2 159.607 275.715 162.058L278.778 163.284L283.68 139.388Z" fill="white"/>
<path d="M283.68 139.388C277.553 136.938 267.75 134.487 255.496 134.487C224.861 134.487 208.318 149.804 208.318 171.861C208.318 188.404 218.121 196.982 230.375 202.496C242.629 208.011 246.305 211.687 246.305 216.588C246.305 223.941 236.502 227.617 227.924 227.617C215.67 227.617 208.931 225.779 198.515 221.49L194.226 219.652L189.937 244.773C197.289 247.836 210.769 250.9 224.861 250.9C257.334 250.9 278.778 235.582 278.778 212.3C278.778 199.433 270.813 189.63 252.432 181.665C241.404 176.15 234.664 173.087 234.664 167.573C234.664 162.671 240.178 157.769 252.432 157.769C262.848 157.769 270.2 159.607 275.715 162.058L278.778 163.284L283.68 139.388Z" fill="white"/>
<path d="M336.372 138.162C329.019 138.162 323.505 138.775 320.442 146.127L274.489 248.448H307.575L313.702 230.067H352.915L356.591 248.448H386L360.267 138.162H336.372V138.162ZM322.28 211.686C324.118 206.172 334.534 179.213 334.534 179.213C334.534 179.213 336.984 172.473 338.823 168.184L340.661 178.6C340.661 178.6 346.788 206.172 348.013 212.299H322.28V211.686Z" fill="white"/>
<path d="M343.724 138.162C336.372 138.162 330.857 138.775 327.794 146.127L274.489 248.448H307.575L313.702 230.067H352.915L356.591 248.448H386L360.267 138.162H343.724V138.162ZM322.28 211.686C324.73 205.559 334.534 179.213 334.534 179.213C334.534 179.213 336.984 172.473 338.823 168.184L340.661 178.6C340.661 178.6 346.788 206.172 348.013 212.299H322.28V211.686Z" fill="white"/>
<path d="M85.1646 215.366L82.1011 199.436C76.5868 181.055 58.8185 160.836 39.2122 151.033L66.7836 249.065H99.8693L149.498 138.779H116.412L85.1646 215.366Z" fill="white"/>
<path d="M85.1646 215.366L82.1011 199.436C76.5868 181.055 58.8185 160.836 39.2122 151.033L66.7836 249.065H99.8693L149.498 138.779H122.539L85.1646 215.366Z" fill="white"/>
<path d="M0 138.162L5.51429 139.388C44.727 148.578 71.6857 171.861 82.1016 199.432L71.073 147.353C69.2349 140 63.7206 138.162 56.981 138.162H0V138.162Z" fill="#FFBC00"/>
<path d="M0 138.162C39.2127 147.353 71.6857 171.248 82.1016 198.819L71.6857 155.318C69.8476 147.965 63.7206 143.676 56.981 143.676L0 138.162Z" fill="#F7981D"/>
<path d="M0 138.162C39.2127 147.353 71.6857 171.248 82.1016 198.819L74.7492 174.924C72.9111 167.572 70.4603 160.219 61.8825 157.156L0 138.162Z" fill="#ED7C00"/>
<path d="M115.8 211.683L94.9684 190.851L85.1653 214.134L82.7145 198.816C77.2002 180.435 59.4319 160.216 39.8256 150.413L67.397 248.445H100.483L115.8 211.683Z" fill="white"/>
<path d="M172.78 248.445L146.434 221.486L141.533 248.445H172.78Z" fill="white"/>
<path d="M243.242 210.46C245.693 212.911 246.918 214.749 246.305 217.2C246.305 224.552 236.502 228.228 227.924 228.228C215.67 228.228 208.931 226.39 198.515 222.101L194.226 220.263L189.937 245.384C197.289 248.447 210.769 251.511 224.861 251.511C244.467 251.511 260.397 245.997 269.588 236.193L243.242 210.46Z" fill="white"/>
<path d="M278.777 248.445H307.574L313.701 230.064H352.914L356.59 248.445H385.999L375.584 203.718L338.822 168.181L340.66 177.984C340.66 177.984 346.787 205.556 348.012 211.683H322.279C324.73 205.556 334.533 179.21 334.533 179.21C334.533 179.21 336.984 172.47 338.822 168.181" fill="white"/>
</g>
<defs>
<clipPath id="clip0">
<rect width="386" height="386" fill="white"/>
</clipPath>
</defs>
</svg>
