<svg width="24" height="24" viewBox="0 0 24 24" xmlns="http://www.w3.org/2000/svg">
<path d="M20.6601 5.55633L15.5843 0.480609C15.2745 0.170672 14.8625 0 14.4242 0H4.5C3.59536 0 2.85938 0.735984 2.85938 1.64062V22.3594C2.85938 23.264 3.59536 24 4.5 24H19.5C20.4046 24 21.1406 23.264 21.1406 22.3594V6.71644C21.1406 6.2783 20.97 5.86631 20.6601 5.55633ZM18.74 5.625H15.75C15.6208 5.625 15.5156 5.51986 15.5156 5.39062V2.40066L18.74 5.625ZM19.5 22.5938H4.5C4.37077 22.5938 4.26562 22.4886 4.26562 22.3594V1.64062C4.26562 1.51139 4.37077 1.40625 4.5 1.40625H14.1094V5.39062C14.1094 6.29527 14.8454 7.03125 15.75 7.03125H19.7344V22.3594C19.7344 22.4886 19.6292 22.5938 19.5 22.5938Z"/>
<path d="M7.53952 15.6279H16.4602C17.2335 15.6279 17.8603 15.2531 17.8603 14.7907C17.8603 14.3283 17.2335 13.9535 16.4602 13.9535H7.53952C6.76628 13.9535 6.1394 14.3283 6.1394 14.7907C6.1394 15.2531 6.76619 15.6279 7.53952 15.6279Z"/>
<path d="M7.53952 20.093H16.4602C17.2335 20.093 17.8603 19.7182 17.8603 19.2558C17.8603 18.7934 17.2335 18.4186 16.4602 18.4186H7.53952C6.76628 18.4186 6.1394 18.7934 6.1394 19.2558C6.1394 19.7182 6.76619 20.093 7.53952 20.093Z"/>
<path d="M7.53952 11.1628H16.4602C17.2335 11.1628 17.8603 10.788 17.8603 10.3256C17.8603 9.86325 17.2335 9.4884 16.4602 9.4884H7.53952C6.76628 9.4884 6.1394 9.86325 6.1394 10.3256C6.1394 10.788 6.76619 11.1628 7.53952 11.1628Z"/>
</svg>
