<svg width="22" height="22" viewBox="0 0 22 22" fill="none" xmlns="http://www.w3.org/2000/svg">
<path d="M20.2668 13.7785C19.9642 13.7785 19.6338 14.0527 19.6338 14.3569V19.2466C19.6327 20.1587 19.0208 20.6531 18.1133 20.6539H2.73954C1.6426 20.6539 1.27239 19.7763 1.27239 19.2945V12.0446V4.89609C1.2052 3.98225 1.81167 3.24404 2.73954 3.24404H7.60437C7.90701 3.24404 8.17598 2.86315 8.17598 2.55899C8.17598 2.25504 7.86197 1.87238 7.55934 1.87238H2.67119C1.15888 1.8741 0.00171221 3.37612 0 4.89609V19.2466C0.00171221 20.7666 1.22723 21.9983 2.73954 22H18.1133C19.6256 21.9983 20.8511 20.7666 20.8528 19.2466V14.3569C20.8528 14.0527 20.5695 13.7785 20.2668 13.7785Z" fill="#383A51"/>
<path d="M20.6357 0.725839C19.6728 -0.241946 18.1117 -0.241946 17.1488 0.725839L7.37379 10.5504C7.3068 10.6177 7.25843 10.7012 7.23317 10.7928L5.94773 15.4571C5.89486 15.6483 5.94858 15.8531 6.08813 15.9936C6.22789 16.1338 6.43164 16.1878 6.62191 16.1349L11.2627 14.8427C11.3538 14.8173 11.4369 14.7687 11.5039 14.7014L21.2787 4.87662C22.2401 3.90819 22.2401 2.34046 21.2787 1.37203L20.6357 0.725839ZM8.56763 10.9083L16.5677 2.86748L19.1478 5.46065L11.1475 13.5015L8.56763 10.9083ZM8.05225 11.9478L10.1135 14.0197L7.26228 14.8137L8.05225 11.9478ZM20.5039 4.09792L19.9228 4.68195L17.3425 2.08857L17.9238 1.50454C18.4587 0.966978 19.3259 0.966978 19.8608 1.50454L20.5039 2.15073C21.0379 2.68894 21.0379 3.55993 20.5039 4.09792Z" fill="#383A51"/>
</svg>