<svg width="411" height="654" viewBox="0 0 411 654" fill="none" xmlns="http://www.w3.org/2000/svg">
<rect opacity="0.6" x="0.535061" y="1.17666" width="409.634" height="651.729" rx="13.3476" stroke="#B3B3B3" stroke-width="0.861138"/>
<g clip-path="url(#clip0_217_158)">
<path d="M57.6431 117.253C57.6431 118.904 57.4331 120.408 57.0132 121.765C56.603 123.113 55.9829 124.275 55.1528 125.251C54.3228 126.218 53.2827 126.965 52.0327 127.493C50.7827 128.02 49.3179 128.284 47.6382 128.284C45.9292 128.284 44.4448 128.02 43.1851 127.493C41.9351 126.965 40.895 126.213 40.0649 125.237C39.2446 124.26 38.6294 123.093 38.2192 121.736C37.8091 120.378 37.604 118.874 37.604 117.224C37.604 115.017 37.9653 113.093 38.688 111.453C39.4204 109.802 40.5288 108.523 42.0132 107.615C43.5073 106.697 45.3921 106.238 47.6675 106.238C49.894 106.238 51.7446 106.692 53.2192 107.6C54.6938 108.508 55.7974 109.788 56.5298 111.438C57.272 113.079 57.6431 115.017 57.6431 117.253ZM41.2954 117.253C41.2954 118.904 41.52 120.334 41.9692 121.545C42.4185 122.747 43.1069 123.674 44.0347 124.329C44.9722 124.973 46.1733 125.295 47.6382 125.295C49.1128 125.295 50.314 124.973 51.2417 124.329C52.1694 123.674 52.853 122.747 53.2925 121.545C53.7319 120.334 53.9517 118.904 53.9517 117.253C53.9517 114.744 53.4487 112.781 52.4429 111.365C51.4468 109.939 49.855 109.226 47.6675 109.226C46.2026 109.226 44.9966 109.548 44.0493 110.193C43.1118 110.837 42.4185 111.76 41.9692 112.961C41.52 114.153 41.2954 115.583 41.2954 117.253ZM76.0562 111.775V127.991H72.5845V114.499H65.3481V127.991H61.8911V111.775H76.0562ZM94.3374 127.991H90.8657V114.47H86.3687C86.1733 116.931 85.9292 119.036 85.6362 120.784C85.3433 122.532 84.9771 123.957 84.5376 125.061C84.0981 126.155 83.5562 126.956 82.9116 127.463C82.2671 127.971 81.4907 128.225 80.5825 128.225C80.1821 128.225 79.8208 128.196 79.4985 128.137C79.1763 128.088 78.8882 128.01 78.6343 127.903V125.193C78.8003 125.251 78.981 125.3 79.1763 125.339C79.3716 125.378 79.5718 125.398 79.7769 125.398C80.1382 125.398 80.4702 125.251 80.7729 124.958C81.0854 124.656 81.3735 124.182 81.6372 123.538C81.9009 122.893 82.1401 122.043 82.355 120.989C82.5698 119.924 82.7651 118.635 82.9409 117.122C83.1167 115.598 83.2729 113.816 83.4097 111.775H94.3374V127.991ZM105.631 111.467C107.682 111.467 109.23 111.921 110.275 112.83C111.33 113.738 111.857 115.154 111.857 117.078V127.991H109.411L108.751 125.691H108.634C108.175 126.277 107.702 126.76 107.213 127.141C106.725 127.522 106.159 127.805 105.514 127.991C104.879 128.186 104.103 128.284 103.185 128.284C102.218 128.284 101.354 128.108 100.592 127.756C99.8306 127.395 99.23 126.848 98.7905 126.116C98.3511 125.383 98.1313 124.456 98.1313 123.332C98.1313 121.663 98.7515 120.408 99.9917 119.568C101.242 118.728 103.126 118.264 105.646 118.176L108.458 118.074V117.224C108.458 116.101 108.195 115.3 107.667 114.822C107.15 114.343 106.417 114.104 105.47 114.104C104.66 114.104 103.874 114.221 103.112 114.456C102.35 114.69 101.608 114.978 100.885 115.32L99.772 112.888C100.563 112.468 101.461 112.126 102.467 111.863C103.483 111.599 104.538 111.467 105.631 111.467ZM108.444 120.242L106.349 120.315C104.63 120.373 103.424 120.666 102.731 121.194C102.038 121.721 101.691 122.444 101.691 123.362C101.691 124.163 101.93 124.748 102.409 125.12C102.887 125.481 103.517 125.662 104.298 125.662C105.49 125.662 106.476 125.325 107.257 124.651C108.048 123.967 108.444 122.966 108.444 121.648V120.242ZM128.922 114.485H123.59V127.991H120.163V114.485H114.86V111.775H128.922V114.485ZM138.415 111.467C140.465 111.467 142.013 111.921 143.058 112.83C144.113 113.738 144.64 115.154 144.64 117.078V127.991H142.194L141.535 125.691H141.417C140.958 126.277 140.485 126.76 139.997 127.141C139.508 127.522 138.942 127.805 138.297 127.991C137.663 128.186 136.886 128.284 135.968 128.284C135.001 128.284 134.137 128.108 133.375 127.756C132.614 127.395 132.013 126.848 131.574 126.116C131.134 125.383 130.915 124.456 130.915 123.332C130.915 121.663 131.535 120.408 132.775 119.568C134.025 118.728 135.91 118.264 138.429 118.176L141.242 118.074V117.224C141.242 116.101 140.978 115.3 140.451 114.822C139.933 114.343 139.201 114.104 138.253 114.104C137.443 114.104 136.657 114.221 135.895 114.456C135.133 114.69 134.391 114.978 133.668 115.32L132.555 112.888C133.346 112.468 134.245 112.126 135.25 111.863C136.266 111.599 137.321 111.467 138.415 111.467ZM141.227 120.242L139.132 120.315C137.414 120.373 136.208 120.666 135.514 121.194C134.821 121.721 134.474 122.444 134.474 123.362C134.474 124.163 134.713 124.748 135.192 125.12C135.67 125.481 136.3 125.662 137.082 125.662C138.273 125.662 139.259 125.325 140.041 124.651C140.832 123.967 141.227 122.966 141.227 121.648V120.242ZM170.597 127.991H167.125V114.47H162.628C162.433 116.931 162.189 119.036 161.896 120.784C161.603 122.532 161.237 123.957 160.797 125.061C160.358 126.155 159.816 126.956 159.171 127.463C158.527 127.971 157.75 128.225 156.842 128.225C156.442 128.225 156.081 128.196 155.758 128.137C155.436 128.088 155.148 128.01 154.894 127.903V125.193C155.06 125.251 155.241 125.3 155.436 125.339C155.631 125.378 155.832 125.398 156.037 125.398C156.398 125.398 156.73 125.251 157.033 124.958C157.345 124.656 157.633 124.182 157.897 123.538C158.161 122.893 158.4 122.043 158.615 120.989C158.83 119.924 159.025 118.635 159.201 117.122C159.376 115.598 159.533 113.816 159.669 111.775H170.597V127.991ZM197.155 119.846C197.155 121.633 196.857 123.157 196.261 124.416C195.675 125.676 194.835 126.638 193.742 127.302C192.648 127.956 191.339 128.284 189.816 128.284C188.468 128.284 187.272 128.01 186.227 127.463C185.192 126.916 184.362 126.101 183.737 125.017C183.112 123.933 182.726 122.59 182.58 120.989H178.976V127.991H175.534V111.775H178.976V118.293H182.624C182.799 116.838 183.2 115.603 183.825 114.587C184.45 113.572 185.275 112.8 186.3 112.273C187.335 111.736 188.532 111.467 189.889 111.467C191.334 111.467 192.599 111.799 193.683 112.463C194.777 113.118 195.626 114.07 196.232 115.32C196.847 116.56 197.155 118.069 197.155 119.846ZM186.081 119.846C186.081 121.057 186.208 122.082 186.461 122.922C186.725 123.762 187.135 124.397 187.692 124.827C188.249 125.256 188.971 125.471 189.86 125.471C190.749 125.471 191.466 125.256 192.013 124.827C192.57 124.397 192.975 123.767 193.229 122.937C193.493 122.097 193.625 121.067 193.625 119.846C193.625 118.635 193.493 117.62 193.229 116.799C192.975 115.979 192.57 115.359 192.013 114.939C191.457 114.509 190.734 114.294 189.845 114.294C188.966 114.294 188.249 114.509 187.692 114.939C187.135 115.359 186.725 115.979 186.461 116.799C186.208 117.62 186.081 118.635 186.081 119.846ZM200.216 118.264C200.216 115.911 200.475 113.909 200.993 112.258C201.51 110.608 202.326 109.285 203.439 108.289C204.552 107.292 205.998 106.614 207.775 106.252C208.927 105.989 210.099 105.764 211.291 105.579C212.482 105.393 213.673 105.212 214.865 105.037L215.333 108.069C214.777 108.137 214.181 108.22 213.546 108.318C212.912 108.406 212.272 108.498 211.627 108.596C210.993 108.694 210.382 108.796 209.796 108.904C209.22 109.001 208.703 109.099 208.244 109.197C207.326 109.392 206.549 109.714 205.915 110.164C205.29 110.603 204.801 111.247 204.45 112.097C204.098 112.947 203.888 114.08 203.82 115.496H204.01C204.274 115.095 204.64 114.695 205.109 114.294C205.578 113.894 206.144 113.562 206.808 113.298C207.482 113.025 208.249 112.888 209.108 112.888C210.456 112.888 211.598 113.171 212.536 113.738C213.483 114.304 214.201 115.124 214.689 116.199C215.187 117.273 215.436 118.567 215.436 120.081C215.436 121.887 215.114 123.401 214.469 124.622C213.834 125.832 212.946 126.746 211.803 127.361C210.661 127.976 209.328 128.284 207.804 128.284C206.632 128.284 205.578 128.064 204.64 127.624C203.712 127.185 202.917 126.54 202.252 125.691C201.598 124.831 201.095 123.782 200.744 122.541C200.392 121.291 200.216 119.866 200.216 118.264ZM208.039 125.456C208.82 125.456 209.494 125.29 210.06 124.958C210.636 124.626 211.081 124.089 211.393 123.347C211.715 122.605 211.876 121.623 211.876 120.403C211.876 118.899 211.603 117.717 211.056 116.858C210.519 115.989 209.63 115.554 208.39 115.554C207.628 115.554 206.93 115.725 206.295 116.067C205.661 116.409 205.124 116.809 204.684 117.268C204.245 117.717 203.932 118.113 203.747 118.455C203.747 119.343 203.81 120.203 203.937 121.033C204.074 121.863 204.298 122.615 204.611 123.289C204.933 123.953 205.373 124.48 205.929 124.871C206.486 125.261 207.189 125.456 208.039 125.456ZM219.391 127.991V111.775H222.848V118.249H226.115C227.638 118.249 228.893 118.425 229.879 118.777C230.866 119.119 231.598 119.636 232.077 120.33C232.555 121.023 232.794 121.892 232.794 122.937C232.794 123.962 232.565 124.856 232.106 125.618C231.647 126.37 230.929 126.956 229.953 127.375C228.976 127.786 227.697 127.991 226.115 127.991H219.391ZM222.848 125.456H225.88C226.916 125.456 227.75 125.271 228.385 124.9C229.03 124.519 229.352 123.894 229.352 123.025C229.352 122.214 229.054 121.643 228.458 121.311C227.873 120.969 227.013 120.798 225.88 120.798H222.848V125.456ZM235.299 127.991V111.775H238.756V127.991H235.299ZM247.267 119.7L241.847 111.775H245.773L249.479 117.473L253.2 111.775H257.111L251.662 119.7L257.389 127.991H253.449L249.479 121.912L245.495 127.991H241.583L247.267 119.7ZM52.4429 152.775V168.991H48.9712V155.499H41.7349V168.991H38.2778V152.775H52.4429ZM71.7349 160.846C71.7349 162.194 71.5591 163.39 71.2075 164.435C70.856 165.48 70.3433 166.364 69.6694 167.086C68.9956 167.799 68.1851 168.346 67.2378 168.727C66.2905 169.098 65.2212 169.284 64.0298 169.284C62.9165 169.284 61.896 169.098 60.9683 168.727C60.0405 168.346 59.2349 167.799 58.5513 167.086C57.8774 166.364 57.355 165.48 56.9839 164.435C56.6128 163.39 56.4272 162.194 56.4272 160.846C56.4272 159.059 56.7349 157.545 57.3501 156.305C57.9751 155.055 58.8638 154.103 60.0161 153.449C61.1685 152.794 62.5405 152.467 64.1323 152.467C65.6265 152.467 66.9448 152.794 68.0874 153.449C69.23 154.103 70.1235 155.055 70.7681 156.305C71.4126 157.555 71.7349 159.069 71.7349 160.846ZM59.9722 160.846C59.9722 162.028 60.1138 163.039 60.397 163.878C60.6899 164.718 61.1392 165.363 61.7446 165.812C62.3501 166.251 63.1313 166.471 64.0884 166.471C65.0454 166.471 65.8267 166.251 66.4321 165.812C67.0376 165.363 67.4819 164.718 67.7651 163.878C68.0483 163.039 68.1899 162.028 68.1899 160.846C68.1899 159.664 68.0483 158.664 67.7651 157.843C67.4819 157.013 67.0376 156.383 66.4321 155.954C65.8267 155.514 65.0405 155.294 64.0737 155.294C62.6479 155.294 61.6079 155.773 60.9536 156.73C60.2993 157.687 59.9722 159.059 59.9722 160.846ZM85.7388 152.775H89.5327L82.8237 160.568L90.104 168.991H86.1343L79.147 160.758V168.991H75.6899V152.775H79.147V160.641L85.7388 152.775ZM90.2944 152.775H94.0444L97.3696 162.033C97.5161 162.453 97.6479 162.868 97.7651 163.278C97.8921 163.678 97.9995 164.074 98.0874 164.464C98.1851 164.855 98.2632 165.246 98.3218 165.636H98.4097C98.5073 165.128 98.644 164.562 98.8198 163.937C99.0054 163.302 99.2104 162.667 99.4351 162.033L102.628 152.775H106.334L99.3765 171.217C98.9761 172.272 98.4829 173.17 97.897 173.913C97.3208 174.664 96.6372 175.231 95.8462 175.612C95.0552 176.002 94.1519 176.198 93.1362 176.198C92.6479 176.198 92.2231 176.168 91.8618 176.11C91.5005 176.061 91.1929 176.007 90.939 175.949V173.195C91.144 173.244 91.4028 173.288 91.7153 173.327C92.0278 173.366 92.3501 173.385 92.6821 173.385C93.2974 173.385 93.8296 173.263 94.2788 173.019C94.728 172.775 95.1089 172.428 95.4214 171.979C95.7339 171.539 95.9927 171.037 96.1978 170.47L96.769 168.947L90.2944 152.775ZM122.96 152.775V168.991H119.489V155.499H112.252V168.991H108.795V152.775H122.96ZM142.252 160.846C142.252 162.194 142.077 163.39 141.725 164.435C141.374 165.48 140.861 166.364 140.187 167.086C139.513 167.799 138.703 168.346 137.755 168.727C136.808 169.098 135.739 169.284 134.547 169.284C133.434 169.284 132.414 169.098 131.486 168.727C130.558 168.346 129.752 167.799 129.069 167.086C128.395 166.364 127.873 165.48 127.501 164.435C127.13 163.39 126.945 162.194 126.945 160.846C126.945 159.059 127.252 157.545 127.868 156.305C128.493 155.055 129.381 154.103 130.534 153.449C131.686 152.794 133.058 152.467 134.65 152.467C136.144 152.467 137.462 152.794 138.605 153.449C139.748 154.103 140.641 155.055 141.286 156.305C141.93 157.555 142.252 159.069 142.252 160.846ZM130.49 160.846C130.49 162.028 130.631 163.039 130.915 163.878C131.208 164.718 131.657 165.363 132.262 165.812C132.868 166.251 133.649 166.471 134.606 166.471C135.563 166.471 136.344 166.251 136.95 165.812C137.555 165.363 138 164.718 138.283 163.878C138.566 163.039 138.708 162.028 138.708 160.846C138.708 159.664 138.566 158.664 138.283 157.843C138 157.013 137.555 156.383 136.95 155.954C136.344 155.514 135.558 155.294 134.591 155.294C133.166 155.294 132.125 155.773 131.471 156.73C130.817 157.687 130.49 159.059 130.49 160.846ZM156.256 152.775H160.05L153.341 160.568L160.622 168.991H156.652L149.665 160.758V168.991H146.208V152.775H149.665V160.641L156.256 152.775ZM37.355 200.264C37.355 197.911 37.6138 195.909 38.1313 194.258C38.6489 192.608 39.4644 191.285 40.5776 190.289C41.6909 189.292 43.1362 188.614 44.9136 188.252C46.0659 187.989 47.2378 187.764 48.4292 187.579C49.6206 187.393 50.812 187.212 52.0034 187.037L52.4722 190.069C51.9155 190.137 51.3198 190.22 50.6851 190.318C50.0503 190.406 49.4106 190.498 48.7661 190.596C48.1313 190.694 47.521 190.796 46.9351 190.904C46.3589 191.001 45.8413 191.099 45.3823 191.197C44.4644 191.392 43.688 191.714 43.0532 192.164C42.4282 192.603 41.9399 193.247 41.5884 194.097C41.2368 194.947 41.0269 196.08 40.9585 197.496H41.1489C41.4126 197.095 41.7788 196.695 42.2476 196.294C42.7163 195.894 43.2827 195.562 43.9468 195.298C44.6206 195.025 45.3872 194.888 46.2466 194.888C47.5942 194.888 48.7368 195.171 49.6743 195.738C50.6216 196.304 51.3394 197.124 51.8276 198.199C52.3257 199.273 52.5747 200.567 52.5747 202.081C52.5747 203.887 52.2524 205.401 51.6079 206.622C50.9731 207.832 50.0845 208.746 48.9419 209.361C47.7993 209.976 46.4663 210.284 44.9429 210.284C43.771 210.284 42.7163 210.064 41.7788 209.624C40.8511 209.185 40.0552 208.54 39.3911 207.691C38.7368 206.831 38.2339 205.782 37.8823 204.541C37.5308 203.291 37.355 201.866 37.355 200.264ZM45.1772 207.456C45.9585 207.456 46.6323 207.29 47.1987 206.958C47.7749 206.626 48.2192 206.089 48.5317 205.347C48.854 204.605 49.0151 203.623 49.0151 202.403C49.0151 200.899 48.7417 199.717 48.1948 198.858C47.6577 197.989 46.769 197.554 45.5288 197.554C44.7671 197.554 44.0688 197.725 43.4341 198.067C42.7993 198.409 42.2622 198.809 41.8228 199.268C41.3833 199.717 41.0708 200.113 40.8853 200.455C40.8853 201.343 40.9487 202.203 41.0757 203.033C41.2124 203.863 41.437 204.615 41.7495 205.289C42.0718 205.953 42.5112 206.48 43.0679 206.871C43.6245 207.261 44.3276 207.456 45.1772 207.456ZM62.8872 193.467C64.938 193.467 66.4858 193.921 67.5308 194.83C68.5854 195.738 69.1128 197.154 69.1128 199.078V209.991H66.6665L66.0073 207.691H65.8901C65.4312 208.277 64.9575 208.76 64.4692 209.141C63.981 209.522 63.4146 209.805 62.77 209.991C62.1353 210.186 61.3589 210.284 60.4409 210.284C59.4741 210.284 58.6099 210.108 57.8481 209.756C57.0864 209.395 56.4858 208.848 56.0464 208.116C55.6069 207.383 55.3872 206.456 55.3872 205.332C55.3872 203.663 56.0073 202.408 57.2476 201.568C58.4976 200.728 60.3823 200.264 62.9019 200.176L65.7144 200.074V199.224C65.7144 198.101 65.4507 197.3 64.9233 196.822C64.4058 196.343 63.6733 196.104 62.7261 196.104C61.9155 196.104 61.1294 196.221 60.3677 196.456C59.606 196.69 58.8638 196.978 58.1411 197.32L57.0278 194.888C57.8188 194.468 58.7173 194.126 59.7231 193.863C60.7388 193.599 61.7935 193.467 62.8872 193.467ZM65.6997 202.242L63.605 202.315C61.8862 202.373 60.6802 202.666 59.9868 203.194C59.2935 203.721 58.9468 204.444 58.9468 205.362C58.9468 206.163 59.186 206.748 59.6646 207.12C60.1431 207.481 60.7729 207.662 61.5542 207.662C62.7456 207.662 63.7319 207.325 64.5132 206.651C65.3042 205.967 65.6997 204.966 65.6997 203.648V202.242ZM77.3892 193.775V200.293H84.9771V193.775H88.4341V209.991H84.9771V202.989H77.3892V209.991H73.9321V193.775H77.3892ZM103.405 193.775H107.199L100.49 201.568L107.77 209.991H103.8L96.813 201.758V209.991H93.356V193.775H96.813V201.641L103.405 193.775ZM116.764 193.467C118.815 193.467 120.363 193.921 121.408 194.83C122.462 195.738 122.99 197.154 122.99 199.078V209.991H120.543L119.884 207.691H119.767C119.308 208.277 118.834 208.76 118.346 209.141C117.858 209.522 117.292 209.805 116.647 209.991C116.012 210.186 115.236 210.284 114.318 210.284C113.351 210.284 112.487 210.108 111.725 209.756C110.963 209.395 110.363 208.848 109.923 208.116C109.484 207.383 109.264 206.456 109.264 205.332C109.264 203.663 109.884 202.408 111.125 201.568C112.375 200.728 114.259 200.264 116.779 200.176L119.591 200.074V199.224C119.591 198.101 119.328 197.3 118.8 196.822C118.283 196.343 117.55 196.104 116.603 196.104C115.792 196.104 115.006 196.221 114.245 196.456C113.483 196.69 112.741 196.978 112.018 197.32L110.905 194.888C111.696 194.468 112.594 194.126 113.6 193.863C114.616 193.599 115.67 193.467 116.764 193.467ZM119.577 202.242L117.482 202.315C115.763 202.373 114.557 202.666 113.864 203.194C113.17 203.721 112.824 204.444 112.824 205.362C112.824 206.163 113.063 206.748 113.542 207.12C114.02 207.481 114.65 207.662 115.431 207.662C116.623 207.662 117.609 207.325 118.39 206.651C119.181 205.967 119.577 204.966 119.577 203.648V202.242ZM131.398 201.7L125.978 193.775H129.904L133.61 199.473L137.331 193.775H141.242L135.792 201.7L141.52 209.991H137.58L133.61 203.912L129.625 209.991H125.714L131.398 201.7ZM158.659 210.284C157.125 210.284 155.797 209.986 154.674 209.39C153.551 208.794 152.687 207.881 152.082 206.651C151.476 205.42 151.173 203.858 151.173 201.963C151.173 199.991 151.505 198.379 152.169 197.129C152.833 195.879 153.751 194.956 154.923 194.361C156.105 193.765 157.458 193.467 158.981 193.467C159.948 193.467 160.822 193.565 161.603 193.76C162.394 193.946 163.063 194.175 163.61 194.449L162.584 197.203C161.989 196.958 161.378 196.753 160.753 196.587C160.128 196.421 159.528 196.338 158.952 196.338C158.004 196.338 157.213 196.548 156.579 196.968C155.954 197.388 155.485 198.013 155.172 198.843C154.87 199.673 154.718 200.704 154.718 201.934C154.718 203.125 154.875 204.131 155.187 204.952C155.5 205.762 155.963 206.377 156.579 206.797C157.194 207.207 157.951 207.413 158.849 207.413C159.738 207.413 160.534 207.305 161.237 207.09C161.94 206.875 162.604 206.597 163.229 206.255V209.244C162.614 209.595 161.955 209.854 161.251 210.02C160.548 210.196 159.684 210.284 158.659 210.284ZM179.284 196.485H173.952V209.991H170.524V196.485H165.221V193.775H179.284V196.485ZM190.739 193.467C192.663 193.467 194.206 194.17 195.368 195.577C196.54 196.983 197.125 199.073 197.125 201.846C197.125 203.682 196.852 205.23 196.305 206.49C195.768 207.74 195.011 208.687 194.035 209.331C193.068 209.966 191.94 210.284 190.651 210.284C189.831 210.284 189.118 210.176 188.512 209.961C187.907 209.747 187.389 209.468 186.959 209.126C186.53 208.775 186.168 208.394 185.875 207.984H185.67C185.719 208.374 185.763 208.809 185.802 209.288C185.851 209.756 185.875 210.186 185.875 210.577V217.183H182.418V193.775H185.231L185.714 196.016H185.875C186.178 195.557 186.544 195.132 186.974 194.742C187.414 194.351 187.941 194.043 188.556 193.819C189.181 193.584 189.909 193.467 190.739 193.467ZM189.816 196.28C188.869 196.28 188.107 196.47 187.531 196.851C186.964 197.222 186.549 197.784 186.286 198.536C186.032 199.288 185.895 200.23 185.875 201.363V201.846C185.875 203.047 185.998 204.068 186.242 204.908C186.496 205.738 186.911 206.372 187.487 206.812C188.073 207.242 188.864 207.456 189.86 207.456C190.7 207.456 191.393 207.227 191.94 206.768C192.497 206.309 192.912 205.655 193.185 204.805C193.458 203.956 193.595 202.955 193.595 201.802C193.595 200.054 193.283 198.697 192.658 197.73C192.042 196.763 191.095 196.28 189.816 196.28ZM207.467 193.467C209.518 193.467 211.066 193.921 212.111 194.83C213.166 195.738 213.693 197.154 213.693 199.078V209.991H211.247L210.587 207.691H210.47C210.011 208.277 209.538 208.76 209.049 209.141C208.561 209.522 207.995 209.805 207.35 209.991C206.715 210.186 205.939 210.284 205.021 210.284C204.054 210.284 203.19 210.108 202.428 209.756C201.667 209.395 201.066 208.848 200.626 208.116C200.187 207.383 199.967 206.456 199.967 205.332C199.967 203.663 200.587 202.408 201.828 201.568C203.078 200.728 204.962 200.264 207.482 200.176L210.294 200.074V199.224C210.294 198.101 210.031 197.3 209.503 196.822C208.986 196.343 208.253 196.104 207.306 196.104C206.496 196.104 205.709 196.221 204.948 196.456C204.186 196.69 203.444 196.978 202.721 197.32L201.608 194.888C202.399 194.468 203.297 194.126 204.303 193.863C205.319 193.599 206.374 193.467 207.467 193.467ZM210.28 202.242L208.185 202.315C206.466 202.373 205.26 202.666 204.567 203.194C203.874 203.721 203.527 204.444 203.527 205.362C203.527 206.163 203.766 206.748 204.245 207.12C204.723 207.481 205.353 207.662 206.134 207.662C207.326 207.662 208.312 207.325 209.093 206.651C209.884 205.967 210.28 204.966 210.28 203.648V202.242ZM221.969 193.775V200.293H229.557V193.775H233.014V209.991H229.557V202.989H221.969V209.991H218.512V193.775H221.969ZM237.936 209.991V193.775H241.393V200.249H244.66C246.183 200.249 247.438 200.425 248.424 200.777C249.411 201.119 250.143 201.636 250.622 202.33C251.1 203.023 251.339 203.892 251.339 204.937C251.339 205.962 251.11 206.856 250.651 207.618C250.192 208.37 249.474 208.956 248.498 209.375C247.521 209.786 246.242 209.991 244.66 209.991H237.936ZM241.393 207.456H244.425C245.46 207.456 246.295 207.271 246.93 206.9C247.575 206.519 247.897 205.894 247.897 205.025C247.897 204.214 247.599 203.643 247.003 203.311C246.417 202.969 245.558 202.798 244.425 202.798H241.393V207.456ZM253.844 209.991V193.775H257.301V209.991H253.844Z" fill="#1E3E7A"/>
<path d="M185.934 156.686C185.934 157.555 185.67 158.331 185.143 159.015C184.625 159.689 183.83 160.114 182.755 160.289V160.407C183.937 160.543 184.845 160.954 185.48 161.637C186.125 162.311 186.447 163.18 186.447 164.245C186.447 165.075 186.222 165.851 185.773 166.574C185.333 167.296 184.552 167.882 183.429 168.331C182.306 168.771 180.729 168.991 178.698 168.991H170.568V152.394H178.727C180.397 152.394 181.759 152.56 182.814 152.892C183.878 153.214 184.665 153.698 185.172 154.342C185.68 154.977 185.934 155.758 185.934 156.686ZM180.617 163.688C180.617 163.258 180.475 162.912 180.192 162.648C179.918 162.374 179.381 162.238 178.581 162.238H176.295V165.241H178.522C179.274 165.241 179.811 165.099 180.133 164.816C180.456 164.523 180.617 164.147 180.617 163.688ZM180.236 157.448C180.236 157.018 180.099 156.696 179.826 156.481C179.552 156.256 179.157 156.144 178.639 156.144H176.295V158.634H178.434C179.04 158.634 179.489 158.522 179.782 158.297C180.084 158.073 180.236 157.789 180.236 157.448ZM205.285 160.656C205.285 162.042 205.094 163.273 204.713 164.347C204.333 165.421 203.781 166.325 203.058 167.057C202.335 167.789 201.461 168.346 200.436 168.727C199.411 169.098 198.253 169.284 196.964 169.284C195.763 169.284 194.66 169.098 193.654 168.727C192.658 168.346 191.789 167.789 191.046 167.057C190.304 166.325 189.728 165.421 189.318 164.347C188.917 163.273 188.717 162.042 188.717 160.656C188.717 158.82 189.049 157.267 189.713 155.997C190.387 154.728 191.344 153.761 192.584 153.097C193.834 152.433 195.324 152.101 197.052 152.101C198.644 152.101 200.06 152.433 201.3 153.097C202.541 153.761 203.512 154.728 204.215 155.997C204.928 157.267 205.285 158.82 205.285 160.656ZM194.533 160.656C194.533 161.603 194.616 162.404 194.782 163.058C194.948 163.703 195.211 164.196 195.573 164.538C195.944 164.87 196.427 165.036 197.023 165.036C197.619 165.036 198.092 164.87 198.444 164.538C198.795 164.196 199.049 163.703 199.206 163.058C199.372 162.404 199.455 161.603 199.455 160.656C199.455 159.708 199.372 158.917 199.206 158.283C199.049 157.648 198.791 157.169 198.429 156.847C198.078 156.525 197.599 156.364 196.994 156.364C196.125 156.364 195.495 156.725 195.104 157.448C194.723 158.17 194.533 159.24 194.533 160.656ZM231.725 156.686C231.725 157.555 231.461 158.331 230.934 159.015C230.417 159.689 229.621 160.114 228.546 160.289V160.407C229.728 160.543 230.636 160.954 231.271 161.637C231.916 162.311 232.238 163.18 232.238 164.245C232.238 165.075 232.013 165.851 231.564 166.574C231.125 167.296 230.343 167.882 229.22 168.331C228.097 168.771 226.52 168.991 224.489 168.991H216.359V152.394H224.518C226.188 152.394 227.55 152.56 228.605 152.892C229.669 153.214 230.456 153.698 230.963 154.342C231.471 154.977 231.725 155.758 231.725 156.686ZM226.408 163.688C226.408 163.258 226.266 162.912 225.983 162.648C225.709 162.374 225.172 162.238 224.372 162.238H222.086V165.241H224.313C225.065 165.241 225.602 165.099 225.924 164.816C226.247 164.523 226.408 164.147 226.408 163.688ZM226.027 157.448C226.027 157.018 225.89 156.696 225.617 156.481C225.343 156.256 224.948 156.144 224.43 156.144H222.086V158.634H224.225C224.831 158.634 225.28 158.522 225.573 158.297C225.875 158.073 226.027 157.789 226.027 157.448ZM242.785 169.284C241.105 169.284 239.645 168.986 238.405 168.39C237.165 167.785 236.203 166.857 235.519 165.607C234.845 164.347 234.508 162.736 234.508 160.773C234.508 158.761 234.884 157.116 235.636 155.836C236.398 154.557 237.438 153.615 238.756 153.009C240.075 152.404 241.569 152.101 243.239 152.101C244.254 152.101 245.216 152.213 246.125 152.438C247.042 152.663 247.892 152.97 248.673 153.361L246.989 157.594C246.305 157.291 245.666 157.052 245.07 156.876C244.484 156.691 243.874 156.598 243.239 156.598C242.663 156.598 242.155 156.749 241.715 157.052C241.276 157.355 240.934 157.814 240.69 158.429C240.446 159.035 240.324 159.806 240.324 160.744C240.324 161.701 240.446 162.472 240.69 163.058C240.944 163.644 241.291 164.069 241.73 164.332C242.179 164.596 242.692 164.728 243.268 164.728C244.098 164.728 244.923 164.601 245.744 164.347C246.574 164.083 247.36 163.722 248.102 163.263V167.819C247.418 168.268 246.647 168.624 245.788 168.888C244.928 169.152 243.927 169.284 242.785 169.284ZM258.869 152.101C260.48 152.101 261.872 152.384 263.043 152.951C264.215 153.507 265.119 154.347 265.753 155.47C266.388 156.593 266.706 157.999 266.706 159.689V162.238H256.466C256.515 163.107 256.837 163.82 257.433 164.376C258.039 164.933 258.927 165.211 260.099 165.211C261.134 165.211 262.082 165.109 262.941 164.904C263.81 164.699 264.704 164.381 265.622 163.952V168.068C264.821 168.488 263.947 168.795 263 168.991C262.052 169.186 260.856 169.284 259.411 169.284C257.741 169.284 256.247 168.986 254.928 168.39C253.61 167.794 252.57 166.872 251.808 165.622C251.056 164.372 250.68 162.765 250.68 160.802C250.68 158.81 251.022 157.174 251.706 155.895C252.389 154.606 253.346 153.654 254.577 153.039C255.807 152.414 257.238 152.101 258.869 152.101ZM259.074 155.997C258.4 155.997 257.833 156.212 257.375 156.642C256.925 157.062 256.662 157.726 256.583 158.634H261.505C261.496 158.146 261.398 157.702 261.212 157.301C261.027 156.901 260.753 156.583 260.392 156.349C260.041 156.115 259.601 155.997 259.074 155.997ZM273.458 160.524L268.39 152.394H274.894L277.414 157.052L279.992 152.394H286.51L281.31 160.524L286.715 168.991H280.211L277.414 163.952L274.63 168.991H268.112L273.458 160.524Z" fill="#EC7D43"/>
<path d="M47.411 275.31H45.1848V266.873H40.2809V275.31H38.0702V264.927H47.411V275.31ZM48.7101 275.497V273.878C49.0215 273.878 49.2706 273.697 49.4574 273.333C49.6442 272.96 49.7947 272.327 49.9089 271.434L50.3915 267.791H56.4786V275.31H54.5014V269.519H52.1195L51.8704 271.667C51.7148 272.986 51.3826 273.956 50.8741 274.579C50.3759 275.191 49.6546 275.497 48.7101 275.497ZM64.9333 275.31H62.9561V274.532C62.4164 275.176 61.6225 275.497 60.5742 275.497C59.8996 275.497 59.2924 275.279 58.7527 274.843C58.2234 274.397 57.9588 273.785 57.9588 273.006C57.9588 272.197 58.2182 271.59 58.7372 271.185C59.2665 270.78 59.8788 270.578 60.5742 270.578C61.6432 270.578 62.4372 270.884 62.9561 271.496V270.484C62.9561 270.1 62.8056 269.794 62.5046 269.566C62.2037 269.337 61.8041 269.223 61.3059 269.223C60.486 269.223 59.7543 269.519 59.1108 270.111L58.3635 268.787C59.2561 267.999 60.3511 267.604 61.6484 267.604C62.6136 267.604 63.4024 267.827 64.0147 268.274C64.6271 268.72 64.9333 269.446 64.9333 270.453V275.31ZM61.3682 274.158C62.1051 274.158 62.6344 273.94 62.9561 273.505V272.57C62.6344 272.135 62.1051 271.917 61.3682 271.917C60.9634 271.917 60.6261 272.02 60.3563 272.228C60.0864 272.425 59.9515 272.7 59.9515 273.053C59.9515 273.396 60.0864 273.665 60.3563 273.863C60.6261 274.06 60.9634 274.158 61.3682 274.158ZM70.2726 275.31H68.2799V269.519H66.1782V267.791H72.3743V269.519H70.2726V275.31ZM75.5135 275.31H73.6142V267.791H75.5913V272.337L78.6893 267.791H80.6821V275.31H78.7049V270.593L75.5135 275.31ZM91.532 275.31H86.6281V267.791H91.3919C92.1184 267.791 92.6841 267.978 93.0888 268.352C93.4936 268.725 93.696 269.182 93.696 269.721C93.696 270.157 93.5766 270.526 93.3379 270.827C93.0992 271.128 92.793 271.33 92.4194 271.434C92.8345 271.527 93.177 271.745 93.4469 272.088C93.7167 272.43 93.8517 272.825 93.8517 273.271C93.8517 273.863 93.6441 274.35 93.2289 274.734C92.8242 275.118 92.2585 275.31 91.532 275.31ZM91.0494 273.691C91.2881 273.691 91.4749 273.629 91.6099 273.505C91.7552 273.38 91.8278 273.209 91.8278 272.991C91.8278 272.794 91.7552 272.628 91.6099 272.493C91.4749 272.358 91.2881 272.29 91.0494 272.29H88.6052V273.691H91.0494ZM90.9871 270.671C91.1947 270.671 91.3608 270.614 91.4853 270.5C91.6202 270.375 91.6877 270.225 91.6877 270.048C91.6877 269.862 91.6254 269.711 91.5009 269.597C91.3763 269.472 91.2051 269.41 90.9871 269.41H88.6052V270.671H90.9871ZM107.128 275.31H99.7799V264.927H107.128V266.873H101.991V269.068H107.019V271.014H101.991V273.364H107.128V275.31ZM111.067 275.31H108.856V264.927H113.713C114.803 264.927 115.654 265.248 116.267 265.892C116.889 266.525 117.201 267.319 117.201 268.274C117.201 269.218 116.889 270.012 116.267 270.656C115.644 271.299 114.793 271.621 113.713 271.621H111.067V275.31ZM113.418 269.675C113.864 269.675 114.227 269.55 114.507 269.301C114.798 269.042 114.943 268.699 114.943 268.274C114.943 267.848 114.798 267.511 114.507 267.262C114.227 267.002 113.864 266.873 113.418 266.873H111.067V269.675H113.418ZM120.704 275.31H118.571V264.927H120.782V271.636L125.592 264.927H127.865V275.31H125.655V268.352L120.704 275.31ZM139.253 275.31H137.027V266.873H132.123V275.31H129.913V264.927H139.253V275.31Z" fill="#1E4078"/>
<path d="M97.6773 245.664H37.3845V247.898H97.6773V245.664Z" fill="#EE7D43"/>
<path d="M306.468 289.11C318.857 300.075 320.071 319.963 321.996 335.191C322.09 335.987 323.346 335.997 323.252 335.191C321.316 319.555 320.06 299.447 307.357 288.199C306.761 287.664 305.861 288.555 306.468 289.089V289.11Z" fill="#1E3E7A"/>
<path d="M309.313 342.637C308.694 341.965 307.936 341.436 307.091 341.087C306.247 340.739 305.336 340.579 304.424 340.619C303.511 340.659 302.618 340.897 301.807 341.318C300.996 341.739 300.287 342.332 299.728 343.056C299.237 343.674 300.116 344.574 300.618 343.946C301.061 343.344 301.633 342.848 302.29 342.493C302.948 342.138 303.676 341.934 304.422 341.894C305.168 341.854 305.914 341.979 306.606 342.262C307.298 342.544 307.919 342.976 308.424 343.527C308.989 344.114 309.879 343.223 309.313 342.637Z" fill="#1E3E7A"/>
<path d="M296.265 337.62C302.37 338.334 308.53 338.468 314.66 338.018C315.456 337.956 315.466 336.699 314.66 336.762C308.53 337.211 302.37 337.078 296.265 336.364C295.459 336.269 295.469 337.526 296.265 337.62Z" fill="#1E3E7A"/>
<path d="M314.86 336.856C307.828 340.49 307.765 344.501 309.021 351.434C310.203 357.938 311.48 370.15 320.929 369.783C326.161 369.584 329.08 364.672 330.932 360.462C333.245 355.226 335.809 348.418 335.61 342.564C335.296 333.075 320.845 334.28 314.86 336.856C314.117 337.17 314.755 338.259 315.498 337.903C319.921 336.157 324.775 335.824 329.394 336.95C335.673 338.595 334.406 344.784 333.203 349.696C331.456 356.859 324.361 377.041 314.441 365.133C311.072 361.08 310.685 354.116 309.889 349.141C309.01 343.611 309.962 340.763 315.498 337.903C316.209 337.547 315.582 336.458 314.86 336.856Z" fill="#1E3E7A"/>
<path d="M273.925 336.51C269.906 339.212 268.128 343.255 267.385 347.915C266.642 352.576 265.522 358.315 267.908 362.578C273.757 373.145 286.743 364.588 292.896 359.436C299.049 354.283 304.637 344.774 297.814 337.526C294.675 334.196 289.506 334.636 285.32 334.583C281.469 334.531 277.346 334.426 273.925 336.468C273.824 336.567 273.76 336.697 273.743 336.837C273.725 336.977 273.755 337.118 273.827 337.239C273.899 337.36 274.01 337.453 274.142 337.503C274.274 337.553 274.418 337.558 274.552 337.516C276.845 336.328 279.402 335.744 281.982 335.819C285.529 335.683 290.353 335.285 293.723 336.427C302.847 339.516 299.739 351.581 294.329 356.545C288.731 361.677 277.524 371.207 270.147 363.541C266.652 359.928 267.855 353.833 268.441 349.35C269.059 344.679 270.398 340.312 274.552 337.516C275.212 337.139 274.594 336.05 273.925 336.51Z" fill="#1E3E7A"/>
<path d="M308.498 342.951C308.173 349.748 309.9 356.262 310.35 363.007C310.476 365.049 310.988 367.709 309.241 368.966C307.305 370.369 304.448 369.144 302.303 368.589C300.158 368.034 296.537 366.809 294.235 367.741C294.132 367.773 294.039 367.832 293.965 367.91C293.891 367.988 293.837 368.084 293.81 368.189C293.783 368.294 293.783 368.404 293.81 368.508C293.836 368.613 293.889 368.709 293.963 368.788C294.62 369.42 295.496 369.773 296.407 369.773C297.318 369.773 298.193 369.42 298.85 368.788C299.457 368.264 298.567 367.374 297.961 367.898C295.711 368.505 295.271 368.809 296.621 368.799C297.737 368.86 298.846 369.011 299.938 369.249C300.838 369.448 301.707 369.752 302.586 369.992C304.448 370.474 306.834 371.218 308.759 370.82C310.685 370.422 311.177 369.71 311.574 367.845C313.28 359.949 309.377 350.984 309.754 342.951C309.754 342.145 308.529 342.145 308.498 342.951Z" fill="#1E3E7A"/>
<path d="M288.689 365.395C288.37 366.06 288.232 366.797 288.289 367.533C288.346 368.269 288.596 368.976 289.014 369.584C289.57 370.26 290.316 370.754 291.155 371.002C291.994 371.25 292.888 371.242 293.722 370.977C293.867 370.92 293.985 370.812 294.055 370.672C294.124 370.533 294.139 370.373 294.098 370.224C294.056 370.074 293.96 369.945 293.829 369.861C293.698 369.778 293.541 369.746 293.387 369.773C291.002 370.411 288.7 368.411 289.777 366.002C290.102 365.269 289.024 364.62 288.731 365.363L288.689 365.395Z" fill="#1E3E7A"/>
<path d="M316.021 367.814C314.588 378.193 315.079 389.022 313.227 399.285C312.181 405.223 309.167 411.329 303.81 414.523C297.029 418.597 288.396 416.409 281.145 414.974C274.605 413.675 268.117 412.073 261.65 410.429C255.445 408.847 247.89 407.685 243.757 402.27C240.618 398.081 239.341 392.384 237.478 387.608C235.386 382.371 233.115 377.135 230.708 372.056C230.363 371.333 229.275 371.972 229.662 372.694C232.979 379.732 235.94 386.885 238.671 394.175C240.126 398.07 241.444 402.144 244.604 405.014C249.135 409.119 255.696 410.251 261.41 411.664C269.781 413.759 278.236 415.916 286.806 417.299C298.316 419.153 308.361 416.765 312.966 405.004C314.671 400.657 314.954 396.143 315.194 391.535C315.592 383.702 316.241 375.941 317.287 368.181C317.402 367.385 316.189 367.039 316.084 367.845L316.021 367.814Z" fill="#1E3E7A"/>
<path d="M285.425 389.221C292.981 387.815 300.645 387.066 308.33 386.979C308.497 386.979 308.657 386.913 308.774 386.795C308.892 386.678 308.958 386.518 308.958 386.351C308.958 386.184 308.892 386.025 308.774 385.907C308.657 385.789 308.497 385.723 308.33 385.723C300.533 385.818 292.757 386.581 285.09 388.006C284.305 388.152 284.64 389.367 285.425 389.221Z" fill="#1E3E7A"/>
<path d="M315.299 384.571C313.704 381.348 311.285 378.606 308.287 376.622C305.289 374.639 301.82 373.486 298.232 373.281C287.705 372.831 279.397 380.874 269.477 382.79C247.555 387.032 239.132 357.268 239.466 340.616C239.466 340.449 239.4 340.289 239.283 340.171C239.165 340.054 239.005 339.987 238.839 339.987C238.672 339.987 238.512 340.054 238.395 340.171C238.277 340.289 238.211 340.449 238.211 340.616C237.886 355.278 242.334 372.307 254.901 381.24C262.78 386.844 271.832 384.068 279.857 380.308C285.403 377.711 291.159 374.464 297.468 374.506C300.969 374.589 304.38 375.629 307.331 377.514C310.283 379.399 312.662 382.057 314.211 385.199C314.587 385.922 315.676 385.283 315.257 384.571H315.299Z" fill="#1E3E7A"/>
<path d="M269.142 344.187L235.657 337.044C227.129 335.222 219.846 333.033 211.59 336.898C210.858 337.233 211.496 338.322 212.218 337.945C221.636 333.557 231.681 337.432 241.256 339.474L268.849 345.36C269.634 345.528 269.969 344.313 269.184 344.145L269.142 344.187Z" fill="#1E3E7A"/>
<path d="M268.483 346.198L218.329 335.662C217.544 335.494 217.209 336.709 217.994 336.877L268.148 347.413C268.933 347.58 269.268 346.365 268.483 346.198Z" fill="#1E3E7A"/>
<path d="M307.231 288.125C303.255 285.413 299.404 285.517 294.863 286.596C288.877 288.02 283.614 289.068 277.785 286.512C269.414 282.815 256.439 277.516 247.712 283.004C232.654 292.43 255.487 307.196 247.827 317.816C245.033 321.691 241.392 320.34 237.625 322.257C236.935 322.555 236.314 322.993 235.801 323.542C235.287 324.092 234.893 324.742 234.642 325.451C233.188 329.64 235.95 335.453 238.42 338.72C238.901 339.359 240 338.72 239.466 338.092C237.869 336.028 236.741 333.64 236.16 331.096C235.438 327.87 235.95 324.917 239.1 323.011C240.042 322.445 242.009 322.435 243.055 322.204C246.352 321.461 248.936 320.11 250.171 316.821C251.594 313.04 250.516 309.134 248.852 305.615C247.314 302.358 245.012 299.331 244.144 295.76C242.626 289.623 245.41 284.481 251.468 282.648C260.645 279.851 270.722 285.371 279.031 288.45C288.249 291.864 298.326 283.559 306.603 289.204C307.273 289.665 307.901 288.575 307.231 288.157V288.125Z" fill="#1E3E7A"/>
<path d="M313.468 295.456C306.666 271.609 286.356 253.302 260.876 253.365C246.791 253.365 229.128 256.413 217.722 265.147C206.745 273.526 202.288 288.125 200.289 301.248C197.495 319.492 199.797 338.113 204.914 355.707C204.959 355.868 205.065 356.005 205.21 356.088C205.356 356.17 205.528 356.192 205.689 356.147C205.85 356.103 205.986 355.996 206.069 355.851C206.151 355.705 206.172 355.533 206.128 355.372C201.971 341.655 200.042 327.359 200.415 313.03C200.98 298.431 204.067 280.888 214.447 269.766C224.262 259.293 240.607 256.319 254.346 254.936C270.764 253.271 286.785 258.424 298.18 270.593C304.781 277.748 309.602 286.359 312.254 295.729C312.276 295.808 312.313 295.883 312.364 295.948C312.415 296.014 312.478 296.068 312.55 296.109C312.622 296.15 312.701 296.176 312.783 296.186C312.865 296.196 312.949 296.19 313.028 296.168C313.108 296.146 313.183 296.109 313.248 296.058C313.313 296.007 313.368 295.944 313.408 295.872C313.449 295.8 313.476 295.721 313.486 295.639C313.496 295.556 313.49 295.473 313.468 295.393V295.456Z" fill="#1E3E7A"/>
<path d="M228.699 345.234C225.664 339.872 219.281 333.232 212.469 336.332C205.657 339.432 204.025 349.539 204.946 355.959C205.568 360.062 207.253 363.931 209.832 367.181C212.411 370.432 215.795 372.95 219.648 374.485C225.016 376.58 230.29 376.475 231.158 369.762C231.252 368.956 229.997 368.966 229.902 369.762C228.919 377.669 219.627 373.7 215.588 370.883C212.838 368.97 210.552 366.464 208.899 363.549C207.245 360.634 206.266 357.386 206.034 354.042C205.72 349.067 206.913 342.763 210.701 339.171C217.084 333.107 224.451 340.218 227.642 345.873C227.741 345.976 227.872 346.042 228.014 346.061C228.156 346.079 228.299 346.048 228.421 345.974C228.543 345.899 228.636 345.786 228.685 345.651C228.733 345.517 228.735 345.37 228.689 345.234H228.699Z" fill="#1E3E7A"/>
<path d="M213.924 346.187C217.806 345.329 224.283 347.413 224.231 352.471C224.231 354.566 222.41 356.084 222.243 358.095C222.177 358.526 222.226 358.966 222.384 359.372C222.542 359.779 222.804 360.136 223.143 360.41C223.438 360.628 223.767 360.798 224.116 360.912C226.209 361.782 230.394 360.347 227.611 366.149C227.265 366.871 228.343 367.51 228.657 366.788C229.557 364.923 230.572 362.41 228.657 360.849C226.941 359.478 223.425 361.069 223.886 357.142C224.032 355.99 225.141 354.775 225.351 353.571C226.481 347.214 218.706 343.904 213.579 345.035C212.783 345.203 213.118 346.418 213.913 346.25L213.924 346.187Z" fill="#1E3E7A"/>
<path d="M218.58 345.287C216.443 347.489 215.117 350.353 214.818 353.409C214.52 356.464 215.267 359.531 216.937 362.106C217.377 362.787 218.465 362.159 217.984 361.478C216.457 359.141 215.769 356.354 216.031 353.575C216.294 350.795 217.491 348.187 219.428 346.177C219.982 345.59 219.093 344.7 218.538 345.287H218.58Z" fill="#1E3E7A"/>
<path d="M271.769 329.839C279.996 329.816 288.166 331.212 295.92 333.965C296.684 334.238 296.966 333.023 296.254 332.751C288.392 329.961 280.11 328.544 271.769 328.561C271.602 328.561 271.443 328.628 271.325 328.745C271.207 328.863 271.141 329.023 271.141 329.19C271.141 329.356 271.207 329.516 271.325 329.634C271.443 329.752 271.602 329.818 271.769 329.818V329.839Z" fill="#1E3E7A"/>
<path d="M310.621 332.803C314.112 331.028 317.882 329.866 321.766 329.368C322.55 329.273 322.561 328.017 321.766 328.111C317.664 328.63 313.681 329.853 309.994 331.724C309.272 332.091 309.899 333.169 310.621 332.771V332.803Z" fill="#1E3E7A"/>
<path d="M215.18 372.464C217.97 386.428 220.761 400.371 223.551 414.293C223.708 415.079 224.911 414.743 224.754 413.958L216.383 372.129C216.226 371.333 215.012 371.668 215.169 372.464H215.18Z" fill="#1E3E7A"/>
<path d="M219.281 392.363C212.532 395.63 213.798 403.831 217.806 408.816C224.273 416.848 234.444 423.478 243.296 428.557C251.824 433.448 258.134 431.563 266.317 427.122L284.66 417.215C285.372 416.827 284.734 415.738 284.022 416.168C279.104 418.821 274.193 421.477 269.289 424.138C264.057 426.965 258.479 430.924 252.358 430.547C243.987 430.023 234.831 422.001 228.479 416.932C225.361 414.572 222.442 411.959 219.752 409.119C215.807 404.731 213.076 396.824 219.972 393.483C220.694 393.127 220.066 392.049 219.334 392.436L219.281 392.363Z" fill="#1E3E7A"/>
<path d="M254.001 434.139C251.301 431.312 246.069 430.579 242.951 433.176C239.832 435.773 240.983 440.716 242.679 443.785C244.688 447.419 250.903 449.168 253.823 445.586C256.177 442.696 256.313 437.208 254.105 434.265C253.624 433.626 252.525 434.265 253.059 434.904C254.89 437.302 254.628 440.392 253.708 443.115C251.908 448.414 245.023 446.257 243.348 442.151C242.302 439.564 241.444 435.867 244.028 433.951C246.613 432.034 250.987 432.747 253.164 434.998C253.676 435.616 254.566 434.726 254.001 434.139Z" fill="#1E3E7A"/>
<path d="M241.999 434.098L223.509 426.452C220.673 425.279 216.079 421.97 212.846 423.447C207.614 425.845 208.011 436.486 208.137 441.031C208.304 446.602 208.43 455.075 216.048 454.195C220.087 453.724 224.126 451.336 227.966 450.006C233.447 448.216 239.04 446.792 244.709 445.744C245.493 445.587 245.159 444.372 244.374 444.529C237.638 445.752 231.016 447.535 224.576 449.859C223.53 450.247 222.483 450.676 221.437 451.095C218.046 452.446 217.701 452.76 213.913 451.273C209.727 449.65 210.073 449.179 209.644 444.99C209.497 443.649 209.414 442.288 209.372 440.937C209.245 437.818 209.435 434.696 209.937 431.616C210.805 426.819 212.103 423.939 217.607 425.269C221.353 426.191 225.11 428.411 228.699 429.856L241.664 435.302C242.407 435.606 242.71 434.391 241.999 434.087V434.098Z" fill="#1E3E7A"/>
<path d="M253.562 435.208C260.245 434.691 266.931 434.202 273.621 433.742C275.201 433.626 277.754 432.977 279.345 433.354C282.181 434.014 284.682 436.444 284.807 439.303C284.811 440.754 284.678 442.202 284.41 443.628C283.96 446.571 283.928 450.394 282.871 453.148C282.668 453.783 282.334 454.369 281.89 454.867C281.446 455.365 280.904 455.765 280.296 456.04C279.689 456.316 279.031 456.461 278.364 456.466C277.697 456.471 277.037 456.336 276.426 456.07C275.379 455.599 274.333 455.075 273.286 454.583C266.841 451.525 260.353 448.529 253.886 445.503C253.154 445.168 252.515 446.246 253.248 446.55L268.347 453.598C271.487 455.054 274.688 457.117 278.016 458.06C280.444 458.751 282.516 458.458 283.572 456.018C285.111 452.488 285.152 447.147 285.665 443.303C286.345 438.465 286.042 432.558 279.931 432.087C271.413 431.427 262.006 433.249 253.52 433.909C252.714 433.972 252.714 435.229 253.52 435.166L253.562 435.208Z" fill="#1E3E7A"/>
<path d="M219.281 392.363C213.683 395.505 212.323 401.673 210.743 407.465C208.891 414.23 207.886 419.111 212.438 425.143C212.919 425.782 214.008 425.143 213.484 424.515C209.163 418.786 210.188 414.115 211.904 407.758C213.39 402.333 214.604 396.343 219.878 393.41C219.981 393.311 220.047 393.18 220.065 393.038C220.083 392.896 220.053 392.752 219.978 392.63C219.904 392.508 219.79 392.415 219.656 392.367C219.522 392.318 219.375 392.317 219.24 392.363H219.281Z" fill="#1E3E7A"/>
<path d="M286.419 417.498L281.323 432.767C281.071 433.532 282.285 433.815 282.536 433.103L287.622 417.823C287.884 417.058 286.67 416.775 286.419 417.498Z" fill="#1E3E7A"/>
<path d="M267.594 453.012C258.625 473.402 251.542 494.573 246.436 516.258C246.247 517.043 247.482 517.379 247.65 516.593C252.72 495.009 259.761 473.936 268.682 453.64C269.007 452.907 267.918 452.268 267.636 453.012H267.594Z" fill="#1E3E7A"/>
<path d="M288.501 418.011L301.654 431.438L307.932 437.805C308.979 438.852 310.716 440.036 311.396 441.334C312.359 443.178 312.233 442.759 310.193 444.047C305.473 447.011 300.126 449.147 295.313 452.038C289.964 455.265 284.781 458.76 279.784 462.511C279.671 462.584 279.585 462.692 279.537 462.818C279.489 462.943 279.482 463.081 279.516 463.211C279.551 463.341 279.626 463.457 279.731 463.542C279.835 463.627 279.964 463.676 280.098 463.684L294.183 465.276C296.118 465.485 304.019 465.192 304.699 467.067C305.034 467.967 298.682 475.508 298.096 476.356C295.857 479.617 293.67 482.902 291.535 486.211C282.374 500.457 274.153 515.287 266.924 530.606C266.579 531.329 267.667 531.968 267.97 531.234C278.754 508.392 291.72 486.646 306.687 466.302C307.001 465.883 306.562 465.412 306.143 465.359L279.983 462.417L280.297 463.59C290.814 455.694 302.153 448.959 314.117 443.502C314.199 443.453 314.269 443.385 314.322 443.304C314.375 443.223 314.408 443.131 314.42 443.035C314.432 442.94 314.423 442.842 314.392 442.751C314.361 442.66 314.31 442.576 314.242 442.507C305.934 434.031 297.622 425.555 289.306 417.079C288.741 416.493 287.852 417.383 288.427 417.959L288.501 418.011Z" fill="#1E3E7A"/>
<path d="M375.541 452.059C349.366 446.272 323.844 437.85 299.363 426.924C298.63 426.589 297.992 427.678 298.735 427.971C323.306 438.975 348.927 447.463 375.206 453.305C375.99 453.483 376.325 452.258 375.541 452.09V452.059Z" fill="#1E3E7A"/>
<path d="M371.638 451.902C350.301 486.4 328.044 521.547 323.053 562.601C322.959 563.397 324.215 563.397 324.309 562.601C329.258 521.84 351.515 486.787 372.726 452.541C373.155 451.849 372.067 451.221 371.679 451.902H371.638Z" fill="#1E3E7A"/>
<path d="M343.406 503.083C349.087 496.868 356.241 492.185 364.208 489.468C364.972 489.206 364.647 488.002 363.884 488.264C355.701 491.043 348.351 495.845 342.516 502.224C341.972 502.821 342.861 503.712 343.406 503.115V503.083Z" fill="#1E3E7A"/>
<path d="M276.875 526.993C282.221 518.797 288.865 511.527 296.547 505.471C298.368 504.047 300.001 501.879 302.428 502.853C303.925 503.45 306.153 508.089 307.116 509.409L316.534 522.511C316.994 523.16 318.082 522.51 317.58 521.872L302.344 500.58C302.26 500.437 302.122 500.334 301.961 500.293C301.8 500.252 301.629 500.276 301.486 500.36C291.275 507.25 282.538 516.108 275.787 526.417C275.347 527.098 276.436 527.726 276.833 527.045L276.875 526.993Z" fill="#1E3E7A"/>
<path d="M306.98 507.566C308.55 506.832 310.444 505.314 311.961 506.445C313.478 507.576 314.671 510.121 315.498 511.681C317.047 514.806 318.042 518.176 318.438 521.641C318.543 522.427 319.799 522.437 319.694 521.641C318.96 515.215 316.209 509.186 311.836 504.424C311.735 504.328 311.606 504.268 311.469 504.251C311.332 504.234 311.192 504.261 311.072 504.329L306.342 506.518C305.609 506.864 306.248 507.943 306.98 507.566Z" fill="#1E3E7A"/>
<path d="M269.979 528.25C283.41 527.913 296.802 526.639 310.056 524.437C313.105 523.921 316.139 523.362 319.16 522.762C319.882 522.615 322.833 521.463 323.503 521.851C325.062 522.751 324.549 525.61 324.549 527.087L325.271 549.793C325.271 549.959 325.337 550.119 325.455 550.237C325.573 550.355 325.732 550.421 325.899 550.421C326.065 550.421 326.225 550.355 326.343 550.237C326.46 550.119 326.527 549.959 326.527 549.793L325.616 520.887C325.613 520.792 325.588 520.698 325.544 520.613C325.5 520.528 325.438 520.454 325.362 520.396C325.286 520.338 325.198 520.297 325.104 520.277C325.011 520.257 324.914 520.258 324.821 520.28C306.797 524.268 288.432 526.516 269.979 526.993C269.813 526.993 269.653 527.059 269.535 527.177C269.417 527.295 269.351 527.455 269.351 527.621C269.351 527.788 269.417 527.948 269.535 528.066C269.653 528.183 269.813 528.25 269.979 528.25Z" fill="#1E3E7A"/>
<path d="M123.483 434.391C140.576 435.156 157.666 432.807 173.92 427.458C179.593 425.689 184.98 423.103 189.909 419.781C193.079 417.548 196.058 415.054 198.813 412.324C200.603 410.575 202.319 408.753 204.045 406.92C204.747 406.166 210.219 399.149 211.841 403.244C212.134 403.988 213.348 403.663 213.055 402.909C210.627 396.803 204.527 404.574 202.518 406.721C196.323 413.361 189.605 419.435 181.297 423.279C163.696 431.416 142.695 433.972 123.514 433.134C122.709 433.134 122.709 434.349 123.514 434.391H123.483Z" fill="#1E3E7A"/>
<path d="M115.175 437.103C81.1672 502.214 54.4208 570.873 35.4182 641.839C35.3962 641.919 35.3901 642.003 35.4003 642.085C35.4105 642.167 35.4367 642.246 35.4775 642.318C35.56 642.463 35.6967 642.57 35.8577 642.614C36.0186 642.659 36.1906 642.637 36.3359 642.555C36.4811 642.472 36.5876 642.336 36.632 642.175C55.6028 571.315 82.3036 502.758 116.253 437.742C116.629 437.03 115.541 436.391 115.206 437.103H115.175Z" fill="#1E3E7A"/>
<path d="M111.973 444.204C104.467 509.904 99.744 575.839 97.8047 642.007C97.8047 642.174 97.8708 642.334 97.9886 642.451C98.1063 642.569 98.266 642.635 98.4325 642.635C98.599 642.635 98.7587 642.569 98.8765 642.451C98.9942 642.334 99.0604 642.174 99.0604 642.007C100.986 575.902 105.702 509.967 113.208 444.204C113.302 443.398 112.046 443.408 111.952 444.204H111.973Z" fill="#1E3E7A"/>
<path d="M218.172 518.436C213.642 511.105 205.03 508.351 197.935 514.121C192.169 518.803 191.437 527.412 195.371 533.517C198.856 538.942 209.728 544.661 215.86 540.367C222.337 535.832 221.333 524.374 218.172 518.436C217.785 517.724 216.697 518.363 217.126 519.075C219.868 524.207 220.516 531.894 217.199 537.11C212.616 544.336 199.934 538.303 196.491 532.92C187.272 518.394 207.667 503.889 217.126 519.107C217.513 519.756 218.601 519.086 218.172 518.436Z" fill="#1E3E7A"/>
<path d="M221.5 518.332C223.99 525.809 223.593 538.66 215.452 542.723C205.061 547.96 193.791 538.073 191.761 528.145C189.836 518.719 196.313 507.345 206.766 507.471C213.443 507.544 219.104 512.373 221.5 518.332C221.793 519.075 223.007 518.751 222.703 518.007C219.899 511.011 212.94 505.439 205.071 506.298C194.66 507.408 188.528 518.866 190.547 528.48C192.64 538.743 203.606 548.379 214.458 544.504C224.492 540.953 225.602 526.7 222.703 518.007C222.452 517.242 221.238 517.567 221.5 518.332Z" fill="#1E3E7A"/>
<path d="M222.462 517.965C223.403 516.029 224.755 514.321 226.423 512.96C228.091 511.6 230.035 510.621 232.121 510.09C232.265 510.033 232.384 509.924 232.453 509.785C232.522 509.646 232.538 509.486 232.496 509.336C232.454 509.186 232.359 509.057 232.228 508.974C232.096 508.891 231.939 508.859 231.786 508.885C229.543 509.457 227.451 510.509 225.654 511.968C223.856 513.427 222.396 515.259 221.374 517.337C221.018 518.059 222.107 518.688 222.42 517.965H222.462Z" fill="#1E3E7A"/>
<path d="M210.816 507.566C213.852 504.257 217.583 501.664 221.741 499.973C222.484 499.679 222.159 498.464 221.406 498.768C217.026 500.514 213.093 503.219 209.895 506.686C209.351 507.272 210.241 508.163 210.785 507.566H210.816Z" fill="#1E3E7A"/>
<path d="M221.133 499.847L231.985 509.859C232.571 510.404 233.46 509.524 232.874 508.969L222.023 498.957C221.426 498.412 220.537 499.292 221.133 499.847Z" fill="#1E3E7A"/>
<path d="M231.503 509.932L237.196 514.603C237.823 515.117 238.713 514.226 238.085 513.713L232.393 509.042C231.775 508.529 230.886 509.419 231.503 509.932Z" fill="#1E3E7A"/>
<path d="M207.468 463.034C203.334 458.081 199.096 453.19 194.775 448.372C190.453 443.555 185.472 436.988 179.466 434.234C174.339 431.867 170.572 436.946 171.178 441.931C171.66 445.796 174.663 449.178 176.955 452.111C180.498 456.621 184.306 460.916 188.36 464.972C188.936 465.548 189.825 464.658 189.25 464.092C183.788 458.594 176.306 451.713 173.219 444.466C170.969 439.177 174.663 432.317 180.868 436.621C182.912 438.147 184.823 439.843 186.581 441.69C193.676 448.665 200.185 456.279 206.557 463.924C207.08 464.542 207.959 463.652 207.447 463.034H207.468Z" fill="#1E3E7A"/>
<path d="M206.578 463.924C211.926 469.685 213.234 476.974 214.322 484.462C215.127 490.021 216.928 495.389 219.637 500.308C220.025 501.02 221.113 500.391 220.684 499.679C217.178 493.249 216.132 486.965 214.918 479.885C213.872 473.602 211.779 467.726 207.426 463.034C206.871 462.437 205.992 463.327 206.537 463.924H206.578Z" fill="#1E3E7A"/>
<path d="M189.145 463.987L143.103 441.994C137.672 439.397 132.231 436.035 126.633 433.888C122.301 432.212 118.419 433.825 115.311 437.03C114.746 437.606 115.635 438.496 116.2 437.92C121.851 432.15 127.355 435.888 133.257 438.706L151.684 447.513L188.548 465.129C189.281 465.475 189.919 464.385 189.187 464.082L189.145 463.987Z" fill="#1E3E7A"/>
<path d="M115.112 437.26C112.695 446.749 124.53 449.66 130.944 452.488C142.418 457.556 153.297 463.878 163.383 471.339C164.031 471.821 164.659 470.732 164.01 470.292C156.455 464.701 148.451 459.744 140.079 455.473C136.682 453.748 133.229 452.142 129.72 450.655C124.247 448.341 114.233 445.911 116.326 437.658C116.352 437.505 116.32 437.347 116.237 437.216C116.154 437.085 116.025 436.989 115.875 436.947C115.726 436.906 115.566 436.921 115.427 436.99C115.288 437.06 115.179 437.178 115.123 437.323L115.112 437.26Z" fill="#1E3E7A"/>
<path d="M158.402 466.375C156.227 466.416 154.118 467.127 152.362 468.41C150.605 469.694 149.286 471.488 148.585 473.548C147.884 475.609 147.835 477.836 148.443 479.925C149.052 482.015 150.29 483.866 151.987 485.227C152.594 485.75 153.494 484.86 152.877 484.336C146.159 478.587 149.518 468.177 158.402 467.663C159.207 467.611 159.218 466.354 158.402 466.407V466.375Z" fill="#1E3E7A"/>
<path d="M152.27 484.148C144.945 485.813 143.679 494.788 149.978 498.684C150.669 499.114 151.297 498.025 150.617 497.637C145.196 494.296 146.337 486.818 152.594 485.394C153.39 485.216 153.055 484.012 152.27 484.19V484.148Z" fill="#1E3E7A"/>
<path d="M149.298 496.988C144.809 497.941 142.507 501.313 144.275 505.732C146.368 510.969 151.914 514.603 156.654 517.19C161.007 519.567 165.674 521.128 170.195 523.149C178.796 527.089 187.002 531.841 194.701 537.34C195.361 537.811 195.988 536.722 195.34 536.293C185.609 529.445 175.121 523.745 164.084 519.306C160.421 517.884 156.914 516.087 153.62 513.943C151.206 512.412 149.06 510.495 147.268 508.267C145.416 505.837 144.746 504.58 146.012 501.596C147.059 499.176 147.237 498.737 149.633 498.234C150.418 498.066 150.083 496.862 149.298 497.019V496.988Z" fill="#1E3E7A"/>
<path d="M197.265 540.032C204.834 564.992 212.403 589.949 219.972 614.903C220.202 615.678 221.416 615.353 221.186 614.578C213.61 589.611 206.041 564.65 198.479 539.697C198.434 539.536 198.328 539.399 198.183 539.316C198.037 539.234 197.865 539.212 197.704 539.257C197.543 539.301 197.407 539.408 197.324 539.553C197.242 539.699 197.22 539.871 197.265 540.032Z" fill="#1E3E7A"/>
<path d="M238.64 512.467C228.632 526.092 219.903 540.614 212.564 555.846C212.218 556.569 213.296 557.207 213.61 556.474C220.947 541.243 229.672 526.722 239.676 513.095C240.157 512.446 239.069 511.818 238.629 512.467H238.64Z" fill="#1E3E7A"/>
<path d="M213.317 557.48C216.217 559.707 219.443 561.473 222.881 562.716C223.645 562.988 223.928 561.774 223.216 561.501C219.886 560.291 216.762 558.575 213.955 556.411C213.317 555.919 212.689 557.008 213.317 557.459V557.48Z" fill="#1E3E7A"/>
<path d="M238.588 513.106L243.747 518.007C244.322 518.562 245.212 517.672 244.626 517.117L239.477 512.216C238.891 511.661 238.002 512.551 238.588 513.106Z" fill="#1E3E7A"/>
<path d="M244.73 514.76C234.496 536.677 224.259 558.593 214.018 580.51C213.673 581.243 214.761 581.882 215.064 581.149C225.312 559.232 235.553 537.316 245.787 515.399C246.121 514.666 245.044 514.027 244.74 514.76H244.73Z" fill="#1E3E7A"/>
<path d="M244.866 515.525C266.035 531.988 289.254 545.718 312.966 558.16C319.862 561.784 326.998 564.957 333.894 568.633C345.959 575.126 355.366 585.202 362.147 597.057C362.246 597.16 362.377 597.226 362.519 597.244C362.66 597.262 362.804 597.232 362.926 597.157C363.048 597.083 363.141 596.969 363.189 596.835C363.238 596.7 363.239 596.553 363.193 596.418C357.323 586.092 349.349 576.718 339.272 570.298C332 565.669 323.922 562.402 316.252 558.443C291.703 545.729 267.625 531.622 245.776 514.624C245.149 514.132 244.249 515.022 244.887 515.514L244.866 515.525Z" fill="#1E3E7A"/>
<path d="M220.715 452.132L227.527 504.832C227.621 505.628 228.888 505.638 228.783 504.832L221.971 452.132C221.866 451.347 220.611 451.336 220.715 452.132Z" fill="#1E3E7A"/>
<path d="M194.063 415.152C192.131 424.138 190.188 433.123 188.235 442.109C188.067 442.895 189.281 443.23 189.448 442.444C191.395 433.459 193.338 424.473 195.277 415.487C195.444 414.691 194.23 414.356 194.063 415.152Z" fill="#1E3E7A"/>
<path d="M241.413 436.862C236.663 436.149 231.869 435.764 227.067 435.71C226.9 435.71 226.74 435.777 226.623 435.894C226.505 436.012 226.439 436.172 226.439 436.339C226.439 436.505 226.505 436.665 226.623 436.783C226.74 436.901 226.9 436.967 227.067 436.967C231.757 437.014 236.438 437.382 241.078 438.067C241.863 438.193 242.208 437.019 241.413 436.862Z" fill="#1E3E7A"/>
<path d="M241.727 439.701C238.639 439.795 235.591 440.422 232.717 441.554C231.974 441.847 232.299 443.062 233.052 442.759C235.82 441.669 238.754 441.06 241.727 440.957C242.533 440.957 242.533 439.669 241.727 439.701Z" fill="#1E3E7A"/>
<path d="M255.424 442.56C257.705 443.038 259.95 443.675 262.142 444.466C262.906 444.738 263.188 443.523 262.477 443.251C260.286 442.459 258.041 441.825 255.759 441.355C254.964 441.188 254.629 442.403 255.424 442.56Z" fill="#1E3E7A"/>
<path d="M255.131 439.407C257.482 439.366 259.825 439.114 262.131 438.653L261.336 438.046V438.318C261.336 438.485 261.402 438.645 261.52 438.762C261.638 438.88 261.797 438.947 261.964 438.947C262.131 438.947 262.29 438.88 262.408 438.762C262.526 438.645 262.592 438.485 262.592 438.318V438.046C262.591 437.95 262.567 437.855 262.524 437.77C262.48 437.684 262.418 437.609 262.341 437.552C262.264 437.494 262.175 437.455 262.081 437.437C261.986 437.419 261.889 437.423 261.797 437.449C259.599 437.877 257.369 438.111 255.131 438.151C254.964 438.151 254.805 438.217 254.687 438.335C254.569 438.452 254.503 438.612 254.503 438.779C254.503 438.946 254.569 439.105 254.687 439.223C254.805 439.341 254.964 439.407 255.131 439.407Z" fill="#1E3E7A"/>
<path d="M207.321 545.059C210.019 546.041 212.476 547.587 214.531 549.594C215.106 550.159 215.996 549.269 215.42 548.703C213.204 546.553 210.558 544.897 207.656 543.844C206.892 543.561 206.61 544.776 207.321 545.059Z" fill="#1E3E7A"/>
<path d="M214.238 581.368C236.291 593.563 257.539 607.164 277.848 622.087C286.158 628.058 294.879 633.433 303.946 638.174C317.36 645.432 330.21 651.328 345.885 648.741C364.323 645.714 383.095 634.016 386.936 614.652C388.715 605.697 387.982 596.334 387.501 587.286C386.664 572.257 385.837 557.26 385.826 542.252C385.826 527.59 385.753 512.928 385.209 498.339C384.623 482.535 381.024 467.171 375.875 452.258C375.614 451.504 374.4 451.828 374.661 452.593C379.318 466.061 382.823 479.98 383.755 494.244C384.634 507.859 384.529 521.578 384.56 535.214C384.56 547.907 384.78 560.58 385.45 573.262C386.004 583.892 387.082 594.596 386.695 605.247C386.402 613.018 384.885 620.558 380.542 627.125C374.128 636.844 363.496 642.646 352.582 645.913C344.698 648.367 336.333 648.842 328.222 647.296C320.615 645.777 313.771 642.059 307.001 638.415C297.494 633.513 288.331 627.971 279.575 621.826C258.829 606.75 237.226 592.892 214.876 580.321C214.741 580.275 214.594 580.276 214.46 580.325C214.325 580.374 214.212 580.467 214.137 580.589C214.063 580.711 214.032 580.854 214.051 580.996C214.069 581.138 214.135 581.269 214.238 581.368Z" fill="#1E3E7A"/>
<path d="M226.7 588.123C222.731 605.739 218.758 623.351 214.782 640.96C214.604 641.745 215.828 642.08 215.996 641.295C219.972 623.679 223.945 606.067 227.914 588.458C228.092 587.673 226.868 587.338 226.7 588.123Z" fill="#1E3E7A"/>
<path d="M235.898 593.098L216.613 633.032C216.257 633.754 217.346 634.393 217.659 633.67L236.955 593.737C237.3 593.004 236.223 592.375 235.909 593.098H235.898Z" fill="#1E3E7A"/>
<g clip-path="url(#clip1_217_158)">
<path fill-rule="evenodd" clip-rule="evenodd" d="M98.913 50.206C100.608 52.2776 101.226 54.715 100.769 57.5449H87.8112C88.4297 59.6165 90.1558 60.966 92.402 60.966C94.3222 60.966 95.6911 60.1762 96.5709 58.5964L100.184 60.244C98.6517 63.0061 95.787 64.7845 92.2726 64.7845C89.7003 64.7845 87.5835 63.9292 85.8574 62.2502C84.1314 60.5711 83.2852 58.4656 83.2852 55.9652C83.2852 53.4623 84.1314 51.3569 85.8239 49.6802C87.5164 48.0012 89.602 47.1459 92.1095 47.1459C94.9407 47.1459 97.187 48.1659 98.913 50.206ZM87.8759 54.1553H96.3743C95.7558 52.2121 94.1592 50.9619 92.1095 50.9619C90.1558 50.9619 88.4944 52.2121 87.8759 54.1553Z" fill="#0D4084"/>
<path fill-rule="evenodd" clip-rule="evenodd" d="M118.645 49.6778C120.174 51.3569 120.956 53.4623 120.956 55.9652C120.956 58.4656 120.174 60.5711 118.645 62.2502C117.113 63.9292 115.193 64.7845 112.882 64.7845C110.731 64.7845 108.941 63.9946 107.541 62.4464V71.0356H103.146V47.473H107.541V49.4815C108.941 47.9357 110.731 47.1459 112.882 47.1459C115.193 47.1459 117.113 48.0012 118.645 49.6778ZM111.968 60.7359C113.239 60.7359 114.282 60.2755 115.128 59.3548C115.974 58.4656 116.399 57.3147 116.399 55.9652C116.399 54.6156 115.974 53.4623 115.128 52.5756C114.282 51.6864 113.239 51.226 111.968 51.226C110.7 51.226 109.657 51.6864 108.811 52.5756C107.965 53.4963 107.541 54.6156 107.541 55.9652C107.541 57.3147 107.965 58.4656 108.811 59.3548C109.657 60.2755 110.7 60.7359 111.968 60.7359Z" fill="#0D4084"/>
<path d="M127.565 57.9717L135.575 47.4757H139.842V64.4553H135.445V53.9569L127.436 64.4553H123.169V47.4757H127.565V57.9717Z" fill="#0D4084"/>
<path d="M147.753 64.4551H143.356V47.473H159.442V64.4551H155.045V51.3908H147.753V64.4551Z" fill="#0D4084"/>
<mask id="mask0_217_158" style="mask-type:alpha" maskUnits="userSpaceOnUse" x="25" y="18" width="49" height="50">
<path d="M49.5745 18.9218L73.3939 43.6013L48.8338 67.8132L25.0144 43.1337L49.5745 18.9218Z" fill="url(#paint0_linear_217_158)"/>
</mask>
<g mask="url(#mask0_217_158)">
<path d="M34.3037 33.9773L49.5049 52.7571L54.5823 46.4915L44.4538 33.9773H34.3037ZM49.5288 33.9773L59.6525 46.4842C62.0235 43.5574 63.2125 42.0891 63.2149 42.0819C64.1067 40.9746 64.0755 39.4046 63.2005 38.3264L60.5659 35.07C60.0049 34.3795 59.1683 33.9773 58.2837 33.9773H49.5288Z" fill="url(#paint1_linear_217_158)"/>
</g>
<mask id="mask1_217_158" style="mask-type:alpha" maskUnits="userSpaceOnUse" x="37" y="36" width="53" height="54">
<path d="M89.7243 59.5343L67.1516 89.6484L37.4253 66.8878L59.9981 36.7737L89.7243 59.5343Z" fill="url(#paint2_linear_217_158)"/>
</mask>
<g mask="url(#mask1_217_158)">
<path d="M50.3584 76.7901H59.1157C59.9979 76.7901 60.8345 76.3904 61.3955 75.6998L75.899 57.7874C76.7884 56.6923 76.7884 55.1125 75.899 54.015L72.351 49.632L50.3584 76.7901Z" fill="url(#paint3_linear_217_158)"/>
</g>
<mask id="mask2_217_158" style="mask-type:alpha" maskUnits="userSpaceOnUse" x="16" y="21" width="72" height="73">
<path d="M87.4876 52.3524L56.7496 93.3598L16.7942 62.7659L47.5297 21.7585L87.4876 52.3524Z" fill="url(#paint4_linear_217_158)"/>
</mask>
<g mask="url(#mask2_217_158)">
<path d="M63.2151 42.0813C63.2127 42.0886 62.0237 43.5568 59.6528 46.4837L35.1118 76.7892H45.2691L68.2806 48.3735C69.17 47.276 69.17 45.6987 68.2806 44.6011L63.2007 38.3258C64.0757 39.404 64.1069 40.974 63.2151 42.0813Z" fill="url(#paint5_linear_217_158)"/>
</g>
</g>
</g>
<defs>
<linearGradient id="paint0_linear_217_158" x1="12.218" y1="62.8078" x2="32.8507" y2="83.7363" gradientUnits="userSpaceOnUse">
<stop stop-color="#FFAA64"/>
<stop offset="1" stop-color="#FF513E"/>
</linearGradient>
<linearGradient id="paint1_linear_217_158" x1="38.6018" y1="33.4917" x2="63.7363" y2="33.4917" gradientUnits="userSpaceOnUse">
<stop stop-color="#FFAA64"/>
<stop offset="1" stop-color="#FF513E"/>
</linearGradient>
<linearGradient id="paint2_linear_217_158" x1="36.8914" y1="24.0201" x2="16.4187" y2="50.7585" gradientUnits="userSpaceOnUse">
<stop stop-color="#FFAA64"/>
<stop offset="1" stop-color="#FF513E"/>
</linearGradient>
<linearGradient id="paint3_linear_217_158" x1="53.0661" y1="49.1471" x2="76.3212" y2="49.1471" gradientUnits="userSpaceOnUse">
<stop stop-color="#FFAA64"/>
<stop offset="1" stop-color="#FF513E"/>
</linearGradient>
<linearGradient id="paint4_linear_217_158" x1="16.0086" y1="2.19251" x2="-12.9391" y2="39.9995" gradientUnits="userSpaceOnUse">
<stop stop-color="#FFAA64"/>
<stop offset="1" stop-color="#FF513E"/>
</linearGradient>
<linearGradient id="paint5_linear_217_158" x1="37.4911" y1="37.8415" x2="68.7253" y2="37.8415" gradientUnits="userSpaceOnUse">
<stop stop-color="#FFAA64"/>
<stop offset="1" stop-color="#FF513E"/>
</linearGradient>
<clipPath id="clip0_217_158">
<rect x="14.9883" y="11.1322" width="373.078" height="638.227" rx="13.6918" fill="white"/>
</clipPath>
<clipPath id="clip1_217_158">
<rect width="141.923" height="49.2905" fill="white" transform="translate(37.0425 35.7775)"/>
</clipPath>
</defs>
</svg>
