<svg width="411" height="654" viewBox="0 0 411 654" fill="none" xmlns="http://www.w3.org/2000/svg">
<rect opacity="0.6" x="0.722561" y="1.17666" width="409.634" height="651.729" rx="13.3476" stroke="#B3B3B3" stroke-width="0.861138"/>
<g clip-path="url(#clip0_8_233)">
<path d="M57.8304 117.253C57.8304 118.904 57.6204 120.408 57.2005 121.765C56.7903 123.113 56.1702 124.275 55.3401 125.251C54.5101 126.218 53.47 126.965 52.22 127.493C50.97 128.02 49.5052 128.284 47.8255 128.284C46.1165 128.284 44.6321 128.02 43.3724 127.493C42.1224 126.965 41.0823 126.213 40.2523 125.237C39.4319 124.26 38.8167 123.093 38.4066 121.736C37.9964 120.378 37.7913 118.874 37.7913 117.224C37.7913 115.017 38.1526 113.093 38.8753 111.453C39.6077 109.802 40.7161 108.523 42.2005 107.615C43.6946 106.697 45.5794 106.238 47.8548 106.238C50.0814 106.238 51.9319 106.692 53.4066 107.6C54.8812 108.508 55.9847 109.788 56.7171 111.438C57.4593 113.079 57.8304 115.017 57.8304 117.253ZM41.4827 117.253C41.4827 118.904 41.7073 120.334 42.1566 121.545C42.6058 122.747 43.2943 123.674 44.222 124.329C45.1595 124.973 46.3607 125.295 47.8255 125.295C49.3001 125.295 50.5013 124.973 51.429 124.329C52.3568 123.674 53.0403 122.747 53.4798 121.545C53.9193 120.334 54.139 118.904 54.139 117.253C54.139 114.744 53.636 112.781 52.6302 111.365C51.6341 109.939 50.0423 109.226 47.8548 109.226C46.39 109.226 45.1839 109.548 44.2366 110.193C43.2991 110.837 42.6058 111.76 42.1566 112.961C41.7073 114.153 41.4827 115.583 41.4827 117.253ZM76.2435 111.775V127.991H72.7718V114.499H65.5355V127.991H62.0784V111.775H76.2435ZM94.5247 127.991H91.053V114.47H86.556C86.3607 116.931 86.1165 119.036 85.8235 120.784C85.5306 122.532 85.1644 123.957 84.7249 125.061C84.2855 126.155 83.7435 126.956 83.0989 127.463C82.4544 127.971 81.678 128.225 80.7698 128.225C80.3694 128.225 80.0081 128.196 79.6859 128.137C79.3636 128.088 79.0755 128.01 78.8216 127.903V125.193C78.9876 125.251 79.1683 125.3 79.3636 125.339C79.5589 125.378 79.7591 125.398 79.9642 125.398C80.3255 125.398 80.6575 125.251 80.9603 124.958C81.2728 124.656 81.5609 124.182 81.8245 123.538C82.0882 122.893 82.3275 122.043 82.5423 120.989C82.7571 119.924 82.9525 118.635 83.1282 117.122C83.304 115.598 83.4603 113.816 83.597 111.775H94.5247V127.991ZM105.819 111.467C107.869 111.467 109.417 111.921 110.462 112.83C111.517 113.738 112.044 115.154 112.044 117.078V127.991H109.598L108.939 125.691H108.822C108.363 126.277 107.889 126.76 107.401 127.141C106.912 127.522 106.346 127.805 105.701 127.991C105.067 128.186 104.29 128.284 103.372 128.284C102.406 128.284 101.541 128.108 100.78 127.756C100.018 127.395 99.4173 126.848 98.9778 126.116C98.5384 125.383 98.3187 124.456 98.3187 123.332C98.3187 121.663 98.9388 120.408 100.179 119.568C101.429 118.728 103.314 118.264 105.833 118.176L108.646 118.074V117.224C108.646 116.101 108.382 115.3 107.855 114.822C107.337 114.343 106.605 114.104 105.658 114.104C104.847 114.104 104.061 114.221 103.299 114.456C102.537 114.69 101.795 114.978 101.073 115.32L99.9593 112.888C100.75 112.468 101.649 112.126 102.655 111.863C103.67 111.599 104.725 111.467 105.819 111.467ZM108.631 120.242L106.536 120.315C104.818 120.373 103.612 120.666 102.918 121.194C102.225 121.721 101.878 122.444 101.878 123.362C101.878 124.163 102.117 124.748 102.596 125.12C103.075 125.481 103.704 125.662 104.486 125.662C105.677 125.662 106.663 125.325 107.445 124.651C108.236 123.967 108.631 122.966 108.631 121.648V120.242ZM129.11 114.485H123.778V127.991H120.35V114.485H115.047V111.775H129.11V114.485ZM138.602 111.467C140.653 111.467 142.201 111.921 143.245 112.83C144.3 113.738 144.827 115.154 144.827 117.078V127.991H142.381L141.722 125.691H141.605C141.146 126.277 140.672 126.76 140.184 127.141C139.696 127.522 139.129 127.805 138.485 127.991C137.85 128.186 137.074 128.284 136.156 128.284C135.189 128.284 134.325 128.108 133.563 127.756C132.801 127.395 132.201 126.848 131.761 126.116C131.322 125.383 131.102 124.456 131.102 123.332C131.102 121.663 131.722 120.408 132.962 119.568C134.212 118.728 136.097 118.264 138.617 118.176L141.429 118.074V117.224C141.429 116.101 141.165 115.3 140.638 114.822C140.12 114.343 139.388 114.104 138.441 114.104C137.63 114.104 136.844 114.221 136.082 114.456C135.321 114.69 134.578 114.978 133.856 115.32L132.742 112.888C133.534 112.468 134.432 112.126 135.438 111.863C136.453 111.599 137.508 111.467 138.602 111.467ZM141.414 120.242L139.32 120.315C137.601 120.373 136.395 120.666 135.701 121.194C135.008 121.721 134.661 122.444 134.661 123.362C134.661 124.163 134.901 124.748 135.379 125.12C135.858 125.481 136.488 125.662 137.269 125.662C138.46 125.662 139.447 125.325 140.228 124.651C141.019 123.967 141.414 122.966 141.414 121.648V120.242ZM170.784 127.991H167.313V114.47H162.816C162.62 116.931 162.376 119.036 162.083 120.784C161.79 122.532 161.424 123.957 160.985 125.061C160.545 126.155 160.003 126.956 159.359 127.463C158.714 127.971 157.938 128.225 157.03 128.225C156.629 128.225 156.268 128.196 155.946 128.137C155.623 128.088 155.335 128.01 155.081 127.903V125.193C155.247 125.251 155.428 125.3 155.623 125.339C155.819 125.378 156.019 125.398 156.224 125.398C156.585 125.398 156.917 125.251 157.22 124.958C157.533 124.656 157.821 124.182 158.084 123.538C158.348 122.893 158.587 122.043 158.802 120.989C159.017 119.924 159.212 118.635 159.388 117.122C159.564 115.598 159.72 113.816 159.857 111.775H170.784V127.991ZM197.342 119.846C197.342 121.633 197.044 123.157 196.449 124.416C195.863 125.676 195.023 126.638 193.929 127.302C192.835 127.956 191.527 128.284 190.003 128.284C188.656 128.284 187.459 128.01 186.414 127.463C185.379 126.916 184.549 126.101 183.924 125.017C183.299 123.933 182.913 122.59 182.767 120.989H179.163V127.991H175.721V111.775H179.163V118.293H182.811C182.987 116.838 183.387 115.603 184.012 114.587C184.637 113.572 185.462 112.8 186.488 112.273C187.523 111.736 188.719 111.467 190.076 111.467C191.522 111.467 192.786 111.799 193.87 112.463C194.964 113.118 195.814 114.07 196.419 115.32C197.034 116.56 197.342 118.069 197.342 119.846ZM186.268 119.846C186.268 121.057 186.395 122.082 186.649 122.922C186.912 123.762 187.323 124.397 187.879 124.827C188.436 125.256 189.159 125.471 190.047 125.471C190.936 125.471 191.654 125.256 192.201 124.827C192.757 124.397 193.162 123.767 193.416 122.937C193.68 122.097 193.812 121.067 193.812 119.846C193.812 118.635 193.68 117.62 193.416 116.799C193.162 115.979 192.757 115.359 192.201 114.939C191.644 114.509 190.921 114.294 190.033 114.294C189.154 114.294 188.436 114.509 187.879 114.939C187.323 115.359 186.912 115.979 186.649 116.799C186.395 117.62 186.268 118.635 186.268 119.846ZM200.404 118.264C200.404 115.911 200.662 113.909 201.18 112.258C201.698 110.608 202.513 109.285 203.626 108.289C204.74 107.292 206.185 106.614 207.962 106.252C209.115 105.989 210.286 105.764 211.478 105.579C212.669 105.393 213.861 105.212 215.052 105.037L215.521 108.069C214.964 108.137 214.368 108.22 213.734 108.318C213.099 108.406 212.459 108.498 211.815 108.596C211.18 108.694 210.57 108.796 209.984 108.904C209.408 109.001 208.89 109.099 208.431 109.197C207.513 109.392 206.737 109.714 206.102 110.164C205.477 110.603 204.989 111.247 204.637 112.097C204.285 112.947 204.076 114.08 204.007 115.496H204.198C204.461 115.095 204.827 114.695 205.296 114.294C205.765 113.894 206.331 113.562 206.995 113.298C207.669 113.025 208.436 112.888 209.295 112.888C210.643 112.888 211.785 113.171 212.723 113.738C213.67 114.304 214.388 115.124 214.876 116.199C215.374 117.273 215.623 118.567 215.623 120.081C215.623 121.887 215.301 123.401 214.657 124.622C214.022 125.832 213.133 126.746 211.991 127.361C210.848 127.976 209.515 128.284 207.992 128.284C206.82 128.284 205.765 128.064 204.827 127.624C203.9 127.185 203.104 126.54 202.44 125.691C201.785 124.831 201.283 123.782 200.931 122.541C200.579 121.291 200.404 119.866 200.404 118.264ZM208.226 125.456C209.007 125.456 209.681 125.29 210.247 124.958C210.824 124.626 211.268 124.089 211.58 123.347C211.903 122.605 212.064 121.623 212.064 120.403C212.064 118.899 211.79 117.717 211.243 116.858C210.706 115.989 209.818 115.554 208.577 115.554C207.816 115.554 207.117 115.725 206.483 116.067C205.848 116.409 205.311 116.809 204.871 117.268C204.432 117.717 204.119 118.113 203.934 118.455C203.934 119.343 203.997 120.203 204.124 121.033C204.261 121.863 204.486 122.615 204.798 123.289C205.12 123.953 205.56 124.48 206.117 124.871C206.673 125.261 207.376 125.456 208.226 125.456ZM219.578 127.991V111.775H223.035V118.249H226.302C227.826 118.249 229.08 118.425 230.067 118.777C231.053 119.119 231.785 119.636 232.264 120.33C232.742 121.023 232.982 121.892 232.982 122.937C232.982 123.962 232.752 124.856 232.293 125.618C231.834 126.37 231.117 126.956 230.14 127.375C229.163 127.786 227.884 127.991 226.302 127.991H219.578ZM223.035 125.456H226.068C227.103 125.456 227.938 125.271 228.573 124.9C229.217 124.519 229.539 123.894 229.539 123.025C229.539 122.214 229.242 121.643 228.646 121.311C228.06 120.969 227.201 120.798 226.068 120.798H223.035V125.456ZM235.487 127.991V111.775H238.944V127.991H235.487ZM247.454 119.7L242.034 111.775H245.96L249.666 117.473L253.387 111.775H257.298L251.849 119.7L257.576 127.991H253.636L249.666 121.912L245.682 127.991H241.771L247.454 119.7ZM52.6302 152.775V168.991H49.1585V155.499H41.9222V168.991H38.4651V152.775H52.6302ZM71.9222 160.846C71.9222 162.194 71.7464 163.39 71.3948 164.435C71.0433 165.48 70.5306 166.364 69.8568 167.086C69.1829 167.799 68.3724 168.346 67.4251 168.727C66.4778 169.098 65.4085 169.284 64.2171 169.284C63.1038 169.284 62.0833 169.098 61.1556 168.727C60.2278 168.346 59.4222 167.799 58.7386 167.086C58.0648 166.364 57.5423 165.48 57.1712 164.435C56.8001 163.39 56.6146 162.194 56.6146 160.846C56.6146 159.059 56.9222 157.545 57.5374 156.305C58.1624 155.055 59.0511 154.103 60.2034 153.449C61.3558 152.794 62.7278 152.467 64.3196 152.467C65.8138 152.467 67.1321 152.794 68.2747 153.449C69.4173 154.103 70.3109 155.055 70.9554 156.305C71.5999 157.555 71.9222 159.069 71.9222 160.846ZM60.1595 160.846C60.1595 162.028 60.3011 163.039 60.5843 163.878C60.8773 164.718 61.3265 165.363 61.9319 165.812C62.5374 166.251 63.3187 166.471 64.2757 166.471C65.2327 166.471 66.014 166.251 66.6194 165.812C67.2249 165.363 67.6693 164.718 67.9525 163.878C68.2357 163.039 68.3773 162.028 68.3773 160.846C68.3773 159.664 68.2357 158.664 67.9525 157.843C67.6693 157.013 67.2249 156.383 66.6194 155.954C66.014 155.514 65.2278 155.294 64.261 155.294C62.8353 155.294 61.7952 155.773 61.1409 156.73C60.4866 157.687 60.1595 159.059 60.1595 160.846ZM85.9261 152.775H89.72L83.011 160.568L90.2913 168.991H86.3216L79.3343 160.758V168.991H75.8773V152.775H79.3343V160.641L85.9261 152.775ZM90.4818 152.775H94.2318L97.5569 162.033C97.7034 162.453 97.8353 162.868 97.9525 163.278C98.0794 163.678 98.1868 164.074 98.2747 164.464C98.3724 164.855 98.4505 165.246 98.5091 165.636H98.597C98.6946 165.128 98.8314 164.562 99.0071 163.937C99.1927 163.302 99.3978 162.667 99.6224 162.033L102.816 152.775H106.522L99.5638 171.217C99.1634 172.272 98.6702 173.17 98.0843 173.913C97.5081 174.664 96.8245 175.231 96.0335 175.612C95.2425 176.002 94.3392 176.198 93.3235 176.198C92.8353 176.198 92.4105 176.168 92.0491 176.11C91.6878 176.061 91.3802 176.007 91.1263 175.949V173.195C91.3314 173.244 91.5901 173.288 91.9026 173.327C92.2151 173.366 92.5374 173.385 92.8694 173.385C93.4847 173.385 94.0169 173.263 94.4661 173.019C94.9153 172.775 95.2962 172.428 95.6087 171.979C95.9212 171.539 96.18 171.037 96.3851 170.47L96.9564 168.947L90.4818 152.775ZM123.148 152.775V168.991H119.676V155.499H112.44V168.991H108.983V152.775H123.148ZM142.44 160.846C142.44 162.194 142.264 163.39 141.912 164.435C141.561 165.48 141.048 166.364 140.374 167.086C139.701 167.799 138.89 168.346 137.943 168.727C136.995 169.098 135.926 169.284 134.735 169.284C133.621 169.284 132.601 169.098 131.673 168.727C130.745 168.346 129.94 167.799 129.256 167.086C128.582 166.364 128.06 165.48 127.689 164.435C127.318 163.39 127.132 162.194 127.132 160.846C127.132 159.059 127.44 157.545 128.055 156.305C128.68 155.055 129.569 154.103 130.721 153.449C131.873 152.794 133.245 152.467 134.837 152.467C136.331 152.467 137.65 152.794 138.792 153.449C139.935 154.103 140.828 155.055 141.473 156.305C142.117 157.555 142.44 159.069 142.44 160.846ZM130.677 160.846C130.677 162.028 130.819 163.039 131.102 163.878C131.395 164.718 131.844 165.363 132.45 165.812C133.055 166.251 133.836 166.471 134.793 166.471C135.75 166.471 136.532 166.251 137.137 165.812C137.742 165.363 138.187 164.718 138.47 163.878C138.753 163.039 138.895 162.028 138.895 160.846C138.895 159.664 138.753 158.664 138.47 157.843C138.187 157.013 137.742 156.383 137.137 155.954C136.532 155.514 135.745 155.294 134.779 155.294C133.353 155.294 132.313 155.773 131.659 156.73C131.004 157.687 130.677 159.059 130.677 160.846ZM156.444 152.775H160.238L153.529 160.568L160.809 168.991H156.839L149.852 160.758V168.991H146.395V152.775H149.852V160.641L156.444 152.775ZM37.5423 200.264C37.5423 197.911 37.8011 195.909 38.3187 194.258C38.8362 192.608 39.6517 191.285 40.765 190.289C41.8782 189.292 43.3235 188.614 45.1009 188.252C46.2532 187.989 47.4251 187.764 48.6165 187.579C49.8079 187.393 50.9993 187.212 52.1907 187.037L52.6595 190.069C52.1028 190.137 51.5071 190.22 50.8724 190.318C50.2376 190.406 49.598 190.498 48.9534 190.596C48.3187 190.694 47.7083 190.796 47.1224 190.904C46.5462 191.001 46.0286 191.099 45.5696 191.197C44.6517 191.392 43.8753 191.714 43.2405 192.164C42.6155 192.603 42.1273 193.247 41.7757 194.097C41.4241 194.947 41.2142 196.08 41.1458 197.496H41.3362C41.5999 197.095 41.9661 196.695 42.4349 196.294C42.9036 195.894 43.47 195.562 44.1341 195.298C44.8079 195.025 45.5745 194.888 46.4339 194.888C47.7816 194.888 48.9241 195.171 49.8616 195.738C50.8089 196.304 51.5267 197.124 52.015 198.199C52.513 199.273 52.762 200.567 52.762 202.081C52.762 203.887 52.4398 205.401 51.7952 206.622C51.1605 207.832 50.2718 208.746 49.1292 209.361C47.9866 209.976 46.6536 210.284 45.1302 210.284C43.9583 210.284 42.9036 210.064 41.9661 209.624C41.0384 209.185 40.2425 208.54 39.5784 207.691C38.9241 206.831 38.4212 205.782 38.0696 204.541C37.7181 203.291 37.5423 201.866 37.5423 200.264ZM45.3646 207.456C46.1458 207.456 46.8196 207.29 47.386 206.958C47.9622 206.626 48.4066 206.089 48.7191 205.347C49.0413 204.605 49.2025 203.623 49.2025 202.403C49.2025 200.899 48.929 199.717 48.3821 198.858C47.845 197.989 46.9564 197.554 45.7161 197.554C44.9544 197.554 44.2562 197.725 43.6214 198.067C42.9866 198.409 42.4495 198.809 42.0101 199.268C41.5706 199.717 41.2581 200.113 41.0726 200.455C41.0726 201.343 41.136 202.203 41.263 203.033C41.3997 203.863 41.6243 204.615 41.9368 205.289C42.2591 205.953 42.6985 206.48 43.2552 206.871C43.8118 207.261 44.515 207.456 45.3646 207.456ZM63.0745 193.467C65.1253 193.467 66.6732 193.921 67.7181 194.83C68.7728 195.738 69.3001 197.154 69.3001 199.078V209.991H66.8538L66.1946 207.691H66.0775C65.6185 208.277 65.1448 208.76 64.6566 209.141C64.1683 209.522 63.6019 209.805 62.9573 209.991C62.3226 210.186 61.5462 210.284 60.6282 210.284C59.6614 210.284 58.7972 210.108 58.0355 209.756C57.2737 209.395 56.6732 208.848 56.2337 208.116C55.7943 207.383 55.5745 206.456 55.5745 205.332C55.5745 203.663 56.1946 202.408 57.4349 201.568C58.6849 200.728 60.5696 200.264 63.0892 200.176L65.9017 200.074V199.224C65.9017 198.101 65.638 197.3 65.1107 196.822C64.5931 196.343 63.8607 196.104 62.9134 196.104C62.1028 196.104 61.3167 196.221 60.555 196.456C59.7933 196.69 59.0511 196.978 58.3284 197.32L57.2151 194.888C58.0062 194.468 58.9046 194.126 59.9105 193.863C60.9261 193.599 61.9808 193.467 63.0745 193.467ZM65.887 202.242L63.7923 202.315C62.0735 202.373 60.8675 202.666 60.1741 203.194C59.4808 203.721 59.1341 204.444 59.1341 205.362C59.1341 206.163 59.3734 206.748 59.8519 207.12C60.3304 207.481 60.9603 207.662 61.7415 207.662C62.9329 207.662 63.9193 207.325 64.7005 206.651C65.4915 205.967 65.887 204.966 65.887 203.648V202.242ZM77.5765 193.775V200.293H85.1644V193.775H88.6214V209.991H85.1644V202.989H77.5765V209.991H74.1194V193.775H77.5765ZM103.592 193.775H107.386L100.677 201.568L107.957 209.991H103.988L97.0003 201.758V209.991H93.5433V193.775H97.0003V201.641L103.592 193.775ZM116.951 193.467C119.002 193.467 120.55 193.921 121.595 194.83C122.65 195.738 123.177 197.154 123.177 199.078V209.991H120.731L120.072 207.691H119.954C119.495 208.277 119.022 208.76 118.534 209.141C118.045 209.522 117.479 209.805 116.834 209.991C116.2 210.186 115.423 210.284 114.505 210.284C113.538 210.284 112.674 210.108 111.912 209.756C111.151 209.395 110.55 208.848 110.111 208.116C109.671 207.383 109.451 206.456 109.451 205.332C109.451 203.663 110.072 202.408 111.312 201.568C112.562 200.728 114.447 200.264 116.966 200.176L119.779 200.074V199.224C119.779 198.101 119.515 197.3 118.988 196.822C118.47 196.343 117.738 196.104 116.79 196.104C115.98 196.104 115.194 196.221 114.432 196.456C113.67 196.69 112.928 196.978 112.205 197.32L111.092 194.888C111.883 194.468 112.782 194.126 113.787 193.863C114.803 193.599 115.858 193.467 116.951 193.467ZM119.764 202.242L117.669 202.315C115.951 202.373 114.744 202.666 114.051 203.194C113.358 203.721 113.011 204.444 113.011 205.362C113.011 206.163 113.25 206.748 113.729 207.12C114.207 207.481 114.837 207.662 115.618 207.662C116.81 207.662 117.796 207.325 118.577 206.651C119.368 205.967 119.764 204.966 119.764 203.648V202.242ZM131.585 201.7L126.165 193.775H130.091L133.797 199.473L137.518 193.775H141.429L135.98 201.7L141.707 209.991H137.767L133.797 203.912L129.813 209.991H125.902L131.585 201.7ZM158.846 210.284C157.313 210.284 155.985 209.986 154.862 209.39C153.739 208.794 152.874 207.881 152.269 206.651C151.663 205.42 151.361 203.858 151.361 201.963C151.361 199.991 151.693 198.379 152.357 197.129C153.021 195.879 153.939 194.956 155.111 194.361C156.292 193.765 157.645 193.467 159.168 193.467C160.135 193.467 161.009 193.565 161.79 193.76C162.581 193.946 163.25 194.175 163.797 194.449L162.772 197.203C162.176 196.958 161.566 196.753 160.941 196.587C160.316 196.421 159.715 196.338 159.139 196.338C158.192 196.338 157.401 196.548 156.766 196.968C156.141 197.388 155.672 198.013 155.36 198.843C155.057 199.673 154.906 200.704 154.906 201.934C154.906 203.125 155.062 204.131 155.374 204.952C155.687 205.762 156.151 206.377 156.766 206.797C157.381 207.207 158.138 207.413 159.036 207.413C159.925 207.413 160.721 207.305 161.424 207.09C162.127 206.875 162.791 206.597 163.416 206.255V209.244C162.801 209.595 162.142 209.854 161.439 210.02C160.736 210.196 159.871 210.284 158.846 210.284ZM179.471 196.485H174.139V209.991H170.711V196.485H165.409V193.775H179.471V196.485ZM190.926 193.467C192.85 193.467 194.393 194.17 195.555 195.577C196.727 196.983 197.313 199.073 197.313 201.846C197.313 203.682 197.039 205.23 196.492 206.49C195.955 207.74 195.199 208.687 194.222 209.331C193.255 209.966 192.127 210.284 190.838 210.284C190.018 210.284 189.305 210.176 188.7 209.961C188.094 209.747 187.576 209.468 187.147 209.126C186.717 208.775 186.356 208.394 186.063 207.984H185.858C185.907 208.374 185.951 208.809 185.99 209.288C186.038 209.756 186.063 210.186 186.063 210.577V217.183H182.606V193.775H185.418L185.902 196.016H186.063C186.366 195.557 186.732 195.132 187.161 194.742C187.601 194.351 188.128 194.043 188.743 193.819C189.368 193.584 190.096 193.467 190.926 193.467ZM190.003 196.28C189.056 196.28 188.294 196.47 187.718 196.851C187.152 197.222 186.737 197.784 186.473 198.536C186.219 199.288 186.082 200.23 186.063 201.363V201.846C186.063 203.047 186.185 204.068 186.429 204.908C186.683 205.738 187.098 206.372 187.674 206.812C188.26 207.242 189.051 207.456 190.047 207.456C190.887 207.456 191.58 207.227 192.127 206.768C192.684 206.309 193.099 205.655 193.372 204.805C193.646 203.956 193.783 202.955 193.783 201.802C193.783 200.054 193.47 198.697 192.845 197.73C192.23 196.763 191.283 196.28 190.003 196.28ZM207.655 193.467C209.705 193.467 211.253 193.921 212.298 194.83C213.353 195.738 213.88 197.154 213.88 199.078V209.991H211.434L210.775 207.691H210.658C210.199 208.277 209.725 208.76 209.237 209.141C208.748 209.522 208.182 209.805 207.537 209.991C206.903 210.186 206.126 210.284 205.208 210.284C204.242 210.284 203.377 210.108 202.616 209.756C201.854 209.395 201.253 208.848 200.814 208.116C200.374 207.383 200.155 206.456 200.155 205.332C200.155 203.663 200.775 202.408 202.015 201.568C203.265 200.728 205.15 200.264 207.669 200.176L210.482 200.074V199.224C210.482 198.101 210.218 197.3 209.691 196.822C209.173 196.343 208.441 196.104 207.493 196.104C206.683 196.104 205.897 196.221 205.135 196.456C204.373 196.69 203.631 196.978 202.909 197.32L201.795 194.888C202.586 194.468 203.485 194.126 204.491 193.863C205.506 193.599 206.561 193.467 207.655 193.467ZM210.467 202.242L208.372 202.315C206.654 202.373 205.448 202.666 204.754 203.194C204.061 203.721 203.714 204.444 203.714 205.362C203.714 206.163 203.953 206.748 204.432 207.12C204.91 207.481 205.54 207.662 206.322 207.662C207.513 207.662 208.499 207.325 209.281 206.651C210.072 205.967 210.467 204.966 210.467 203.648V202.242ZM222.157 193.775V200.293H229.744V193.775H233.201V209.991H229.744V202.989H222.157V209.991H218.7V193.775H222.157ZM238.123 209.991V193.775H241.58V200.249H244.847C246.37 200.249 247.625 200.425 248.612 200.777C249.598 201.119 250.33 201.636 250.809 202.33C251.287 203.023 251.527 203.892 251.527 204.937C251.527 205.962 251.297 206.856 250.838 207.618C250.379 208.37 249.661 208.956 248.685 209.375C247.708 209.786 246.429 209.991 244.847 209.991H238.123ZM241.58 207.456H244.613C245.648 207.456 246.483 207.271 247.117 206.9C247.762 206.519 248.084 205.894 248.084 205.025C248.084 204.214 247.786 203.643 247.191 203.311C246.605 202.969 245.745 202.798 244.613 202.798H241.58V207.456ZM254.032 209.991V193.775H257.489V209.991H254.032Z" fill="#1E3E7A"/>
<path d="M186.121 156.686C186.121 157.555 185.858 158.331 185.33 159.015C184.813 159.689 184.017 160.114 182.943 160.289V160.407C184.124 160.543 185.033 160.954 185.667 161.637C186.312 162.311 186.634 163.18 186.634 164.245C186.634 165.075 186.409 165.851 185.96 166.574C185.521 167.296 184.74 167.882 183.617 168.331C182.493 168.771 180.916 168.991 178.885 168.991H170.755V152.394H178.914C180.584 152.394 181.947 152.56 183.001 152.892C184.066 153.214 184.852 153.698 185.36 154.342C185.867 154.977 186.121 155.758 186.121 156.686ZM180.804 163.688C180.804 163.258 180.662 162.912 180.379 162.648C180.106 162.374 179.569 162.238 178.768 162.238H176.483V165.241H178.709C179.461 165.241 179.998 165.099 180.321 164.816C180.643 164.523 180.804 164.147 180.804 163.688ZM180.423 157.448C180.423 157.018 180.286 156.696 180.013 156.481C179.74 156.256 179.344 156.144 178.826 156.144H176.483V158.634H178.621C179.227 158.634 179.676 158.522 179.969 158.297C180.272 158.073 180.423 157.789 180.423 157.448ZM205.472 160.656C205.472 162.042 205.282 163.273 204.901 164.347C204.52 165.421 203.968 166.325 203.245 167.057C202.523 167.789 201.649 168.346 200.623 168.727C199.598 169.098 198.441 169.284 197.152 169.284C195.951 169.284 194.847 169.098 193.841 168.727C192.845 168.346 191.976 167.789 191.234 167.057C190.492 166.325 189.915 165.421 189.505 164.347C189.105 163.273 188.905 162.042 188.905 160.656C188.905 158.82 189.237 157.267 189.901 155.997C190.575 154.728 191.532 153.761 192.772 153.097C194.022 152.433 195.511 152.101 197.24 152.101C198.831 152.101 200.247 152.433 201.488 153.097C202.728 153.761 203.7 154.728 204.403 155.997C205.116 157.267 205.472 158.82 205.472 160.656ZM194.72 160.656C194.72 161.603 194.803 162.404 194.969 163.058C195.135 163.703 195.399 164.196 195.76 164.538C196.131 164.87 196.615 165.036 197.21 165.036C197.806 165.036 198.28 164.87 198.631 164.538C198.983 164.196 199.237 163.703 199.393 163.058C199.559 162.404 199.642 161.603 199.642 160.656C199.642 159.708 199.559 158.917 199.393 158.283C199.237 157.648 198.978 157.169 198.617 156.847C198.265 156.525 197.786 156.364 197.181 156.364C196.312 156.364 195.682 156.725 195.291 157.448C194.91 158.17 194.72 159.24 194.72 160.656ZM231.912 156.686C231.912 157.555 231.649 158.331 231.121 159.015C230.604 159.689 229.808 160.114 228.734 160.289V160.407C229.915 160.543 230.824 160.954 231.458 161.637C232.103 162.311 232.425 163.18 232.425 164.245C232.425 165.075 232.201 165.851 231.751 166.574C231.312 167.296 230.531 167.882 229.408 168.331C228.284 168.771 226.707 168.991 224.676 168.991H216.546V152.394H224.705C226.375 152.394 227.738 152.56 228.792 152.892C229.857 153.214 230.643 153.698 231.151 154.342C231.659 154.977 231.912 155.758 231.912 156.686ZM226.595 163.688C226.595 163.258 226.453 162.912 226.17 162.648C225.897 162.374 225.36 162.238 224.559 162.238H222.274V165.241H224.5C225.252 165.241 225.789 165.099 226.112 164.816C226.434 164.523 226.595 164.147 226.595 163.688ZM226.214 157.448C226.214 157.018 226.077 156.696 225.804 156.481C225.531 156.256 225.135 156.144 224.617 156.144H222.274V158.634H224.412C225.018 158.634 225.467 158.522 225.76 158.297C226.063 158.073 226.214 157.789 226.214 157.448ZM242.972 169.284C241.292 169.284 239.832 168.986 238.592 168.39C237.352 167.785 236.39 166.857 235.706 165.607C235.033 164.347 234.696 162.736 234.696 160.773C234.696 158.761 235.072 157.116 235.824 155.836C236.585 154.557 237.625 153.615 238.944 153.009C240.262 152.404 241.756 152.101 243.426 152.101C244.442 152.101 245.404 152.213 246.312 152.438C247.23 152.663 248.079 152.97 248.861 153.361L247.176 157.594C246.492 157.291 245.853 157.052 245.257 156.876C244.671 156.691 244.061 156.598 243.426 156.598C242.85 156.598 242.342 156.749 241.903 157.052C241.463 157.355 241.121 157.814 240.877 158.429C240.633 159.035 240.511 159.806 240.511 160.744C240.511 161.701 240.633 162.472 240.877 163.058C241.131 163.644 241.478 164.069 241.917 164.332C242.367 164.596 242.879 164.728 243.455 164.728C244.285 164.728 245.111 164.601 245.931 164.347C246.761 164.083 247.547 163.722 248.289 163.263V167.819C247.606 168.268 246.834 168.624 245.975 168.888C245.116 169.152 244.115 169.284 242.972 169.284ZM259.056 152.101C260.667 152.101 262.059 152.384 263.231 152.951C264.403 153.507 265.306 154.347 265.941 155.47C266.576 156.593 266.893 157.999 266.893 159.689V162.238H256.654C256.702 163.107 257.025 163.82 257.62 164.376C258.226 164.933 259.115 165.211 260.286 165.211C261.322 165.211 262.269 165.109 263.128 164.904C263.997 164.699 264.891 164.381 265.809 163.952V168.068C265.008 168.488 264.134 168.795 263.187 168.991C262.24 169.186 261.043 169.284 259.598 169.284C257.928 169.284 256.434 168.986 255.116 168.39C253.797 167.794 252.757 166.872 251.995 165.622C251.243 164.372 250.867 162.765 250.867 160.802C250.867 158.81 251.209 157.174 251.893 155.895C252.576 154.606 253.534 153.654 254.764 153.039C255.994 152.414 257.425 152.101 259.056 152.101ZM259.261 155.997C258.587 155.997 258.021 156.212 257.562 156.642C257.113 157.062 256.849 157.726 256.771 158.634H261.693C261.683 158.146 261.585 157.702 261.4 157.301C261.214 156.901 260.941 156.583 260.579 156.349C260.228 156.115 259.788 155.997 259.261 155.997ZM273.646 160.524L268.577 152.394H275.081L277.601 157.052L280.179 152.394H286.698L281.497 160.524L286.903 168.991H280.399L277.601 163.952L274.818 168.991H268.299L273.646 160.524Z" fill="#EC7D43"/>
<path d="M47.5984 275.31H45.3721V266.873H40.4682V275.31H38.2575V264.927H47.5984V275.31ZM48.8974 275.497V273.878C49.2088 273.878 49.4579 273.697 49.6447 273.333C49.8315 272.96 49.982 272.327 50.0962 271.434L50.5788 267.791H56.6659V275.31H54.6888V269.519H52.3069L52.0578 271.667C51.9021 272.986 51.57 273.956 51.0614 274.579C50.5632 275.191 49.8419 275.497 48.8974 275.497ZM65.1206 275.31H63.1434V274.532C62.6037 275.176 61.8098 275.497 60.7615 275.497C60.0869 275.497 59.4798 275.279 58.9401 274.843C58.4107 274.397 58.1461 273.785 58.1461 273.006C58.1461 272.197 58.4056 271.59 58.9245 271.185C59.4538 270.78 60.0661 270.578 60.7615 270.578C61.8305 270.578 62.6245 270.884 63.1434 271.496V270.484C63.1434 270.1 62.9929 269.794 62.692 269.566C62.391 269.337 61.9914 269.223 61.4932 269.223C60.6733 269.223 59.9416 269.519 59.2981 270.111L58.5509 268.787C59.4434 267.999 60.5384 267.604 61.8357 267.604C62.8009 267.604 63.5897 267.827 64.2021 268.274C64.8144 268.72 65.1206 269.446 65.1206 270.453V275.31ZM61.5555 274.158C62.2924 274.158 62.8217 273.94 63.1434 273.505V272.57C62.8217 272.135 62.2924 271.917 61.5555 271.917C61.1507 271.917 60.8134 272.02 60.5436 272.228C60.2737 272.425 60.1388 272.7 60.1388 273.053C60.1388 273.396 60.2737 273.665 60.5436 273.863C60.8134 274.06 61.1507 274.158 61.5555 274.158ZM70.4599 275.31H68.4672V269.519H66.3655V267.791H72.5616V269.519H70.4599V275.31ZM75.7008 275.31H73.8015V267.791H75.7786V272.337L78.8767 267.791H80.8694V275.31H78.8922V270.593L75.7008 275.31ZM91.7193 275.31H86.8154V267.791H91.5792C92.3057 267.791 92.8714 267.978 93.2761 268.352C93.6809 268.725 93.8833 269.182 93.8833 269.721C93.8833 270.157 93.7639 270.526 93.5252 270.827C93.2865 271.128 92.9803 271.33 92.6067 271.434C93.0219 271.527 93.3644 271.745 93.6342 272.088C93.904 272.43 94.039 272.825 94.039 273.271C94.039 273.863 93.8314 274.35 93.4162 274.734C93.0115 275.118 92.4458 275.31 91.7193 275.31ZM91.2367 273.691C91.4754 273.691 91.6622 273.629 91.7972 273.505C91.9425 273.38 92.0151 273.209 92.0151 272.991C92.0151 272.794 91.9425 272.628 91.7972 272.493C91.6622 272.358 91.4754 272.29 91.2367 272.29H88.7925V273.691H91.2367ZM91.1744 270.671C91.382 270.671 91.5481 270.614 91.6726 270.5C91.8076 270.375 91.875 270.225 91.875 270.048C91.875 269.862 91.8127 269.711 91.6882 269.597C91.5637 269.472 91.3924 269.41 91.1744 269.41H88.7925V270.671H91.1744ZM107.315 275.31H99.9672V264.927H107.315V266.873H102.178V269.068H107.206V271.014H102.178V273.364H107.315V275.31ZM111.254 275.31H109.044V264.927H113.901C114.991 264.927 115.842 265.248 116.454 265.892C117.077 266.525 117.388 267.319 117.388 268.274C117.388 269.218 117.077 270.012 116.454 270.656C115.831 271.299 114.98 271.621 113.901 271.621H111.254V275.31ZM113.605 269.675C114.051 269.675 114.415 269.55 114.695 269.301C114.985 269.042 115.131 268.699 115.131 268.274C115.131 267.848 114.985 267.511 114.695 267.262C114.415 267.002 114.051 266.873 113.605 266.873H111.254V269.675H113.605ZM120.891 275.31H118.758V264.927H120.969V271.636L125.78 264.927H128.052V275.31H125.842V268.352L120.891 275.31ZM139.441 275.31H137.215V266.873H132.311V275.31H130.1V264.927H139.441V275.31Z" fill="#1E4078"/>
<path d="M97.8646 245.664H37.5718V247.898H97.8646V245.664Z" fill="#EE7D43"/>
<path d="M306.655 289.11C319.044 300.075 320.258 319.963 322.184 335.191C322.278 335.987 323.533 335.997 323.439 335.191C321.503 319.555 320.248 299.447 307.544 288.199C306.948 287.664 306.048 288.555 306.655 289.089V289.11Z" fill="#1E3E7A"/>
<path d="M309.501 342.637C308.882 341.965 308.123 341.436 307.279 341.087C306.434 340.739 305.524 340.579 304.611 340.619C303.698 340.659 302.805 340.897 301.994 341.318C301.184 341.739 300.474 342.332 299.916 343.056C299.424 343.674 300.303 344.574 300.805 343.946C301.249 343.344 301.82 342.848 302.478 342.493C303.135 342.138 303.863 341.934 304.61 341.894C305.356 341.854 306.101 341.979 306.793 342.262C307.485 342.544 308.106 342.976 308.611 343.527C309.176 344.114 310.066 343.223 309.501 342.637Z" fill="#1E3E7A"/>
<path d="M296.452 337.62C302.558 338.334 308.717 338.468 314.848 338.018C315.643 337.956 315.654 336.699 314.848 336.762C308.717 337.211 302.558 337.078 296.452 336.364C295.646 336.269 295.657 337.526 296.452 337.62Z" fill="#1E3E7A"/>
<path d="M315.047 336.856C308.015 340.49 307.952 344.501 309.208 351.434C310.391 357.938 311.667 370.15 321.116 369.783C326.348 369.584 329.268 364.672 331.12 360.462C333.432 355.226 335.996 348.418 335.797 342.564C335.483 333.075 321.032 334.28 315.047 336.856C314.304 337.17 314.942 338.259 315.685 337.903C320.108 336.157 324.962 335.824 329.582 336.95C335.86 338.595 334.594 344.784 333.39 349.696C331.643 356.859 324.548 377.041 314.628 365.133C311.259 361.08 310.872 354.116 310.077 349.141C309.198 343.611 310.15 340.763 315.685 337.903C316.397 337.547 315.769 336.458 315.047 336.856Z" fill="#1E3E7A"/>
<path d="M274.112 336.51C270.094 339.212 268.315 343.255 267.572 347.915C266.829 352.576 265.709 358.315 268.095 362.578C273.945 373.145 286.93 364.588 293.083 359.436C299.236 354.283 304.824 344.774 298.001 337.526C294.862 334.196 289.693 334.636 285.507 334.583C281.656 334.531 277.534 334.426 274.112 336.468C274.012 336.567 273.948 336.697 273.93 336.837C273.912 336.977 273.942 337.118 274.014 337.239C274.087 337.36 274.198 337.453 274.329 337.503C274.461 337.553 274.605 337.558 274.74 337.516C277.032 336.328 279.589 335.744 282.169 335.819C285.717 335.683 290.54 335.285 293.91 336.427C303.034 339.516 299.927 351.581 294.517 356.545C288.919 361.677 277.712 371.207 270.334 363.541C266.839 359.928 268.043 353.833 268.629 349.35C269.246 344.679 270.586 340.312 274.74 337.516C275.399 337.139 274.782 336.05 274.112 336.51Z" fill="#1E3E7A"/>
<path d="M308.685 342.951C308.361 349.748 310.087 356.262 310.537 363.007C310.663 365.049 311.176 367.709 309.428 368.966C307.492 370.369 304.636 369.144 302.49 368.589C300.345 368.034 296.725 366.809 294.423 367.741C294.32 367.773 294.227 367.832 294.152 367.91C294.078 367.988 294.025 368.084 293.997 368.189C293.97 368.294 293.97 368.404 293.997 368.508C294.024 368.613 294.077 368.709 294.151 368.788C294.807 369.42 295.683 369.773 296.594 369.773C297.505 369.773 298.38 369.42 299.037 368.788C299.644 368.264 298.755 367.374 298.148 367.898C295.898 368.505 295.459 368.809 296.808 368.799C297.924 368.86 299.034 369.011 300.126 369.249C301.025 369.448 301.894 369.752 302.773 369.992C304.636 370.474 307.021 371.218 308.947 370.82C310.872 370.422 311.364 369.71 311.762 367.845C313.467 359.949 309.564 350.984 309.941 342.951C309.941 342.145 308.717 342.145 308.685 342.951Z" fill="#1E3E7A"/>
<path d="M288.876 365.395C288.557 366.06 288.419 366.797 288.476 367.533C288.533 368.269 288.783 368.976 289.201 369.584C289.757 370.26 290.503 370.754 291.342 371.002C292.181 371.25 293.075 371.242 293.91 370.977C294.054 370.92 294.173 370.812 294.242 370.672C294.311 370.533 294.327 370.373 294.285 370.224C294.243 370.074 294.148 369.945 294.017 369.861C293.885 369.778 293.728 369.746 293.575 369.773C291.189 370.411 288.887 368.411 289.965 366.002C290.289 365.269 289.211 364.62 288.918 365.363L288.876 365.395Z" fill="#1E3E7A"/>
<path d="M316.209 367.814C314.775 378.193 315.267 389.022 313.415 399.285C312.368 405.223 309.355 411.329 303.997 414.523C297.216 418.597 288.584 416.409 281.332 414.974C274.792 413.675 268.304 412.073 261.838 410.429C255.633 408.847 248.078 407.685 243.944 402.27C240.805 398.081 239.528 392.384 237.666 387.608C235.573 382.371 233.302 377.135 230.896 372.056C230.55 371.333 229.462 371.972 229.849 372.694C233.166 379.732 236.128 386.885 238.859 394.175C240.313 398.07 241.632 402.144 244.792 405.014C249.323 409.119 255.884 410.251 261.597 411.664C269.968 413.759 278.423 415.916 286.993 417.299C298.504 419.153 308.549 416.765 313.153 405.004C314.859 400.657 315.141 396.143 315.382 391.535C315.78 383.702 316.428 375.941 317.475 368.181C317.59 367.385 316.376 367.039 316.271 367.845L316.209 367.814Z" fill="#1E3E7A"/>
<path d="M285.612 389.221C293.169 387.815 300.832 387.066 308.518 386.979C308.684 386.979 308.844 386.913 308.962 386.795C309.079 386.678 309.146 386.518 309.146 386.351C309.146 386.184 309.079 386.025 308.962 385.907C308.844 385.789 308.684 385.723 308.518 385.723C300.72 385.818 292.944 386.581 285.277 388.006C284.492 388.152 284.827 389.367 285.612 389.221Z" fill="#1E3E7A"/>
<path d="M315.486 384.571C313.891 381.348 311.472 378.606 308.474 376.622C305.476 374.639 302.007 373.486 298.42 373.281C287.893 372.831 279.584 380.874 269.665 382.79C247.742 387.032 239.319 357.268 239.654 340.616C239.654 340.449 239.588 340.289 239.47 340.171C239.352 340.054 239.192 339.987 239.026 339.987C238.859 339.987 238.7 340.054 238.582 340.171C238.464 340.289 238.398 340.449 238.398 340.616C238.074 355.278 242.521 372.307 255.088 381.24C262.968 386.844 272.019 384.068 280.045 380.308C285.591 377.711 291.346 374.464 297.656 374.506C301.156 374.589 304.567 375.629 307.518 377.514C310.47 379.399 312.849 382.057 314.398 385.199C314.775 385.922 315.863 385.283 315.445 384.571H315.486Z" fill="#1E3E7A"/>
<path d="M269.33 344.187L235.845 337.044C227.317 335.222 220.034 333.033 211.778 336.898C211.045 337.233 211.683 338.322 212.405 337.945C221.823 333.557 231.869 337.432 241.443 339.474L269.037 345.36C269.821 345.528 270.156 344.313 269.372 344.145L269.33 344.187Z" fill="#1E3E7A"/>
<path d="M268.67 346.198L218.516 335.662C217.731 335.494 217.397 336.709 218.181 336.877L268.335 347.413C269.12 347.58 269.455 346.365 268.67 346.198Z" fill="#1E3E7A"/>
<path d="M307.419 288.125C303.442 285.413 299.591 285.517 295.05 286.596C289.065 288.02 283.801 289.068 277.973 286.512C269.602 282.815 256.626 277.516 247.899 283.004C232.842 292.43 255.674 307.196 248.014 317.816C245.221 321.691 241.579 320.34 237.812 322.257C237.122 322.555 236.501 322.993 235.988 323.542C235.475 324.092 235.081 324.742 234.83 325.451C233.375 329.64 236.138 335.453 238.607 338.72C239.089 339.359 240.187 338.72 239.654 338.092C238.057 336.028 236.929 333.64 236.347 331.096C235.625 327.87 236.138 324.917 239.287 323.011C240.229 322.445 242.196 322.435 243.243 322.204C246.539 321.461 249.124 320.11 250.358 316.821C251.781 313.04 250.704 309.134 249.04 305.615C247.502 302.358 245.2 299.331 244.331 295.76C242.814 289.623 245.597 284.481 251.656 282.648C260.833 279.851 270.91 285.371 279.218 288.45C288.437 291.864 298.514 283.559 306.791 289.204C307.46 289.665 308.088 288.575 307.419 288.157V288.125Z" fill="#1E3E7A"/>
<path d="M313.655 295.456C306.854 271.609 286.543 253.303 261.063 253.365C246.979 253.365 229.315 256.413 217.909 265.147C206.933 273.526 202.475 288.125 200.476 301.248C197.683 319.492 199.985 338.113 205.102 355.707C205.146 355.868 205.252 356.005 205.398 356.088C205.543 356.17 205.715 356.192 205.876 356.147C206.037 356.103 206.174 355.996 206.256 355.851C206.338 355.705 206.36 355.533 206.315 355.372C202.158 341.655 200.229 327.359 200.602 313.03C201.167 298.431 204.254 280.888 214.634 269.766C224.449 259.293 240.794 256.319 254.534 254.936C270.952 253.271 286.972 258.424 298.367 270.593C304.968 277.748 309.79 286.359 312.441 295.729C312.463 295.808 312.501 295.883 312.552 295.948C312.602 296.014 312.666 296.068 312.737 296.109C312.809 296.15 312.889 296.176 312.971 296.186C313.053 296.196 313.136 296.19 313.216 296.168C313.295 296.146 313.37 296.109 313.435 296.058C313.5 296.007 313.555 295.944 313.596 295.872C313.637 295.8 313.663 295.721 313.673 295.639C313.683 295.556 313.677 295.473 313.655 295.393V295.456Z" fill="#1E3E7A"/>
<path d="M228.886 345.234C225.852 339.872 219.469 333.232 212.657 336.332C205.845 339.432 204.212 349.539 205.133 355.959C205.755 360.062 207.44 363.931 210.019 367.181C212.598 370.432 215.982 372.95 219.835 374.485C225.203 376.58 230.477 376.475 231.345 369.762C231.44 368.956 230.184 368.966 230.09 369.762C229.106 377.669 219.814 373.7 215.775 370.883C213.025 368.97 210.739 366.464 209.086 363.549C207.432 360.634 206.454 357.386 206.221 354.042C205.907 349.067 207.1 342.763 210.888 339.171C217.271 333.107 224.638 340.218 227.829 345.873C227.929 345.976 228.06 346.042 228.201 346.061C228.343 346.079 228.487 346.048 228.609 345.974C228.731 345.899 228.824 345.786 228.872 345.651C228.921 345.517 228.922 345.37 228.876 345.234H228.886Z" fill="#1E3E7A"/>
<path d="M214.111 346.187C217.993 345.329 224.471 347.413 224.418 352.471C224.418 354.566 222.598 356.084 222.43 358.095C222.365 358.526 222.414 358.966 222.572 359.372C222.729 359.779 222.991 360.136 223.33 360.41C223.626 360.628 223.954 360.798 224.303 360.912C226.396 361.782 230.582 360.347 227.798 366.149C227.453 366.871 228.531 367.51 228.845 366.788C229.744 364.923 230.759 362.41 228.845 360.849C227.128 359.478 223.613 361.069 224.073 357.142C224.219 355.99 225.329 354.775 225.538 353.571C226.668 347.214 218.893 343.904 213.766 345.035C212.971 345.203 213.306 346.418 214.101 346.25L214.111 346.187Z" fill="#1E3E7A"/>
<path d="M218.768 345.287C216.631 347.489 215.304 350.353 215.006 353.409C214.707 356.464 215.455 359.531 217.125 362.106C217.564 362.787 218.653 362.159 218.171 361.478C216.645 359.141 215.957 356.354 216.219 353.575C216.481 350.795 217.679 348.187 219.615 346.177C220.17 345.59 219.28 344.7 218.726 345.287H218.768Z" fill="#1E3E7A"/>
<path d="M271.956 329.839C280.184 329.816 288.353 331.212 296.107 333.965C296.871 334.238 297.154 333.023 296.442 332.751C288.58 329.961 280.298 328.544 271.956 328.561C271.79 328.561 271.63 328.628 271.512 328.745C271.395 328.863 271.328 329.023 271.328 329.19C271.328 329.356 271.395 329.516 271.512 329.634C271.63 329.752 271.79 329.818 271.956 329.818V329.839Z" fill="#1E3E7A"/>
<path d="M310.809 332.803C314.3 331.028 318.069 329.866 321.953 329.368C322.738 329.273 322.748 328.017 321.953 328.111C317.851 328.63 313.869 329.853 310.181 331.724C309.459 332.091 310.087 333.169 310.809 332.771V332.803Z" fill="#1E3E7A"/>
<path d="M215.367 372.464C218.157 386.428 220.948 400.371 223.738 414.293C223.895 415.079 225.098 414.743 224.941 413.958L216.57 372.129C216.413 371.333 215.2 371.668 215.357 372.464H215.367Z" fill="#1E3E7A"/>
<path d="M219.469 392.363C212.719 395.63 213.986 403.831 217.993 408.816C224.46 416.848 234.631 423.478 243.484 428.557C252.012 433.448 258.322 431.563 266.504 427.122L284.848 417.215C285.559 416.827 284.921 415.738 284.21 416.168C279.292 418.821 274.38 421.477 269.476 424.138C264.244 426.965 258.667 430.924 252.546 430.547C244.174 430.023 235.018 422.001 228.667 416.932C225.548 414.572 222.629 411.959 219.94 409.119C215.995 404.731 213.264 396.824 220.159 393.483C220.881 393.127 220.254 392.049 219.521 392.436L219.469 392.363Z" fill="#1E3E7A"/>
<path d="M254.188 434.139C251.488 431.312 246.256 430.579 243.138 433.176C240.02 435.773 241.171 440.716 242.866 443.785C244.875 447.419 251.091 449.168 254.01 445.586C256.365 442.696 256.501 437.208 254.293 434.265C253.811 433.626 252.713 434.265 253.246 434.904C255.078 437.302 254.816 440.392 253.895 443.115C252.095 448.414 245.21 446.257 243.536 442.151C242.489 439.564 241.631 435.867 244.216 433.951C246.8 432.034 251.174 432.747 253.351 434.998C253.864 435.616 254.753 434.726 254.188 434.139Z" fill="#1E3E7A"/>
<path d="M242.186 434.098L223.696 426.452C220.86 425.279 216.267 421.97 213.033 423.447C207.801 425.845 208.199 436.486 208.324 441.031C208.492 446.602 208.617 455.075 216.235 454.195C220.274 453.724 224.313 451.336 228.154 450.006C233.634 448.216 239.227 446.792 244.896 445.744C245.681 445.587 245.346 444.372 244.561 444.529C237.825 445.752 231.203 447.535 224.763 449.859C223.717 450.247 222.671 450.676 221.624 451.095C218.234 452.446 217.889 452.76 214.101 451.273C209.915 449.65 210.26 449.179 209.831 444.99C209.685 443.649 209.601 442.288 209.559 440.937C209.433 437.818 209.622 434.696 210.124 431.616C210.993 426.819 212.29 423.939 217.794 425.269C221.541 426.191 225.297 428.411 228.886 429.856L241.851 435.302C242.594 435.606 242.898 434.391 242.186 434.087V434.098Z" fill="#1E3E7A"/>
<path d="M253.749 435.208C260.432 434.691 267.119 434.202 273.809 433.742C275.389 433.626 277.942 432.977 279.532 433.354C282.368 434.014 284.869 436.444 284.995 439.303C284.998 440.754 284.865 442.202 284.597 443.628C284.147 446.571 284.116 450.394 283.059 453.148C282.855 453.783 282.521 454.369 282.077 454.867C281.634 455.365 281.091 455.765 280.484 456.04C279.876 456.316 279.218 456.461 278.551 456.466C277.885 456.471 277.224 456.336 276.613 456.07C275.567 455.599 274.52 455.075 273.474 454.583C267.028 451.525 260.54 448.529 254.073 445.503C253.341 445.168 252.703 446.246 253.435 446.55L268.535 453.598C271.674 455.054 274.876 457.117 278.203 458.06C280.631 458.751 282.703 458.458 283.76 456.018C285.298 452.488 285.34 447.147 285.853 443.303C286.533 438.465 286.229 432.558 280.118 432.087C271.601 431.427 262.194 433.249 253.707 433.909C252.901 433.972 252.901 435.229 253.707 435.166L253.749 435.208Z" fill="#1E3E7A"/>
<path d="M219.469 392.363C213.871 395.505 212.51 401.673 210.93 407.465C209.078 414.23 208.074 419.111 212.625 425.143C213.107 425.782 214.195 425.143 213.672 424.515C209.35 418.786 210.376 414.115 212.092 407.758C213.578 402.333 214.791 396.343 220.065 393.41C220.168 393.311 220.234 393.18 220.252 393.038C220.271 392.896 220.24 392.752 220.166 392.63C220.091 392.508 219.978 392.415 219.843 392.367C219.709 392.318 219.562 392.317 219.427 392.363H219.469Z" fill="#1E3E7A"/>
<path d="M286.606 417.498L281.51 432.767C281.259 433.532 282.473 433.815 282.724 433.103L287.809 417.823C288.071 417.058 286.857 416.775 286.606 417.498Z" fill="#1E3E7A"/>
<path d="M267.781 453.012C258.812 473.402 251.73 494.573 246.623 516.258C246.435 517.043 247.669 517.379 247.837 516.593C252.908 495.009 259.948 473.936 268.87 453.64C269.194 452.907 268.106 452.268 267.823 453.012H267.781Z" fill="#1E3E7A"/>
<path d="M288.688 418.011L301.841 431.438L308.12 437.805C309.166 438.852 310.903 440.036 311.583 441.334C312.546 443.178 312.421 442.759 310.38 444.047C305.661 447.011 300.314 449.147 295.5 452.038C290.151 455.265 284.968 458.76 279.972 462.511C279.859 462.584 279.772 462.692 279.724 462.818C279.676 462.943 279.669 463.081 279.704 463.211C279.739 463.341 279.814 463.457 279.918 463.542C280.023 463.627 280.151 463.676 280.286 463.684L294.37 465.276C296.306 465.485 304.206 465.192 304.886 467.067C305.221 467.967 298.87 475.508 298.284 476.356C296.044 479.617 293.857 482.902 291.723 486.211C282.562 500.457 274.34 515.287 267.111 530.606C266.766 531.329 267.854 531.968 268.158 531.234C278.941 508.392 291.907 486.646 306.875 466.302C307.189 465.883 306.749 465.412 306.331 465.359L280.17 462.417L280.484 463.59C291.002 455.694 302.341 448.959 314.304 443.502C314.387 443.453 314.457 443.385 314.509 443.304C314.562 443.223 314.596 443.131 314.608 443.035C314.62 442.94 314.61 442.842 314.579 442.751C314.548 442.66 314.497 442.576 314.43 442.507C306.121 434.031 297.809 425.555 289.494 417.079C288.929 416.493 288.039 417.383 288.615 417.959L288.688 418.011Z" fill="#1E3E7A"/>
<path d="M375.728 452.059C349.554 446.272 324.031 437.85 299.55 426.924C298.817 426.589 298.179 427.678 298.922 427.971C323.493 438.975 349.114 447.463 375.393 453.305C376.178 453.483 376.513 452.258 375.728 452.09V452.059Z" fill="#1E3E7A"/>
<path d="M371.825 451.902C350.489 486.4 328.232 521.547 323.24 562.601C323.146 563.397 324.402 563.397 324.496 562.601C329.446 521.84 351.703 486.787 372.913 452.541C373.342 451.849 372.254 451.221 371.867 451.902H371.825Z" fill="#1E3E7A"/>
<path d="M343.593 503.083C349.274 496.868 356.429 492.185 364.395 489.468C365.159 489.206 364.835 488.002 364.071 488.264C355.888 491.043 348.539 495.845 342.704 502.224C342.159 502.821 343.049 503.712 343.593 503.115V503.083Z" fill="#1E3E7A"/>
<path d="M277.063 526.993C282.408 518.797 289.053 511.527 296.735 505.471C298.556 504.047 300.188 501.879 302.616 502.853C304.112 503.45 306.341 508.089 307.304 509.409L316.721 522.511C317.182 523.16 318.27 522.51 317.768 521.872L302.532 500.58C302.447 500.437 302.309 500.334 302.148 500.293C301.988 500.252 301.817 500.276 301.674 500.36C291.462 507.25 282.726 516.108 275.974 526.417C275.535 527.098 276.623 527.726 277.021 527.045L277.063 526.993Z" fill="#1E3E7A"/>
<path d="M307.168 507.566C308.737 506.832 310.631 505.314 312.148 506.445C313.666 507.576 314.859 510.121 315.685 511.681C317.234 514.806 318.229 518.176 318.626 521.641C318.73 522.427 319.986 522.437 319.881 521.641C319.148 515.215 316.396 509.186 312.023 504.424C311.922 504.328 311.794 504.268 311.656 504.251C311.519 504.234 311.38 504.261 311.259 504.329L306.529 506.518C305.797 506.864 306.435 507.943 307.168 507.566Z" fill="#1E3E7A"/>
<path d="M270.167 528.25C283.598 527.913 296.989 526.639 310.244 524.437C313.292 523.921 316.327 523.362 319.347 522.762C320.069 522.615 323.02 521.463 323.69 521.851C325.249 522.751 324.736 525.61 324.736 527.087L325.458 549.793C325.458 549.959 325.525 550.119 325.642 550.237C325.76 550.355 325.92 550.421 326.086 550.421C326.253 550.421 326.412 550.355 326.53 550.237C326.648 550.119 326.714 549.959 326.714 549.793L325.804 520.887C325.8 520.792 325.775 520.698 325.731 520.613C325.687 520.528 325.625 520.454 325.549 520.396C325.473 520.338 325.385 520.297 325.292 520.277C325.198 520.257 325.102 520.258 325.008 520.28C306.984 524.268 288.62 526.516 270.167 526.993C270 526.993 269.84 527.059 269.723 527.177C269.605 527.295 269.539 527.455 269.539 527.621C269.539 527.788 269.605 527.948 269.723 528.066C269.84 528.183 270 528.25 270.167 528.25Z" fill="#1E3E7A"/>
<path d="M123.671 434.391C140.764 435.156 157.853 432.807 174.107 427.458C179.781 425.689 185.167 423.103 190.096 419.781C193.267 417.548 196.245 415.054 199.001 412.324C200.79 410.575 202.506 408.753 204.233 406.92C204.934 406.166 210.407 399.149 212.029 403.244C212.322 403.988 213.535 403.663 213.243 402.909C210.815 396.803 204.714 404.574 202.705 406.721C196.511 413.361 189.793 419.435 181.484 423.279C163.884 431.416 142.882 433.972 123.702 433.134C122.896 433.134 122.896 434.349 123.702 434.391H123.671Z" fill="#1E3E7A"/>
<path d="M115.362 437.103C81.3547 502.214 54.6082 570.873 35.6056 641.839C35.5836 641.919 35.5776 642.003 35.5877 642.085C35.5979 642.167 35.6242 642.246 35.665 642.318C35.7474 642.463 35.8841 642.57 36.0451 642.614C36.2061 642.659 36.3781 642.637 36.5233 642.555C36.6685 642.472 36.775 642.336 36.8194 642.175C55.7903 571.315 82.491 502.758 116.44 437.742C116.817 437.03 115.729 436.391 115.394 437.103H115.362Z" fill="#1E3E7A"/>
<path d="M112.16 444.204C104.654 509.904 99.9314 575.839 97.9921 642.007C97.9921 642.174 98.0582 642.334 98.176 642.451C98.2937 642.569 98.4534 642.635 98.6199 642.635C98.7864 642.635 98.9461 642.569 99.0639 642.451C99.1816 642.334 99.2478 642.174 99.2478 642.007C101.173 575.902 105.889 509.967 113.395 444.204C113.489 443.398 112.234 443.408 112.139 444.204H112.16Z" fill="#1E3E7A"/>
<path d="M218.36 518.436C213.829 511.105 205.217 508.351 198.122 514.121C192.357 518.803 191.624 527.412 195.559 533.517C199.043 538.942 209.915 544.661 216.047 540.367C222.524 535.832 221.52 524.374 218.36 518.436C217.973 517.724 216.884 518.363 217.313 519.075C220.055 524.207 220.704 531.894 217.387 537.11C212.803 544.336 200.121 538.303 196.678 532.92C187.459 518.394 207.854 503.889 217.313 519.107C217.7 519.756 218.789 519.086 218.36 518.436Z" fill="#1E3E7A"/>
<path d="M221.687 518.332C224.178 525.809 223.78 538.66 215.639 542.723C205.248 547.96 193.978 538.073 191.948 528.145C190.023 518.719 196.5 507.345 206.954 507.471C213.63 507.544 219.291 512.373 221.687 518.332C221.98 519.075 223.194 518.751 222.89 518.007C220.086 511.011 213.128 505.439 205.259 506.298C194.847 507.408 188.715 518.866 190.735 528.48C192.827 538.743 203.794 548.379 214.645 544.504C224.68 540.953 225.789 526.7 222.89 518.007C222.639 517.242 221.426 517.567 221.687 518.332Z" fill="#1E3E7A"/>
<path d="M222.65 517.965C223.591 516.029 224.942 514.321 226.61 512.96C228.278 511.6 230.223 510.621 232.308 510.09C232.453 510.033 232.571 509.924 232.64 509.785C232.71 509.646 232.725 509.486 232.683 509.336C232.642 509.186 232.546 509.057 232.415 508.974C232.284 508.891 232.126 508.859 231.973 508.885C229.73 509.457 227.638 510.509 225.841 511.968C224.043 513.427 222.583 515.259 221.561 517.337C221.206 518.059 222.294 518.688 222.608 517.965H222.65Z" fill="#1E3E7A"/>
<path d="M211.004 507.566C214.039 504.257 217.77 501.664 221.928 499.973C222.671 499.679 222.347 498.464 221.593 498.768C217.214 500.514 213.281 503.219 210.083 506.686C209.539 507.272 210.428 508.163 210.972 507.566H211.004Z" fill="#1E3E7A"/>
<path d="M221.321 499.847L232.172 509.859C232.758 510.404 233.647 509.524 233.061 508.969L222.21 498.957C221.614 498.412 220.724 499.292 221.321 499.847Z" fill="#1E3E7A"/>
<path d="M231.69 509.932L237.383 514.603C238.011 515.117 238.9 514.226 238.272 513.713L232.58 509.042C231.962 508.529 231.073 509.419 231.69 509.932Z" fill="#1E3E7A"/>
<path d="M207.655 463.034C203.522 458.081 199.284 453.19 194.962 448.372C190.64 443.555 185.66 436.988 179.653 434.234C174.526 431.867 170.759 436.946 171.366 441.931C171.847 445.796 174.85 449.178 177.142 452.111C180.685 456.621 184.494 460.916 188.548 464.972C189.123 465.548 190.013 464.658 189.437 464.092C183.975 458.594 176.493 451.713 173.406 444.466C171.156 439.177 174.85 432.317 181.055 436.621C183.099 438.147 185.01 439.843 186.769 441.69C193.863 448.665 200.372 456.279 206.745 463.924C207.268 464.542 208.147 463.652 207.634 463.034H207.655Z" fill="#1E3E7A"/>
<path d="M206.766 463.924C212.113 469.685 213.421 476.974 214.509 484.462C215.314 490.021 217.115 495.389 219.825 500.308C220.212 501.02 221.3 500.391 220.871 499.679C217.366 493.249 216.319 486.965 215.106 479.885C214.059 473.602 211.966 467.726 207.613 463.034C207.059 462.437 206.18 463.327 206.724 463.924H206.766Z" fill="#1E3E7A"/>
<path d="M189.332 463.987L143.291 441.994C137.86 439.397 132.419 436.035 126.82 433.888C122.488 432.212 118.606 433.825 115.498 437.03C114.933 437.606 115.823 438.496 116.388 437.92C122.038 432.15 127.542 435.888 133.444 438.706L151.871 447.513L188.736 465.129C189.468 465.475 190.107 464.385 189.374 464.082L189.332 463.987Z" fill="#1E3E7A"/>
<path d="M115.299 437.26C112.882 446.749 124.717 449.66 131.131 452.488C142.606 457.556 153.485 463.878 163.57 471.339C164.219 471.821 164.846 470.732 164.198 470.292C156.642 464.701 148.638 459.744 140.267 455.473C136.869 453.748 133.416 452.142 129.907 450.655C124.435 448.341 114.42 445.911 116.513 437.658C116.539 437.505 116.508 437.347 116.425 437.216C116.341 437.085 116.212 436.989 116.063 436.947C115.913 436.906 115.753 436.921 115.614 436.99C115.475 437.06 115.367 437.178 115.31 437.323L115.299 437.26Z" fill="#1E3E7A"/>
<path d="M158.589 466.375C156.415 466.416 154.305 467.127 152.549 468.41C150.792 469.694 149.474 471.488 148.773 473.548C148.072 475.609 148.022 477.836 148.631 479.925C149.239 482.015 150.477 483.866 152.175 485.227C152.782 485.75 153.681 484.86 153.064 484.336C146.346 478.587 149.705 468.177 158.589 467.663C159.395 467.611 159.405 466.354 158.589 466.407V466.375Z" fill="#1E3E7A"/>
<path d="M152.457 484.148C145.132 485.813 143.866 494.788 150.166 498.684C150.856 499.114 151.484 498.025 150.804 497.637C145.384 494.296 146.524 486.818 152.782 485.394C153.577 485.216 153.242 484.012 152.457 484.19V484.148Z" fill="#1E3E7A"/>
<path d="M149.486 496.988C144.996 497.941 142.694 501.313 144.463 505.732C146.556 510.969 152.102 514.603 156.842 517.19C161.195 519.567 165.862 521.128 170.382 523.149C178.983 527.089 187.189 531.841 194.889 537.34C195.548 537.811 196.176 536.722 195.527 536.293C185.797 529.445 175.308 523.745 164.271 519.306C160.608 517.884 157.101 516.087 153.807 513.943C151.393 512.412 149.248 510.495 147.456 508.267C145.603 505.837 144.934 504.58 146.2 501.596C147.246 499.176 147.424 498.737 149.82 498.234C150.605 498.066 150.27 496.862 149.486 497.019V496.988Z" fill="#1E3E7A"/>
<path d="M197.452 540.032C205.021 564.992 212.59 589.949 220.159 614.903C220.389 615.678 221.603 615.353 221.373 614.578C213.797 589.611 206.228 564.65 198.666 539.697C198.622 539.536 198.515 539.399 198.37 539.316C198.225 539.234 198.053 539.212 197.892 539.257C197.731 539.301 197.594 539.408 197.512 539.553C197.429 539.699 197.408 539.871 197.452 540.032Z" fill="#1E3E7A"/>
<path d="M238.827 512.467C228.82 526.092 220.09 540.614 212.751 555.846C212.406 556.569 213.483 557.207 213.797 556.474C221.134 541.243 229.86 526.722 239.863 513.095C240.344 512.446 239.256 511.818 238.817 512.467H238.827Z" fill="#1E3E7A"/>
<path d="M213.505 557.48C216.405 559.707 219.631 561.473 223.069 562.716C223.833 562.988 224.115 561.774 223.403 561.501C220.073 560.291 216.95 558.575 214.143 556.411C213.505 555.919 212.877 557.008 213.505 557.459V557.48Z" fill="#1E3E7A"/>
<path d="M238.775 513.106L243.934 518.007C244.509 518.562 245.399 517.672 244.813 517.117L239.665 512.216C239.079 511.661 238.189 512.551 238.775 513.106Z" fill="#1E3E7A"/>
<path d="M244.917 514.76C234.683 536.677 224.446 558.593 214.205 580.51C213.86 581.243 214.948 581.882 215.252 581.149C225.499 559.232 235.74 537.316 245.974 515.399C246.309 514.666 245.231 514.027 244.928 514.76H244.917Z" fill="#1E3E7A"/>
<path d="M245.053 515.525C266.222 531.988 289.442 545.718 313.153 558.16C320.049 561.784 327.185 564.957 334.081 568.633C346.146 575.126 355.553 585.202 362.334 597.057C362.433 597.16 362.564 597.226 362.706 597.244C362.848 597.262 362.991 597.232 363.113 597.157C363.235 597.083 363.328 596.969 363.377 596.835C363.425 596.7 363.427 596.553 363.38 596.418C357.51 586.092 349.537 576.718 339.46 570.298C332.187 565.669 324.109 562.402 316.439 558.443C291.89 545.729 267.813 531.622 245.964 514.624C245.336 514.132 244.436 515.022 245.074 515.514L245.053 515.525Z" fill="#1E3E7A"/>
<path d="M220.902 452.132L227.715 504.832C227.809 505.628 229.075 505.638 228.97 504.832L222.158 452.132C222.054 451.347 220.798 451.336 220.902 452.132Z" fill="#1E3E7A"/>
<path d="M194.25 415.152C192.318 424.138 190.375 433.123 188.422 442.109C188.255 442.895 189.468 443.23 189.636 442.444C191.582 433.459 193.525 424.473 195.464 415.487C195.632 414.691 194.418 414.356 194.25 415.152Z" fill="#1E3E7A"/>
<path d="M241.6 436.862C236.85 436.149 232.057 435.764 227.254 435.71C227.087 435.71 226.928 435.777 226.81 435.894C226.692 436.012 226.626 436.172 226.626 436.339C226.626 436.505 226.692 436.665 226.81 436.783C226.928 436.901 227.087 436.967 227.254 436.967C231.944 437.014 236.625 437.382 241.265 438.067C242.05 438.193 242.395 437.019 241.6 436.862Z" fill="#1E3E7A"/>
<path d="M241.914 439.701C238.827 439.795 235.779 440.422 232.905 441.554C232.162 441.847 232.486 443.062 233.239 442.759C236.008 441.669 238.941 441.06 241.914 440.957C242.72 440.957 242.72 439.669 241.914 439.701Z" fill="#1E3E7A"/>
<path d="M255.612 442.56C257.892 443.038 260.137 443.675 262.329 444.466C263.093 444.738 263.376 443.523 262.664 443.251C260.473 442.459 258.228 441.825 255.946 441.355C255.151 441.188 254.816 442.403 255.612 442.56Z" fill="#1E3E7A"/>
<path d="M255.318 439.407C257.67 439.366 260.013 439.114 262.319 438.653L261.523 438.046V438.318C261.523 438.485 261.59 438.645 261.707 438.762C261.825 438.88 261.985 438.947 262.151 438.947C262.318 438.947 262.478 438.88 262.595 438.762C262.713 438.645 262.779 438.485 262.779 438.318V438.046C262.778 437.95 262.754 437.855 262.711 437.77C262.667 437.684 262.605 437.609 262.528 437.552C262.451 437.494 262.362 437.455 262.268 437.437C262.174 437.419 262.076 437.423 261.984 437.449C259.787 437.877 257.556 438.111 255.318 438.151C255.152 438.151 254.992 438.217 254.874 438.335C254.757 438.452 254.69 438.612 254.69 438.779C254.69 438.946 254.757 439.105 254.874 439.223C254.992 439.341 255.152 439.407 255.318 439.407Z" fill="#1E3E7A"/>
<path d="M207.508 545.059C210.206 546.041 212.663 547.587 214.718 549.594C215.294 550.159 216.183 549.269 215.608 548.703C213.391 546.553 210.745 544.897 207.843 543.844C207.079 543.561 206.797 544.776 207.508 545.059Z" fill="#1E3E7A"/>
<path d="M214.425 581.368C236.479 593.563 257.726 607.164 278.036 622.087C286.346 628.058 295.066 633.433 304.133 638.174C317.548 645.432 330.398 651.328 346.073 648.741C364.51 645.714 383.283 634.016 387.123 614.652C388.902 605.697 388.169 596.334 387.688 587.286C386.851 572.257 386.024 557.26 386.014 542.252C386.014 527.59 385.941 512.928 385.396 498.339C384.81 482.535 381.211 467.171 376.063 452.258C375.801 451.504 374.587 451.828 374.849 452.593C379.505 466.061 383.011 479.98 383.942 494.244C384.821 507.859 384.716 521.578 384.748 535.214C384.748 547.907 384.967 560.58 385.637 573.262C386.192 583.892 387.27 594.596 386.882 605.247C386.589 613.018 385.072 620.558 380.73 627.125C374.315 636.844 363.684 642.646 352.77 645.913C344.886 648.367 336.52 648.842 328.41 647.296C320.802 645.777 313.959 642.059 307.189 638.415C297.682 633.513 288.518 627.971 279.762 621.826C259.016 606.75 237.413 592.892 215.063 580.321C214.928 580.275 214.781 580.276 214.647 580.325C214.513 580.374 214.399 580.467 214.325 580.589C214.25 580.711 214.22 580.854 214.238 580.996C214.256 581.138 214.322 581.269 214.425 581.368Z" fill="#1E3E7A"/>
<path d="M226.888 588.123C222.918 605.739 218.946 623.351 214.969 640.96C214.791 641.745 216.016 642.08 216.183 641.295C220.159 623.679 224.132 606.067 228.102 588.459C228.279 587.673 227.055 587.338 226.888 588.123Z" fill="#1E3E7A"/>
<path d="M236.085 593.098L216.8 633.032C216.445 633.754 217.533 634.393 217.847 633.67L237.142 593.737C237.488 593.004 236.41 592.375 236.096 593.098H236.085Z" fill="#1E3E7A"/>
<g clip-path="url(#clip1_8_233)">
<path fill-rule="evenodd" clip-rule="evenodd" d="M99.1006 50.206C100.796 52.2776 101.414 54.715 100.956 57.5449H87.9988C88.6173 59.6165 90.3434 60.966 92.5896 60.966C94.5099 60.966 95.8787 60.1762 96.7585 58.5965L100.371 60.244C98.8393 63.0061 95.9746 64.7845 92.4602 64.7845C89.8879 64.7845 87.7711 63.9292 86.0451 62.2502C84.319 60.5711 83.4728 58.4656 83.4728 55.9652C83.4728 53.4624 84.319 51.3569 86.0115 49.6802C87.704 48.0012 89.7896 47.1459 92.2972 47.1459C95.1284 47.1459 97.3746 48.1659 99.1006 50.206ZM88.0636 54.1553H96.5619C95.9434 52.2121 94.3468 50.9619 92.2972 50.9619C90.3434 50.9619 88.6821 52.2121 88.0636 54.1553Z" fill="#0D4084"/>
<path fill-rule="evenodd" clip-rule="evenodd" d="M118.833 49.6778C120.362 51.3569 121.143 53.4624 121.143 55.9652C121.143 58.4656 120.362 60.5711 118.833 62.2502C117.301 63.9292 115.38 64.7845 113.069 64.7845C110.919 64.7845 109.128 63.9947 107.728 62.4464V71.0356H103.334V47.473H107.728V49.4816C109.128 47.9358 110.919 47.1459 113.069 47.1459C115.38 47.1459 117.301 48.0012 118.833 49.6778ZM112.156 60.7359C113.427 60.7359 114.469 60.2755 115.316 59.3548C116.162 58.4656 116.586 57.3147 116.586 55.9652C116.586 54.6157 116.162 53.4624 115.316 52.5756C114.469 51.6864 113.427 51.226 112.156 51.226C110.888 51.226 109.845 51.6864 108.999 52.5756C108.153 53.4963 107.728 54.6157 107.728 55.9652C107.728 57.3147 108.153 58.4656 108.999 59.3548C109.845 60.2755 110.888 60.7359 112.156 60.7359Z" fill="#0D4084"/>
<path d="M127.753 57.9716L135.762 47.4757H140.029V64.4553H135.633V53.9569L127.623 64.4553H123.356V47.4757H127.753V57.9716Z" fill="#0D4084"/>
<path d="M147.94 64.4551H143.544V47.4731H159.629V64.4551H155.233V51.3909H147.94V64.4551Z" fill="#0D4084"/>
<mask id="mask0_8_233" style="mask-type:alpha" maskUnits="userSpaceOnUse" x="25" y="18" width="49" height="50">
<path d="M49.7622 18.9218L73.5815 43.6014L49.0214 67.8133L25.202 43.1337L49.7622 18.9218Z" fill="url(#paint0_linear_8_233)"/>
</mask>
<g mask="url(#mask0_8_233)">
<path d="M34.4913 33.9773L49.6925 52.7572L54.7699 46.4916L44.6414 33.9773H34.4913ZM49.7165 33.9773L59.8402 46.4843C62.2111 43.5574 63.4001 42.0892 63.4025 42.0819C64.2943 40.9746 64.2631 39.4046 63.3881 38.3264L60.7535 35.0701C60.1926 34.3795 59.3559 33.9773 58.4713 33.9773H49.7165Z" fill="url(#paint1_linear_8_233)"/>
</g>
<mask id="mask1_8_233" style="mask-type:alpha" maskUnits="userSpaceOnUse" x="37" y="36" width="53" height="54">
<path d="M89.9118 59.5343L67.339 89.6484L37.6127 66.8878L60.1855 36.7737L89.9118 59.5343Z" fill="url(#paint2_linear_8_233)"/>
</mask>
<g mask="url(#mask1_8_233)">
<path d="M50.5459 76.7901H59.3032C60.1854 76.7901 61.022 76.3904 61.583 75.6998L76.0865 57.7874C76.9759 56.6923 76.9759 55.1125 76.0865 54.015L72.5385 49.632L50.5459 76.7901Z" fill="url(#paint3_linear_8_233)"/>
</g>
<mask id="mask2_8_233" style="mask-type:alpha" maskUnits="userSpaceOnUse" x="16" y="21" width="72" height="73">
<path d="M87.6752 52.3524L56.9373 93.3598L16.9818 62.7659L47.7173 21.7585L87.6752 52.3524Z" fill="url(#paint4_linear_8_233)"/>
</mask>
<g mask="url(#mask2_8_233)">
<path d="M63.4027 42.0812C63.4003 42.0885 62.2113 43.5568 59.8404 46.4836L35.2994 76.7891H45.4567L68.4682 48.3735C69.3576 47.2759 69.3576 45.6986 68.4682 44.601L63.3884 38.3258C64.2634 39.4039 64.2945 40.974 63.4027 42.0812Z" fill="url(#paint5_linear_8_233)"/>
</g>
</g>
</g>
<defs>
<linearGradient id="paint0_linear_8_233" x1="12.4056" y1="62.8078" x2="33.0383" y2="83.7364" gradientUnits="userSpaceOnUse">
<stop stop-color="#FFAA64"/>
<stop offset="1" stop-color="#FF513E"/>
</linearGradient>
<linearGradient id="paint1_linear_8_233" x1="38.7894" y1="33.4918" x2="63.9239" y2="33.4918" gradientUnits="userSpaceOnUse">
<stop stop-color="#FFAA64"/>
<stop offset="1" stop-color="#FF513E"/>
</linearGradient>
<linearGradient id="paint2_linear_8_233" x1="37.0789" y1="24.0201" x2="16.6061" y2="50.7585" gradientUnits="userSpaceOnUse">
<stop stop-color="#FFAA64"/>
<stop offset="1" stop-color="#FF513E"/>
</linearGradient>
<linearGradient id="paint3_linear_8_233" x1="53.2536" y1="49.1471" x2="76.5087" y2="49.1471" gradientUnits="userSpaceOnUse">
<stop stop-color="#FFAA64"/>
<stop offset="1" stop-color="#FF513E"/>
</linearGradient>
<linearGradient id="paint4_linear_8_233" x1="16.1962" y1="2.19251" x2="-12.7515" y2="39.9995" gradientUnits="userSpaceOnUse">
<stop stop-color="#FFAA64"/>
<stop offset="1" stop-color="#FF513E"/>
</linearGradient>
<linearGradient id="paint5_linear_8_233" x1="37.6787" y1="37.8414" x2="68.9129" y2="37.8414" gradientUnits="userSpaceOnUse">
<stop stop-color="#FFAA64"/>
<stop offset="1" stop-color="#FF513E"/>
</linearGradient>
<clipPath id="clip0_8_233">
<rect x="15.1758" y="11.1322" width="373.078" height="638.227" rx="13.6918" fill="white"/>
</clipPath>
<clipPath id="clip1_8_233">
<rect width="141.923" height="49.2905" fill="white" transform="translate(37.23 35.7774)"/>
</clipPath>
</defs>
</svg>
