<svg width="1000" height="998" viewBox="0 0 1000 998" fill="none" xmlns="http://www.w3.org/2000/svg">
<g clip-path="url(#clip0)">
<path d="M0 0H997.517V538.489L948.142 615.637L997.517 684.298V997.517H0V489.886L30.859 454.399L0 420.454V0Z" fill="#016FD0"/>
<path d="M193.64 695.099V538.489H359.46L377.251 561.682L395.63 538.489H997.517V684.298C997.517 684.298 981.776 694.942 963.572 695.099H630.295L610.237 670.411V695.099H544.507V652.957C544.507 652.957 535.528 658.839 516.117 658.839H493.744V695.099H394.224L376.458 671.409L358.42 695.099H193.64Z" fill="white"/>
<path d="M0 420.454L37.3931 333.277H102.061L123.282 382.11V333.277H203.669L216.302 368.572L228.549 333.277H589.407V351.021C589.407 351.021 608.377 333.277 639.553 333.277L756.638 333.687L777.492 381.88V333.277H844.765L863.28 360.961V333.277H931.17V489.887H863.28L845.536 462.114V489.887H746.698L736.758 465.199H710.187L700.409 489.887H633.381C606.555 489.887 589.407 472.505 589.407 472.505V489.887H488.344L468.285 465.199V489.887H92.4805L82.5478 465.199H56.0614L46.1989 489.887H0V420.454Z" fill="white"/>
<path d="M50.628 352.583L0.192871 469.848H33.0288L42.3347 446.366H96.4343L105.692 469.848H139.251L88.8642 352.583H50.628ZM69.2881 379.874L85.7784 420.907H52.7496L69.2881 379.874V379.874Z" fill="#016FD0"/>
<path d="M142.723 469.828V352.564L189.384 352.737L216.524 428.342L243.014 352.564H289.303V469.828H259.987V383.423L228.911 469.828H203.201L172.039 383.423V469.828H142.723Z" fill="#016FD0"/>
<path d="M309.361 469.828V352.564H405.024V378.794H338.986V398.852H403.481V423.54H338.986V444.37H405.024V469.828H309.361Z" fill="#016FD0"/>
<path d="M421.997 352.583V469.848H451.313V428.188H463.656L498.807 469.848H534.632L496.058 426.645C511.889 425.309 528.219 411.722 528.219 390.627C528.219 365.95 508.851 352.583 487.235 352.583H421.997V352.583ZM451.313 378.814H484.824C492.863 378.814 498.71 385.102 498.71 391.157C498.71 398.948 491.134 403.501 485.258 403.501H451.313V378.814V378.814Z" fill="#016FD0"/>
<path d="M570.12 469.828H540.187V352.564H570.12V469.828Z" fill="#016FD0"/>
<path d="M641.096 469.828H634.634C603.373 469.828 584.392 445.199 584.392 411.678C584.392 377.329 603.16 352.564 642.638 352.564H675.04V380.337H641.454C625.428 380.337 614.094 392.844 614.094 411.968C614.094 434.677 627.054 444.215 645.724 444.215H653.439L641.096 469.828Z" fill="#016FD0"/>
<path d="M704.887 352.583L654.452 469.848H687.288L696.593 446.366H750.693L759.951 469.848H793.51L743.123 352.583H704.887ZM723.547 379.874L740.037 420.907H707.008L723.547 379.874Z" fill="#016FD0"/>
<path d="M796.933 469.828V352.564H834.205L881.796 426.24V352.564H911.112V469.828H875.045L826.249 394.224V469.828H796.933Z" fill="#016FD0"/>
<path d="M213.698 675.041V557.776H309.361V584.007H243.323V604.065H307.818V628.752H243.323V649.582H309.361V675.041H213.698Z" fill="#016FD0"/>
<path d="M682.447 675.041V557.776H778.109V584.007H712.071V604.065H776.258V628.752H712.071V649.582H778.109V675.041H682.447Z" fill="#016FD0"/>
<path d="M313.074 675.041L359.652 617.132L311.965 557.776H348.899L377.299 594.47L405.796 557.776H441.284L394.224 616.408L440.887 675.041H403.959L376.383 638.926L349.478 675.041H313.074Z" fill="#016FD0"/>
<path d="M444.369 557.796V675.06H474.457V638.029H505.316C531.427 638.029 551.219 624.177 551.219 597.238C551.219 574.921 535.696 557.796 509.125 557.796H444.369V557.796ZM474.457 584.315H506.955C515.391 584.315 521.42 589.485 521.42 597.816C521.42 605.642 515.421 611.317 506.859 611.317H474.457V584.315Z" fill="#016FD0"/>
<path d="M563.948 557.776V675.041H593.264V633.381H605.608L640.758 675.041H676.583L638.01 631.838C653.84 630.502 670.17 616.915 670.17 595.82C670.17 571.143 650.802 557.776 629.186 557.776H563.948V557.776ZM593.264 584.007H626.775C634.814 584.007 640.662 590.295 640.662 596.35C640.662 604.141 633.085 608.694 627.209 608.694H593.264V584.007V584.007Z" fill="#016FD0"/>
<path d="M791.687 675.041V649.582H850.358C859.039 649.582 862.798 644.891 862.798 639.746C862.798 634.816 859.051 629.832 850.358 629.832H823.845C800.8 629.832 787.965 615.791 787.965 594.711C787.965 575.909 799.718 557.776 833.964 557.776H891.053L878.71 584.161H829.335C819.897 584.161 816.992 589.113 816.992 593.843C816.992 598.704 820.582 604.065 827.792 604.065H855.565C881.256 604.065 892.403 618.637 892.403 637.72C892.403 658.237 879.981 675.041 854.167 675.041H791.687Z" fill="#016FD0"/>
<path d="M899.284 675.041V649.582H957.955C966.636 649.582 970.395 644.891 970.395 639.746C970.395 634.816 966.648 629.832 957.955 629.832H931.442C908.396 629.832 895.562 615.791 895.562 594.711C895.562 575.909 907.315 557.776 941.561 557.776H998.65L986.306 584.161H936.932C927.494 584.161 924.588 589.113 924.588 593.843C924.588 598.704 928.179 604.065 935.389 604.065H963.162C988.852 604.065 1000 618.637 1000 637.72C1000 658.237 987.578 675.041 961.763 675.041H899.284Z" fill="#016FD0"/>
</g>
<defs>
<clipPath id="clip0">
<rect width="1000" height="997.517" fill="white"/>
</clipPath>
</defs>
</svg>
