<svg width="24" height="24" viewBox="0 0 24 24" fill="none" xmlns="http://www.w3.org/2000/svg">
<path d="M12.0387 11.5975C13.4946 11.5975 14.7551 11.0753 15.7853 10.0451C16.8152 9.015 17.3376 7.75464 17.3376 6.29857C17.3376 4.84301 16.8154 3.58248 15.7852 2.55208C14.7549 1.52217 13.4944 1 12.0387 1C10.5826 1 9.32224 1.52217 8.29216 2.55224C7.26208 3.58232 6.73975 4.84284 6.73975 6.29857C6.73975 7.75464 7.26208 9.01517 8.29216 10.0452C9.32257 11.0751 10.5831 11.5975 12.0387 11.5975ZM9.2039 3.46382C9.99429 2.67343 10.9215 2.28923 12.0387 2.28923C13.1557 2.28923 14.083 2.67343 14.8736 3.46382C15.664 4.25437 16.0484 5.18172 16.0484 6.29857C16.0484 7.41576 15.664 8.34294 14.8736 9.1335C14.083 9.92406 13.1557 10.3083 12.0387 10.3083C10.9218 10.3083 9.99463 9.92389 9.2039 9.1335C8.41335 8.34311 8.02898 7.41576 8.02898 6.29857C8.02898 5.18172 8.41335 4.25437 9.2039 3.46382Z" fill="#1E50A8"/>
<path d="M21.1103 17.917C21.0806 17.4883 21.0205 17.0207 20.932 16.5269C20.8427 16.0294 20.7278 15.5591 20.5901 15.1292C20.4478 14.6849 20.2546 14.2462 20.0154 13.8257C19.7675 13.3893 19.4761 13.0093 19.1492 12.6966C18.8073 12.3695 18.3886 12.1065 17.9046 11.9146C17.4222 11.7238 16.8876 11.6271 16.3157 11.6271C16.0912 11.6271 15.874 11.7193 15.4545 11.9924C15.1964 12.1607 14.8944 12.3554 14.5574 12.5708C14.2692 12.7544 13.8788 12.9264 13.3965 13.0822C12.9261 13.2344 12.4484 13.3116 11.9767 13.3116C11.5054 13.3116 11.0277 13.2344 10.5569 13.0822C10.0752 12.9266 9.68462 12.7545 9.39693 12.5709C9.06308 12.3576 8.76096 12.1629 8.49895 11.9922C8.07983 11.7191 7.86264 11.627 7.63806 11.627C7.06604 11.627 6.53162 11.7238 6.04939 11.9148C5.56566 12.1063 5.14688 12.3693 4.80464 12.6968C4.47768 13.0097 4.18629 13.3895 3.93855 13.8257C3.69971 14.2462 3.50635 14.6848 3.36401 15.1294C3.22655 15.5593 3.11157 16.0294 3.02228 16.5269C2.93365 17.02 2.87373 17.4878 2.84402 17.9175C2.81482 18.3376 2.80005 18.7749 2.80005 19.2166C2.80005 20.365 3.16512 21.2947 3.88501 21.9804C4.59601 22.657 5.53662 23.0001 6.68083 23.0001H17.274C18.4178 23.0001 19.3585 22.657 20.0696 21.9804C20.7897 21.2952 21.1548 20.3652 21.1548 19.2165C21.1546 18.7732 21.1396 18.3359 21.1103 17.917ZM19.1807 21.0463C18.7109 21.4935 18.0872 21.7108 17.2738 21.7108H6.68083C5.86728 21.7108 5.24356 21.4935 4.77393 21.0465C4.31319 20.6079 4.08928 20.0092 4.08928 19.2166C4.08928 18.8044 4.10287 18.3974 4.13007 18.0066C4.15659 17.6233 4.2108 17.2021 4.2912 16.7547C4.37059 16.3127 4.47163 15.898 4.59181 15.5225C4.70712 15.1625 4.8644 14.806 5.05943 14.4625C5.24557 14.1352 5.45975 13.8544 5.69608 13.6282C5.91713 13.4165 6.19576 13.2433 6.52406 13.1134C6.8277 12.9932 7.16893 12.9274 7.53937 12.9175C7.58452 12.9415 7.66492 12.9873 7.79517 13.0723C8.0602 13.245 8.36568 13.442 8.70338 13.6577C9.08406 13.9004 9.57451 14.1196 10.1605 14.3088C10.7595 14.5025 11.3705 14.6009 11.9769 14.6009C12.5833 14.6009 13.1945 14.5025 13.7932 14.309C14.3796 14.1195 14.8699 13.9004 15.2511 13.6574C15.5967 13.4365 15.8936 13.2452 16.1586 13.0723C16.2889 12.9875 16.3693 12.9415 16.4144 12.9175C16.785 12.9274 17.1263 12.9932 17.4301 13.1134C17.7582 13.2433 18.0368 13.4167 18.2579 13.6282C18.4942 13.8543 18.7084 14.1351 18.8945 14.4627C19.0897 14.806 19.2472 15.1626 19.3623 15.5223C19.4827 15.8983 19.5839 16.3129 19.6631 16.7545C19.7433 17.2028 19.7977 17.6241 19.8242 18.0068V18.0071C19.8516 18.3964 19.8654 18.8032 19.8655 19.2166C19.8654 20.0094 19.6414 20.6079 19.1807 21.0463Z" fill="#1E50A8"/>
</svg>
