<svg width="24" height="24" viewBox="0 0 24 24" xmlns="http://www.w3.org/2000/svg">
<path d="M7.5 0H2C0.89543 0 0 0.895431 0 2V7.5H7.5V0ZM6 6H1.5V1.5H6V6Z" />
<path d="M4.5 3H3V4.5H4.5V3Z" />
<path d="M16.5 0V7.5H24V2C24 0.89543 23.1046 0 22 0H16.5ZM22.5 6H18V1.5H22.5V6Z" />
<path d="M21 3H19.5V4.5H21V3Z" />
<path d="M0 22C0 23.1046 0.895431 24 2 24H7.5V16.5H0V22ZM1.5 18H6V22.5H1.5V18Z" />
<path d="M4.5 19.5H3V21H4.5V19.5Z" />
<path d="M15 0H12V1.5H15V0Z" />
<path d="M12 6H13.5V4.5H15V3H10.5V1.5H9V3V3.75V4.5H12V6Z" />
<path d="M15 7.5H13.5V9H9V10.5H15V7.5Z" />
<path d="M1.5 13.5H3V12H1.5V9H0V15H1.5V13.5Z" />
<path d="M9 15H12V13.5H10.5V12H7.5V9H6V12H4.5V13.5H6V14H6.75V13.5H7.5H9V15Z" />
<path d="M15 12H13.5V15H15V12Z" />
<path d="M13.5 16.5H9V18H12V22.5H9V24H13.5V22.5H16.5V21H13.5V16.5Z" />
<path d="M22.5 19.5H18V24H19.5V21H22.5V19.5Z" />
<path d="M24 22.5H21V24H22.5C23.3284 24 24 23.3284 24 22.5Z" />
<path d="M18 18H19.5V13.5H16.5V15H18V18Z" />
<path d="M21 10.5H19.5V9H18V10.5H16.5V12H22.5V10.5H24V9H21V10.5Z" />
<path d="M24 13.5H21V15H24V13.5Z" />
</svg>