<svg width="23" height="23" viewBox="0 0 23 23" fill="none" xmlns="http://www.w3.org/2000/svg">
<path d="M11.1098 21.6821H5.11085C3.48055 21.6821 2.15776 20.3544 2.15776 18.729V4.27101C2.15776 2.6407 3.48543 1.31791 5.11085 1.31791H11.2074C11.5735 1.31791 11.8664 1.02504 11.8664 0.658956C11.8664 0.292869 11.5735 0 11.2074 0H5.11085C2.75326 0 0.839844 1.91829 0.839844 4.27101V18.729C0.839844 21.0866 2.75814 23 5.11085 23H11.1098C11.4759 23 11.7688 22.7071 11.7688 22.341C11.7688 21.975 11.471 21.6821 11.1098 21.6821Z" fill="#383A51"/>
<path d="M17.9496 11.0362L13.7616 6.8482C13.5029 6.5895 13.088 6.5895 12.8293 6.8482C12.5706 7.1069 12.5706 7.5218 12.8293 7.7805L15.8946 10.8459H2.52517C2.15908 10.8459 1.86621 11.1387 1.86621 11.5048C1.86621 11.8709 2.15908 12.1638 2.52517 12.1638H15.8946L12.8293 15.2291C12.5706 15.4878 12.5706 15.9027 12.8293 16.1614C12.9562 16.2883 13.127 16.3567 13.293 16.3567C13.4589 16.3567 13.6298 16.2932 13.7567 16.1614L17.9447 11.9734C18.2083 11.7098 18.2083 11.29 17.9496 11.0362Z" fill="#383A51"/>
</svg>