<svg width="36" height="36" viewBox="0 0 36 36" fill="none" xmlns="http://www.w3.org/2000/svg">
<path fill-rule="evenodd" clip-rule="evenodd" d="M29.7819 1.65584L25.8994 1.65584C25.4421 1.65584 25.0714 1.28517 25.0714 0.827922C25.0714 0.370673 25.4421 0 25.8994 0L29.7819 0C33.216 0 36 2.78297 36 6.21608V10.1006C36 10.5579 35.6293 10.9286 35.1721 10.9286C34.7148 10.9286 34.3442 10.5579 34.3442 10.1006V6.21608C34.3442 3.6976 32.3017 1.65584 29.7819 1.65584ZM1.65585 6.21805V10.1006C1.65585 10.5579 1.28517 10.9286 0.827923 10.9286C0.370674 10.9286 0 10.5579 0 10.1006V6.21805C0 2.78398 2.78297 0 6.21608 0L10.1006 0C10.5579 0 10.9286 0.370673 10.9286 0.827922C10.9286 1.28517 10.5579 1.65584 10.1006 1.65584L6.21608 1.65584C3.6976 1.65584 1.65585 3.69835 1.65585 6.21805ZM10.1006 34.3442H6.21805C3.69835 34.3442 1.65585 32.3024 1.65585 29.7839V25.8994C1.65585 25.4421 1.28517 25.0714 0.827923 25.0714C0.370674 25.0714 0 25.4421 0 25.8994V29.7839C0 33.217 2.78399 36 6.21805 36H10.1006C10.5579 36 10.9286 35.6293 10.9286 35.1721C10.9286 34.7148 10.5579 34.3442 10.1006 34.3442ZM34.3442 29.7819V25.8994C34.3442 25.4421 34.7148 25.0714 35.1721 25.0714C35.6293 25.0714 36 25.4421 36 25.8994V29.7819C36 33.216 33.217 36 29.7839 36H25.8994C25.4421 36 25.0714 35.6293 25.0714 35.1721C25.0714 34.7148 25.4421 34.3442 25.8994 34.3442H29.7839C32.3024 34.3442 34.3442 32.3017 34.3442 29.7819ZM26.6786 16.5536C26.6786 17.3524 26.031 18 25.2322 18C24.4334 18 23.7858 17.3524 23.7858 16.5536L23.7858 13.6607C23.7858 12.8619 24.4334 12.2143 25.2322 12.2143C26.031 12.2143 26.6786 12.8619 26.6786 13.6607L26.6786 16.5536ZM10.4464 18C11.2453 18 11.8929 17.3524 11.8929 16.5536V13.6607C11.8929 12.8619 11.2453 12.2143 10.4464 12.2143C9.6476 12.2143 9.00002 12.8619 9.00002 13.6607V16.5536C9.00002 17.3524 9.6476 18 10.4464 18ZM17.6095 13.0399V19.0137C17.6095 19.8663 17.1873 20.6589 16.4917 21.112L15.7156 21.6176C15.3436 21.8599 15.2312 22.3696 15.4646 22.7558C15.6981 23.1421 16.1889 23.2588 16.561 23.0164L17.3371 22.5108C18.4963 21.7557 19.2001 20.4346 19.2001 19.0137V13.0399C19.2001 12.5839 18.844 12.2142 18.4048 12.2142C17.9656 12.2142 17.6095 12.5839 17.6095 13.0399ZM13.3497 27.5442L12.2753 26.8801C11.8978 26.6467 11.781 26.1516 12.0142 25.774C12.2475 25.3965 12.7426 25.2796 13.1201 25.513L14.1944 26.1771C16.627 27.6809 19.7002 27.6813 22.1333 26.1783L23.2106 25.5128C23.5881 25.2796 24.0832 25.3967 24.3163 25.7742C24.5495 26.1518 24.4325 26.647 24.0549 26.8802L22.9776 27.5457C20.0269 29.3685 16.2998 29.3679 13.3497 27.5442Z" fill="#383A51"/>
</svg>
