<svg width="28" height="28" viewBox="0 0 28 28" fill="none" xmlns="http://www.w3.org/2000/svg">
<path fill-rule="evenodd" clip-rule="evenodd" d="M14 23.5C19.2467 23.5 23.5 19.2467 23.5 14C23.5 8.75329 19.2467 4.5 14 4.5C8.75329 4.5 4.5 8.75329 4.5 14C4.5 19.2467 8.75329 23.5 14 23.5ZM14 25C20.0751 25 25 20.0751 25 14C25 7.92487 20.0751 3 14 3C7.92487 3 3 7.92487 3 14C3 20.0751 7.92487 25 14 25Z" fill="#32C3A7"/>
<path d="M14.0703 12.2188C14.5924 12.2188 15.0156 12.642 15.0156 13.1641V18.7266C15.0156 19.2486 14.5924 19.6719 14.0703 19.6719C13.5482 19.6719 13.125 19.2486 13.125 18.7266V13.1641C13.125 12.642 13.5482 12.2188 14.0703 12.2188ZM13 9C13 8.71354 13.0938 8.47656 13.2812 8.28906C13.474 8.09635 13.7396 8 14.0781 8C14.4115 8 14.6745 8.09635 14.8672 8.28906C15.0599 8.47656 15.1562 8.71354 15.1562 9C15.1562 9.28125 15.0599 9.51562 14.8672 9.70312C14.6745 9.89062 14.4115 9.98438 14.0781 9.98438C13.7396 9.98438 13.474 9.89062 13.2812 9.70312C13.0938 9.51562 13 9.28125 13 9Z" fill="#32C3A7"/>
</svg>
