<svg width="28" height="28" viewBox="0 0 28 28" fill="none" xmlns="http://www.w3.org/2000/svg">
<path d="M4.5 21.4111C4.5 23.5361 5.5874 24.6069 7.729 24.6069H20.2964C22.1973 24.6069 23.2764 23.5278 23.2764 21.4111V10.2383C23.2764 8.12988 22.189 7.04248 20.0474 7.04248H18.2046C18.1465 4.89258 16.312 3 13.8882 3C11.4644 3 9.62988 4.89258 9.57178 7.04248H7.729C5.5874 7.04248 4.5 8.11328 4.5 10.2383V21.4111ZM11.041 7.04248C11.0908 5.63135 12.2446 4.39453 13.8882 4.39453C15.5317 4.39453 16.6855 5.63135 16.7354 7.04248H11.041ZM5.96924 21.3364V10.3213C5.96924 9.12598 6.6001 8.51172 7.76221 8.51172H20.0142C21.1514 8.51172 21.8071 9.12598 21.8071 10.3213V21.3364C21.8071 22.5234 21.1514 23.1377 20.2715 23.1377H7.76221C6.6001 23.1377 5.96924 22.5234 5.96924 21.3364Z" fill="#32C3A7"/>
</svg>
