<svg width="28" height="28" viewBox="0 0 28 28" fill="none" xmlns="http://www.w3.org/2000/svg">
<path d="M7.95898 24.3613H18.0518C20 24.3613 21.0107 23.3433 21.0107 21.373V17.0151H19.3994V21.2778C19.3994 22.23 18.9014 22.75 17.9199 22.75H8.09082C7.10938 22.75 6.61133 22.23 6.61133 21.2778V7.07617C6.61133 6.13135 7.10938 5.61133 8.09082 5.61133H17.9199C18.9014 5.61133 19.3994 6.13135 19.3994 7.07617V11.3535H21.0107V6.98828C21.0107 5.02539 20 4 18.0518 4H7.95898C6.01074 4 5 5.02539 5 6.98828V21.373C5 23.3433 6.01074 24.3613 7.95898 24.3613ZM13.8477 14.9351H23.6401L25.0244 14.8765L24.2407 15.5723L22.7319 17.0078C22.5854 17.1396 22.5049 17.3301 22.5049 17.5205C22.5049 17.894 22.7832 18.2017 23.1714 18.2017C23.3691 18.2017 23.5156 18.1284 23.6548 17.9819L26.8042 14.7446C26.9946 14.5542 27.0605 14.3711 27.0605 14.1733C27.0605 13.9683 26.9946 13.7925 26.8042 13.5947L23.6548 10.3501C23.5156 10.2109 23.3691 10.1377 23.1714 10.1377C22.7832 10.1377 22.5049 10.4307 22.5049 10.8115C22.5049 11.002 22.5854 11.1997 22.7319 11.3315L24.2407 12.7671L25.0317 13.4702L23.6401 13.4043H13.8477C13.4448 13.4043 13.1006 13.7485 13.1006 14.1733C13.1006 14.5908 13.4448 14.9351 13.8477 14.9351Z" fill="#32C3A7"/>
</svg>
