<svg width="28" height="28" viewBox="0 0 28 28" fill="none" xmlns="http://www.w3.org/2000/svg">
<path d="M7.229 23.5068H20.2778C22.4277 23.5068 23.5151 22.4277 23.5151 20.311V7.1958C23.5151 5.0791 22.4277 4 20.2778 4H7.229C5.0874 4 4 5.0708 4 7.1958V20.311C4 22.436 5.0874 23.5068 7.229 23.5068ZM7.26221 22.0376C6.1001 22.0376 5.46924 21.4233 5.46924 20.2363V7.27051C5.46924 6.0835 6.1001 5.46924 7.26221 5.46924H20.2529C21.3901 5.46924 22.0459 6.0835 22.0459 7.27051V20.2363C22.0459 21.4233 21.3901 22.0376 20.2529 22.0376H7.26221ZM13.5542 15.9282C14.019 15.9282 14.293 15.6377 14.293 15.2642V15.0815C14.293 14.459 14.6333 14.0771 15.4053 13.5542C16.4595 12.8486 17.1318 12.2261 17.1318 11.0142C17.1318 9.3457 15.6377 8.39111 13.8613 8.39111C12.0684 8.39111 10.8979 9.2876 10.6406 10.3003C10.5908 10.4663 10.5659 10.624 10.5659 10.7983C10.5659 11.2134 10.8813 11.4458 11.1968 11.4458C11.5205 11.4458 11.728 11.2881 11.8774 11.0474L12.0352 10.8232C12.3257 10.1343 12.9648 9.64453 13.8032 9.64453C14.8574 9.64453 15.5381 10.2339 15.5381 11.0889C15.5381 11.8193 15.1064 12.2012 14.1436 12.8735C13.3467 13.4297 12.8237 13.9941 12.8237 14.9985V15.1978C12.8237 15.6792 13.0894 15.9282 13.5542 15.9282ZM13.5376 19.041C14.1021 19.041 14.5918 18.5845 14.5918 18.02C14.5918 17.4473 14.1104 16.999 13.5376 16.999C12.9565 16.999 12.4834 17.4556 12.4834 18.02C12.4834 18.5762 12.9648 19.041 13.5376 19.041Z" fill="#32C3A7"/>
</svg>
