<svg width="28" height="28" viewBox="0 0 28 28" fill="none" xmlns="http://www.w3.org/2000/svg">
<path d="M8.1958 25.877H19.626C21.751 25.877 22.8218 24.7812 22.8218 22.6479V12.7119C22.8218 11.4751 22.6724 10.9355 21.9004 10.1553L15.7495 3.92139C15.019 3.16602 14.4214 3 13.3174 3H8.1958C6.0874 3 5 4.0874 5 6.229V22.6479C5 24.7896 6.0708 25.877 8.1958 25.877ZM8.27051 24.4077C7.0835 24.4077 6.46924 23.7769 6.46924 22.6147V6.26221C6.46924 5.125 7.0835 4.46924 8.27881 4.46924H13.1929V10.8276C13.1929 12.0977 13.832 12.7119 15.0771 12.7119H21.3525V22.6147C21.3525 23.7769 20.7383 24.4077 19.543 24.4077H8.27051ZM15.2349 11.3257C14.77 11.3257 14.5791 11.1431 14.5791 10.6699V4.75977L21.062 11.3257H15.2349ZM17.9741 15.9492H9.67334C9.33301 15.9492 9.08398 16.1982 9.08398 16.5137C9.08398 16.8374 9.33301 17.0947 9.67334 17.0947H17.9741C18.3062 17.0947 18.5552 16.8374 18.5552 16.5137C18.5552 16.1982 18.3062 15.9492 17.9741 15.9492ZM17.9741 19.6929H9.67334C9.33301 19.6929 9.08398 19.9502 9.08398 20.2822C9.08398 20.5977 9.33301 20.8467 9.67334 20.8467H17.9741C18.3062 20.8467 18.5552 20.5977 18.5552 20.2822C18.5552 19.9502 18.3062 19.6929 17.9741 19.6929Z" fill="#8B929E"/>
</svg>
