<svg width="28" height="28" viewBox="0 0 28 28" fill="none" xmlns="http://www.w3.org/2000/svg">
<path d="M8.07568 14.0254C8.07568 12.9048 7.1626 12 6.02539 12C4.91309 12 4 12.9048 4 14.0254C4 15.146 4.91309 16.0425 6.02539 16.0425C7.1626 16.0425 8.07568 15.146 8.07568 14.0254ZM15.7954 14.0254C15.7954 12.9048 14.8906 12 13.77 12C12.6577 12 11.7529 12.9048 11.7529 14.0254C11.7529 15.146 12.6577 16.0425 13.77 16.0425C14.8906 16.0425 15.7954 15.146 15.7954 14.0254ZM23.5483 14.0254C23.5483 12.9048 22.6353 12 21.5146 12C20.3857 12 19.4727 12.9048 19.4727 14.0254C19.4727 15.146 20.3857 16.0425 21.5146 16.0425C22.6353 16.0425 23.5483 15.146 23.5483 14.0254Z" fill="#8B929E"/>
</svg>
