<svg width="28" height="28" viewBox="0 0 28 28" fill="none" xmlns="http://www.w3.org/2000/svg">
<path d="M1 13.3345C1 13.708 1.29053 14.0566 1.78857 14.0566C2.0376 14.0566 2.24512 13.9238 2.42773 13.7661L3.97168 12.4712V22.98C3.97168 24.4243 4.80176 25.2378 6.2627 25.2378H20.7144C22.1753 25.2378 23.0054 24.416 23.0054 22.98V12.4214L24.5991 13.7661C24.79 13.9238 24.9893 14.0566 25.2466 14.0566C25.6782 14.0566 26.0186 13.791 26.0186 13.3594C26.0186 13.0854 25.9272 12.8945 25.728 12.7285L23.0054 10.4375V5.98828C23.0054 5.57324 22.7314 5.30762 22.3164 5.30762H21.2622C20.8472 5.30762 20.5649 5.57324 20.5649 5.98828V8.38721L14.7295 3.47314C13.9824 2.84229 13.0776 2.84229 12.3223 3.47314L1.29883 12.7285C1.09131 12.8945 1 13.1187 1 13.3345ZM16.5557 16.4307C16.5557 15.9658 16.2568 15.667 15.792 15.667H11.2266C10.7617 15.667 10.4546 15.9658 10.4546 16.4307V23.7686H6.56982C5.82275 23.7686 5.44092 23.3784 5.44092 22.623V11.2344L13.1191 4.80127C13.3682 4.57715 13.6587 4.56055 13.9326 4.80127L21.5361 11.1846V22.623C21.5361 23.3784 21.1543 23.7686 20.3989 23.7686H16.5557V16.4307Z" fill="#8B929E"/>
</svg>
