<svg width="28" height="28" viewBox="0 0 28 28" fill="none" xmlns="http://www.w3.org/2000/svg">
<path d="M7.229 23.7068H20.2778C22.4277 23.7068 23.5151 22.6277 23.5151 20.511V7.39581C23.5151 5.27911 22.4277 4.20001 20.2778 4.20001H7.229C5.0874 4.20001 4 5.27081 4 7.39581V20.511C4 22.636 5.0874 23.7068 7.229 23.7068ZM7.26221 22.2376C6.1001 22.2376 5.46924 21.6234 5.46924 20.4363V7.47052C5.46924 6.28351 6.1001 5.66925 7.26221 5.66925H20.2529C21.3901 5.66925 22.0459 6.28351 22.0459 7.47052V20.4363C22.0459 21.6234 21.3901 22.2376 20.2529 22.2376H7.26221ZM10.3169 11.3138C9.91016 11.3138 9.64453 11.6209 9.64453 12.0443V17.282C9.64453 17.8133 9.93506 18.0291 10.3999 18.0291H15.6626C16.0942 18.0291 16.3682 17.7718 16.3682 17.3651C16.3682 16.9583 16.0859 16.6927 15.646 16.6927H13.2969L11.7363 16.8255L13.2637 15.3895L17.6465 11.0067C17.7793 10.8821 17.8706 10.6995 17.8706 10.5086C17.8706 10.0936 17.5967 9.82794 17.1899 9.82794C16.9658 9.82794 16.7915 9.91095 16.667 10.0438L12.2842 14.4183L10.8647 15.929L10.9893 14.2025V12.0276C10.9893 11.596 10.7236 11.3138 10.3169 11.3138Z" fill="#8B929E"/>
</svg>
