<svg width="28" height="28" viewBox="0 0 28 28" fill="none" xmlns="http://www.w3.org/2000/svg">
<path d="M21.2188 23.4062H23.0234C24.4844 23.4062 25.2422 22.6953 25.2422 21.2812V6.625C25.2422 5.21094 24.4844 4.5 23.0234 4.5H21.2188C19.7578 4.5 19.0078 5.21094 19.0078 6.625V21.2812C19.0078 22.6953 19.7578 23.4062 21.2188 23.4062ZM21.4297 22.1016C20.6641 22.1016 20.375 21.8125 20.375 21.0547V6.85156C20.375 6.09375 20.6641 5.80469 21.4297 5.80469H22.8203C23.5859 5.80469 23.875 6.09375 23.875 6.85156V21.0547C23.875 21.8125 23.5859 22.1016 22.8203 22.1016H21.4297ZM13.2109 23.4062H15.0156C16.4844 23.4062 17.2344 22.6953 17.2344 21.2812V9.5625C17.2344 8.14844 16.4844 7.42969 15.0156 7.42969H13.2109C11.75 7.42969 11.0078 8.14844 11.0078 9.5625V21.2812C11.0078 22.6953 11.75 23.4062 13.2109 23.4062ZM13.4297 22.1016C12.6641 22.1016 12.375 21.8125 12.375 21.0547V9.78906C12.375 9.03125 12.6641 8.73438 13.4297 8.73438H14.8125C15.5781 8.73438 15.8672 9.03125 15.8672 9.78906V21.0547C15.8672 21.8125 15.5781 22.1016 14.8125 22.1016H13.4297ZM5.21094 23.4062H7.01562C8.47656 23.4062 9.23438 22.6953 9.23438 21.2812V12.4688C9.23438 11.0547 8.47656 10.3438 7.01562 10.3438H5.21094C3.74219 10.3438 3 11.0547 3 12.4688V21.2812C3 22.6953 3.74219 23.4062 5.21094 23.4062ZM5.42188 22.1016C4.65625 22.1016 4.36719 21.8125 4.36719 21.0547V12.6953C4.36719 11.9375 4.65625 11.6484 5.42188 11.6484H6.8125C7.57812 11.6484 7.86719 11.9375 7.86719 12.6953V21.0547C7.86719 21.8125 7.57812 22.1016 6.8125 22.1016H5.42188Z" fill="#8B929E"/>
</svg>
