<svg width="28" height="28" viewBox="0 0 28 28" fill="none" xmlns="http://www.w3.org/2000/svg">
<path d="M5.90918 12.8403H10.9395C12.2012 12.8403 12.8486 12.2261 12.8486 10.9062V5.93408C12.8486 4.61426 12.2012 4 10.9395 4H5.90918C4.64746 4 4 4.61426 4 5.93408V10.9062C4 12.2261 4.64746 12.8403 5.90918 12.8403ZM16.5757 12.8403H21.606C22.8677 12.8403 23.5151 12.2261 23.5151 10.9062V5.93408C23.5151 4.61426 22.8677 4 21.606 4H16.5757C15.3057 4 14.6665 4.61426 14.6665 5.93408V10.9062C14.6665 12.2261 15.3057 12.8403 16.5757 12.8403ZM5.92578 11.5454C5.50244 11.5454 5.30322 11.3379 5.30322 10.8896V5.94238C5.30322 5.50244 5.50244 5.30322 5.92578 5.30322H10.9146C11.3379 5.30322 11.5454 5.50244 11.5454 5.94238V10.8896C11.5454 11.3379 11.3379 11.5454 10.9146 11.5454H5.92578ZM16.6006 11.5454C16.1606 11.5454 15.9697 11.3379 15.9697 10.8896V5.94238C15.9697 5.50244 16.1606 5.30322 16.6006 5.30322H21.5894C22.0127 5.30322 22.2119 5.50244 22.2119 5.94238V10.8896C22.2119 11.3379 22.0127 11.5454 21.5894 11.5454H16.6006ZM7.52783 9.52002H9.3042C9.45361 9.52002 9.52002 9.45361 9.52002 9.271V7.55273C9.52002 7.38672 9.45361 7.32031 9.3042 7.32031H7.52783C7.37842 7.32031 7.32861 7.38672 7.32861 7.55273V9.271C7.32861 9.45361 7.37842 9.52002 7.52783 9.52002ZM18.2441 9.52002H20.0205C20.1699 9.52002 20.2363 9.45361 20.2363 9.271V7.55273C20.2363 7.38672 20.1699 7.32031 20.0205 7.32031H18.2441C18.0947 7.32031 18.0449 7.38672 18.0449 7.55273V9.271C18.0449 9.45361 18.0947 9.52002 18.2441 9.52002ZM5.90918 23.5068H10.9395C12.2012 23.5068 12.8486 22.8926 12.8486 21.5728V16.6006C12.8486 15.2808 12.2012 14.6582 10.9395 14.6582H5.90918C4.64746 14.6582 4 15.2808 4 16.6006V21.5728C4 22.8926 4.64746 23.5068 5.90918 23.5068ZM15.3555 17.3394H17.1235C17.2812 17.3394 17.3394 17.2729 17.3394 17.0986V15.3721C17.3394 15.2061 17.2812 15.1479 17.1235 15.1479H15.3555C15.1978 15.1479 15.1479 15.2061 15.1479 15.3721V17.0986C15.1479 17.2729 15.1978 17.3394 15.3555 17.3394ZM21.0415 17.3394H22.8096C22.9673 17.3394 23.0254 17.2729 23.0254 17.0986V15.3721C23.0254 15.2061 22.9673 15.1479 22.8096 15.1479H21.0415C20.8838 15.1479 20.834 15.2061 20.834 15.3721V17.0986C20.834 17.2729 20.8838 17.3394 21.0415 17.3394ZM5.92578 22.2036C5.50244 22.2036 5.30322 22.0044 5.30322 21.5645V16.6089C5.30322 16.1689 5.50244 15.9614 5.92578 15.9614H10.9146C11.3379 15.9614 11.5454 16.1689 11.5454 16.6089V21.5645C11.5454 22.0044 11.3379 22.2036 10.9146 22.2036H5.92578ZM7.52783 20.1782H9.3042C9.45361 20.1782 9.52002 20.1201 9.52002 19.9375V18.2192C9.52002 18.0532 9.45361 17.9868 9.3042 17.9868H7.52783C7.37842 17.9868 7.32861 18.0532 7.32861 18.2192V19.9375C7.32861 20.1201 7.37842 20.1782 7.52783 20.1782ZM18.2192 20.1782H19.9956C20.1533 20.1782 20.2114 20.1201 20.2114 19.9375V18.2192C20.2114 18.0532 20.1533 17.9868 19.9956 17.9868H18.2192C18.0698 17.9868 18.02 18.0532 18.02 18.2192V19.9375C18.02 20.1201 18.0698 20.1782 18.2192 20.1782ZM15.3555 23.0254H17.1235C17.2812 23.0254 17.3394 22.959 17.3394 22.7847V21.0664C17.3394 20.8921 17.2812 20.834 17.1235 20.834H15.3555C15.1978 20.834 15.1479 20.8921 15.1479 21.0664V22.7847C15.1479 22.959 15.1978 23.0254 15.3555 23.0254ZM21.0415 23.0254H22.8096C22.9673 23.0254 23.0254 22.959 23.0254 22.7847V21.0664C23.0254 20.8921 22.9673 20.834 22.8096 20.834H21.0415C20.8838 20.834 20.834 20.8921 20.834 21.0664V22.7847C20.834 22.959 20.8838 23.0254 21.0415 23.0254Z" fill="#8B929E"/>
</svg>
