<?xml version="1.0" encoding="UTF-8"?>
<svg width="24px" height="24px" viewBox="0 0 24 24" version="1.1" xmlns="http://www.w3.org/2000/svg" xmlns:xlink="http://www.w3.org/1999/xlink">
    <!-- Generator: Sketch 64 (93537) - https://sketch.com -->
    <title>Artboard</title>
    <desc>Created with Sketch.</desc>
    <g id="Artboard" stroke="none" stroke-width="1" fill="none" fill-rule="evenodd">
        <g id="Group" transform="translate(15.000000, 1.000000)" fill="#979797">
            <rect id="Rectangle" x="0" y="0" width="8" height="2" rx="1"></rect>
            <rect id="Rectangle" x="6" y="0" width="2" height="8" rx="1"></rect>
        </g>
        <g id="Group-Copy-3" transform="translate(5.000000, 5.000000) scale(-1, 1) translate(-5.000000, -5.000000) translate(1.000000, 1.000000)" fill="#979797">
            <rect id="Rectangle" x="0" y="0" width="8" height="2" rx="1"></rect>
            <rect id="Rectangle" x="6" y="0" width="2" height="8" rx="1"></rect>
        </g>
        <g id="Group-Copy" transform="translate(19.000000, 19.000000) rotate(90.000000) translate(-19.000000, -19.000000) translate(15.000000, 15.000000)" fill="#979797">
            <rect id="Rectangle" x="0" y="0" width="8" height="2" rx="1"></rect>
            <rect id="Rectangle" x="6" y="0" width="2" height="8" rx="1"></rect>
        </g>
        <g id="Group-Copy-2" transform="translate(5.000000, 19.000000) scale(-1, 1) rotate(90.000000) translate(-5.000000, -19.000000) translate(1.000000, 15.000000)" fill="#979797">
            <rect id="Rectangle" x="0" y="0" width="8" height="2" rx="1"></rect>
            <rect id="Rectangle" x="6" y="0" width="2" height="8" rx="1"></rect>
        </g>
        <rect id="Rectangle" fill="#979797" x="6" y="6" width="12" height="12" rx="2"></rect>
    </g>
</svg>