<svg width="117" height="116" viewBox="0 0 117 116" fill="none" xmlns="http://www.w3.org/2000/svg">
<path fill-rule="evenodd" clip-rule="evenodd" d="M0.828673 1.37478C0.826853 1.34918 0.825928 1.32333 0.825928 1.29727C0.825928 0.70216 1.30836 0.219728 1.90347 0.219727L22.9512 0.219727C23.5463 0.219727 24.0288 0.702159 24.0288 1.29727C24.0288 1.89238 23.5463 2.37481 22.9512 2.37481L2.93641 2.37481V23.0301C2.93641 23.6126 2.46422 24.0848 1.88174 24.0848C1.29926 24.0848 0.827064 23.6126 0.827064 23.0301V1.43353C0.827064 1.41381 0.827605 1.39423 0.828673 1.37478Z" fill="#1E3E7A"/>
<path fill-rule="evenodd" clip-rule="evenodd" d="M1.97111 115.502C1.94161 115.505 1.91177 115.506 1.88164 115.506C1.29916 115.506 0.826966 115.034 0.826966 114.451L0.826964 92.8546C0.826964 92.2721 1.29916 91.7999 1.88164 91.7999C2.46412 91.7999 2.93631 92.2721 2.93631 92.8546L2.93631 113.35L23.1058 113.35C23.7009 113.35 24.1834 113.833 24.1834 114.428C24.1834 115.023 23.7009 115.506 23.1058 115.506L2.05809 115.506C2.02881 115.506 1.9998 115.504 1.97111 115.502Z" fill="#1E3E7A"/>
<path fill-rule="evenodd" clip-rule="evenodd" d="M116.229 114.498C116.23 114.514 116.23 114.53 116.23 114.546C116.23 115.142 115.748 115.624 115.153 115.624L94.105 115.624C93.5099 115.624 93.0275 115.142 93.0275 114.546C93.0275 113.951 93.5099 113.469 94.105 113.469L114.121 113.469L114.121 92.8526C114.121 92.2701 114.593 91.7979 115.176 91.7979C115.758 91.7979 116.23 92.2701 116.23 92.8526L116.23 114.449C116.23 114.465 116.23 114.482 116.229 114.498Z" fill="#1E3E7A"/>
<path fill-rule="evenodd" clip-rule="evenodd" d="M115.107 0.379713C115.129 0.378298 115.152 0.37758 115.175 0.37758C115.757 0.37758 116.229 0.849774 116.229 1.43225L116.229 23.0289C116.229 23.6113 115.757 24.0835 115.175 24.0835C114.592 24.0835 114.12 23.6113 114.12 23.0289L114.12 2.53253L93.9886 2.53253C93.3935 2.53253 92.9111 2.05009 92.9111 1.45498C92.9111 0.859873 93.3935 0.37744 93.9886 0.37744L115.036 0.377441C115.06 0.377441 115.084 0.378206 115.107 0.379713Z" fill="#1E3E7A"/>
</svg>