<svg width="67" height="66" viewBox="0 0 67 66" fill="none" xmlns="http://www.w3.org/2000/svg">
<path d="M1.50451 60.4054V47.6614H3.77251V52.8094H9.73051V47.6614H11.9985V60.4054H9.73051V54.7534H3.77251V60.4054H1.50451ZM15.9992 55.2214H20.4272C20.4272 54.6214 20.2532 54.1234 19.9052 53.7274C19.5572 53.3314 19.0532 53.1334 18.3932 53.1334C17.7572 53.1334 17.2112 53.3314 16.7552 53.7274C16.2992 54.1234 16.0472 54.6214 15.9992 55.2214ZM22.5872 56.1934C22.5872 56.4454 22.5812 56.6374 22.5692 56.7694H15.9992C16.0472 57.3694 16.3112 57.8734 16.7912 58.2814C17.2712 58.6894 17.8292 58.8934 18.4652 58.8934C19.4612 58.8934 20.2232 58.5214 20.7512 57.7774L22.1912 58.9294C21.3392 60.0814 20.1032 60.6574 18.4832 60.6574C17.1272 60.6574 16.0112 60.2494 15.1352 59.4334C14.2712 58.6174 13.8392 57.5194 13.8392 56.1394C13.8392 54.7594 14.2712 53.6434 15.1352 52.7914C15.9992 51.9394 17.0912 51.5134 18.4112 51.5134C19.6592 51.5134 20.6672 51.9154 21.4352 52.7194C22.2032 53.5234 22.5872 54.6814 22.5872 56.1934ZM24.3551 60.4054V46.7974H26.5151V60.4054H24.3551ZM28.7755 51.7654H30.8455V52.9714H30.8995C31.1515 52.5754 31.5295 52.2334 32.0335 51.9454C32.5495 51.6574 33.1675 51.5134 33.8875 51.5134C35.1115 51.5134 36.1135 51.9454 36.8935 52.8094C37.6855 53.6734 38.0815 54.7534 38.0815 56.0494C38.0815 57.3454 37.6915 58.4374 36.9115 59.3254C36.1435 60.2134 35.1175 60.6574 33.8335 60.6574C33.2335 60.6574 32.6755 60.5314 32.1595 60.2794C31.6435 60.0274 31.2475 59.6854 30.9715 59.2534H30.9355V64.7254H28.7755V51.7654ZM35.2195 58.0114C35.6635 57.4474 35.8855 56.7934 35.8855 56.0494C35.8855 55.3054 35.6635 54.6574 35.2195 54.1054C34.7875 53.5534 34.1815 53.2774 33.4015 53.2774C32.6455 53.2774 32.0335 53.5654 31.5655 54.1414C31.0975 54.7174 30.8635 55.3654 30.8635 56.0854C30.8635 56.8054 31.0975 57.4474 31.5655 58.0114C32.0335 58.5754 32.6455 58.8574 33.4015 58.8574C34.1815 58.8574 34.7875 58.5754 35.2195 58.0114ZM39.9141 60.4054V47.6614H44.0721C47.2761 47.6614 48.8781 48.8914 48.8781 51.3514C48.8781 52.6714 48.4221 53.6314 47.5101 54.2314C46.5981 54.8314 45.4041 55.1314 43.9281 55.1314H42.1821V60.4054H39.9141ZM42.1821 53.2234H43.7661C45.6501 53.2234 46.5921 52.5994 46.5921 51.3514C46.5921 50.6674 46.3401 50.1994 45.8361 49.9474C45.3441 49.6954 44.6781 49.5694 43.8381 49.5694H42.1821V53.2234ZM54.7945 60.4054V59.3074H54.7405C54.5245 59.6914 54.1705 60.0094 53.6785 60.2614C53.1985 60.5014 52.6585 60.6214 52.0585 60.6214C51.2305 60.6214 50.4805 60.4054 49.8085 59.9734C49.1485 59.5294 48.8185 58.8514 48.8185 57.9394C48.8185 57.4474 48.9385 57.0214 49.1785 56.6614C49.4305 56.2894 49.7425 56.0014 50.1145 55.7974C50.4865 55.5934 50.9485 55.4314 51.5005 55.3114C52.0645 55.1794 52.5925 55.0954 53.0845 55.0594C53.5885 55.0234 54.1465 55.0054 54.7585 55.0054V54.7894C54.7585 54.2854 54.5725 53.8954 54.2005 53.6194C53.8285 53.3434 53.3545 53.2054 52.7785 53.2054C51.8665 53.2054 51.0805 53.5354 50.4205 54.1954L49.3045 52.8814C50.2885 51.9694 51.5065 51.5134 52.9585 51.5134C53.7025 51.5134 54.3325 51.6214 54.8485 51.8374C55.3765 52.0414 55.7785 52.3294 56.0545 52.7014C56.3305 53.0614 56.5225 53.4454 56.6305 53.8534C56.7505 54.2494 56.8105 54.6814 56.8105 55.1494V60.4054H54.7945ZM54.7585 56.7694V56.4634H54.2725C52.0765 56.4634 50.9785 56.9434 50.9785 57.9034C50.9785 58.2874 51.1225 58.5634 51.4105 58.7314C51.7105 58.8994 52.0705 58.9834 52.4905 58.9834C53.2225 58.9834 53.7805 58.7914 54.1645 58.4074C54.5605 58.0114 54.7585 57.4654 54.7585 56.7694ZM61.379 60.4054L57.671 51.7654H60.065L62.477 58.0474H62.513L64.655 51.7654H66.905L62.819 62.2594C62.483 63.1114 62.075 63.7354 61.595 64.1314C61.127 64.5274 60.443 64.7254 59.543 64.7254C59.147 64.7254 58.775 64.6834 58.427 64.5994L58.607 62.7274C58.871 62.8114 59.141 62.8534 59.417 62.8534C59.849 62.8534 60.161 62.7514 60.353 62.5474C60.545 62.3554 60.743 62.0074 60.947 61.5034L61.379 60.4054Z" fill="#676767"/>
<path fill-rule="evenodd" clip-rule="evenodd" d="M13.5957 0C12.4911 0 11.5957 0.895429 11.5957 2V15.8275C11.5957 16.9321 12.4911 17.8275 13.5957 17.8275H27.4232C28.5278 17.8275 29.4232 16.9321 29.4232 15.8275V2C29.4232 0.895431 28.5278 0 27.4232 0H13.5957ZM16.1615 3.56551C15.6092 3.56551 15.1615 4.01322 15.1615 4.56551V13.262C15.1615 13.8143 15.6092 14.262 16.1615 14.262H24.858C25.4103 14.262 25.858 13.8143 25.858 13.262V4.56551C25.858 4.01322 25.4103 3.56551 24.858 3.56551H16.1615Z" fill="#32C3A7"/>
<path fill-rule="evenodd" clip-rule="evenodd" d="M13.5957 22.7028C12.4911 22.7028 11.5957 23.5982 11.5957 24.7028V38.5303C11.5957 39.6348 12.4911 40.5303 13.5957 40.5303H27.4232C28.5278 40.5303 29.4232 39.6348 29.4232 38.5303V24.7028C29.4232 23.5982 28.5278 22.7028 27.4232 22.7028H13.5957ZM16.1615 26.2683C15.6092 26.2683 15.1615 26.716 15.1615 27.2683V35.9648C15.1615 36.5171 15.6092 36.9648 16.1615 36.9648H24.858C25.4103 36.9648 25.858 36.5171 25.858 35.9648V27.2683C25.858 26.716 25.4103 26.2683 24.858 26.2683H16.1615Z" fill="#32C3A7"/>
<path fill-rule="evenodd" clip-rule="evenodd" d="M36.5 0C35.3954 0 34.5 0.895429 34.5 2V15.8275C34.5 16.9321 35.3954 17.8275 36.5 17.8275H50.3275C51.4321 17.8275 52.3275 16.9321 52.3275 15.8275V2C52.3275 0.895431 51.4321 0 50.3275 0H36.5ZM39.0658 3.56551C38.5135 3.56551 38.0658 4.01322 38.0658 4.56551V13.262C38.0658 13.8143 38.5135 14.262 39.0658 14.262H47.7623C48.3146 14.262 48.7623 13.8143 48.7623 13.262V4.56551C48.7623 4.01322 48.3146 3.56551 47.7623 3.56551H39.0658Z" fill="#32C3A7"/>
<rect x="18.2129" y="6.61707" width="4.59327" height="4.59327" fill="#32C3A7"/>
<rect x="18.2129" y="29.3198" width="4.59327" height="4.59327" fill="#32C3A7"/>
<rect x="41.1172" y="6.61707" width="4.59327" height="4.59327" fill="#32C3A7"/>
<path d="M46.6895 22.882V28.341H52.1485V23.882C52.1485 23.3297 51.7008 22.882 51.1485 22.882H46.6895ZM50.7304 27.0557H47.9991V24.2377H50.7304V27.0557Z" fill="#2B50A1"/>
<path d="M52.1479 34.892H46.6889V40.3511H51.1479C51.7002 40.3511 52.1479 39.9034 52.1479 39.3511V34.892ZM47.9742 38.9329V36.2017H50.7922V38.9329H47.9742Z" fill="#2B50A1"/>
<path d="M34.6792 28.3411L40.1383 28.3411L40.1383 22.882L35.6792 22.882C35.1269 22.882 34.6792 23.3297 34.6792 23.882L34.6792 28.3411ZM38.8529 24.3002L38.8529 27.0315L36.035 27.0315L36.035 24.3002L38.8529 24.3002Z" fill="#2B50A1"/>
<path d="M40.1384 40.351V34.892H34.6793V39.351C34.6793 39.9033 35.1271 40.351 35.6793 40.351H40.1384ZM36.0975 36.1773H38.8288V38.9953H36.0975V36.1773Z" fill="#2B50A1"/>
<path d="M49.9646 25.0657H48.8728V26.1575H49.9646V25.0657Z" fill="#2B50A1"/>
<path d="M49.9641 38.1674V37.0756H48.8723V38.1674H49.9641Z" fill="#2B50A1"/>
<path d="M36.8625 25.0657L36.8625 26.1575L37.9544 26.1575L37.9544 25.0657L36.8625 25.0657Z" fill="#2B50A1"/>
<path d="M36.862 38.1676H37.9539V37.0758H36.862V38.1676Z" fill="#2B50A1"/>
<path d="M45.5972 22.882H43.4136V23.9738H45.5972V22.882Z" fill="#2B50A1"/>
<path d="M43.4139 27.2493H44.5057V26.1575H45.5975V25.0657H42.322V23.9739H41.2302V25.0657V25.6116V26.1575H43.4139V27.2493Z" fill="#2B50A1"/>
<path d="M45.5975 28.3411H44.5057V29.4329H41.2302V30.5247H45.5975V28.3411Z" fill="#2B50A1"/>
<path d="M35.771 32.7085H36.8628V31.6166H35.771V29.433H34.6792V33.8003H35.771V32.7085Z" fill="#2B50A1"/>
<path d="M41.2293 33.8003H43.4129V32.7085H42.3211V31.6166H40.1375V29.433H39.0457V31.6166H37.9539V32.7085H39.0457V33.0724H39.5916V32.7085H40.1375H41.2293V33.8003Z" fill="#2B50A1"/>
<path d="M45.5974 31.6165H44.5056V33.8001H45.5974V31.6165Z" fill="#2B50A1"/>
<path d="M44.5057 34.892H41.2302V35.9838H43.4139V37.2439H42.2112V38.3928H43.4139V39.2593H41.2302V40.3511H44.5057V39.2593H45.7996V38.1675H44.5057V34.892Z" fill="#2B50A1"/>
<path d="M47.7813 33.8003H48.8731V32.7084H46.6895V33.8003H47.7813Z" fill="#2B50A1"/>
<path d="M49.9649 30.5248H48.8731V29.433H47.7813V30.5248H46.6895V31.6166H51.0567V30.5248H52.1485V29.433H49.9649V30.5248Z" fill="#2B50A1"/>
<path d="M52.1477 32.7084H49.9641V33.8003H52.1477V32.7084Z" fill="#2B50A1"/>
</svg>