<svg width="272" height="118" viewBox="0 0 272 118" fill="none" xmlns="http://www.w3.org/2000/svg">
<path d="M134.163 84.3781V58.6788H150.405V63.1788H139.612V68.5402H141.757C144.171 68.5402 146.151 68.8741 147.698 69.5421C149.257 70.2101 150.405 71.1359 151.143 72.3195C151.893 73.4913 152.268 74.8331 152.268 76.3448C152.268 78.8878 151.419 80.8624 149.72 82.2687C148.032 83.6749 145.343 84.3781 141.651 84.3781H134.163ZM139.612 79.9132H141.44C143.093 79.9132 144.393 79.6495 145.343 79.1222C146.292 78.5831 146.766 77.6573 146.766 76.3448C146.766 75.4308 146.532 74.7335 146.063 74.2531C145.606 73.7726 144.944 73.4445 144.077 73.2687C143.222 73.0929 142.196 73.005 141.001 73.005H139.612V79.9132ZM161.919 64.7257V72.4952C161.919 72.8937 161.901 73.3976 161.866 74.007C161.843 74.6046 161.807 75.214 161.761 75.8351C161.714 76.4562 161.667 77.0128 161.62 77.505C161.573 77.9972 161.538 78.3312 161.515 78.507L170.585 64.7257H177.036V84.3781H171.85V76.5382C171.85 75.8937 171.874 75.1847 171.921 74.4113C171.968 73.6261 172.02 72.8878 172.079 72.1964C172.138 71.505 172.179 70.9835 172.202 70.632L163.167 84.3781H156.733V64.7257H161.919ZM189.833 64.3566C191.251 64.3566 192.575 64.5441 193.806 64.9191C195.036 65.2823 196.032 65.8507 196.794 66.6241C197.556 67.3859 197.936 68.3702 197.936 69.5773C197.936 70.7609 197.579 71.7042 196.864 72.4073C196.149 73.0988 195.2 73.5968 194.016 73.9015V74.0773C194.849 74.2765 195.599 74.546 196.266 74.8859C196.946 75.2257 197.485 75.6945 197.884 76.2921C198.282 76.8898 198.481 77.6749 198.481 78.6476C198.481 79.7374 198.136 80.7452 197.444 81.671C196.753 82.5851 195.692 83.3234 194.263 83.8859C192.845 84.4484 191.022 84.7296 188.796 84.7296C187.741 84.7296 186.745 84.6827 185.807 84.589C184.882 84.4952 184.032 84.3605 183.259 84.1847C182.485 83.9972 181.811 83.7745 181.237 83.5167V79.087C182.046 79.462 183.042 79.8077 184.225 80.1241C185.421 80.4406 186.692 80.5988 188.04 80.5988C189.013 80.5988 189.891 80.5284 190.677 80.3878C191.474 80.2472 192.1 80.0128 192.557 79.6847C193.026 79.3448 193.261 78.8937 193.261 78.3312C193.261 77.8038 193.056 77.3702 192.645 77.0304C192.247 76.6788 191.632 76.421 190.8 76.257C189.979 76.0812 188.936 75.9933 187.671 75.9933H185.597V72.2843H187.565C189.347 72.2843 190.724 72.1378 191.696 71.8448C192.669 71.5519 193.155 71.0128 193.155 70.2277C193.155 69.5948 192.845 69.1202 192.224 68.8038C191.602 68.4874 190.577 68.3292 189.147 68.3292C188.222 68.3292 187.202 68.4406 186.089 68.6632C184.975 68.8741 183.932 69.1788 182.96 69.5773L181.378 65.8331C182.515 65.3995 183.745 65.048 185.069 64.7784C186.405 64.4972 187.993 64.3566 189.833 64.3566ZM208.044 64.7257V72.2843H215.532V64.7257H220.893V84.3781H215.532V76.2745H208.044V84.3781H202.682V64.7257H208.044ZM234.622 64.3566C236.438 64.3566 238.003 64.7081 239.315 65.4113C240.628 66.1027 241.641 67.1105 242.356 68.4347C243.071 69.7589 243.429 71.3761 243.429 73.2863V75.8878H230.755C230.813 77.3995 231.265 78.589 232.108 79.4562C232.964 80.3116 234.147 80.7394 235.659 80.7394C236.913 80.7394 238.061 80.6105 239.104 80.3527C240.147 80.0948 241.22 79.7081 242.321 79.1925V83.3409C241.349 83.8214 240.329 84.173 239.263 84.3956C238.208 84.6183 236.925 84.7296 235.413 84.7296C233.444 84.7296 231.698 84.3663 230.175 83.6398C228.663 82.9132 227.474 81.8058 226.606 80.3175C225.751 78.8292 225.323 76.9542 225.323 74.6925C225.323 72.3956 225.71 70.4855 226.483 68.962C227.268 67.4269 228.358 66.2784 229.753 65.5167C231.147 64.7433 232.77 64.3566 234.622 64.3566ZM234.657 68.171C233.614 68.171 232.747 68.505 232.056 69.173C231.376 69.8409 230.983 70.8898 230.878 72.3195H238.401C238.39 71.5226 238.243 70.8136 237.962 70.1925C237.692 69.5714 237.282 69.0792 236.731 68.7159C236.192 68.3527 235.501 68.171 234.657 68.171ZM255.768 84.7296C253.823 84.7296 252.165 84.3781 250.794 83.6749C249.423 82.9601 248.38 81.8585 247.665 80.3702C246.95 78.882 246.593 76.9777 246.593 74.6573C246.593 72.255 246.997 70.298 247.806 68.7863C248.626 67.2628 249.757 66.1437 251.198 65.4288C252.651 64.714 254.333 64.3566 256.243 64.3566C257.602 64.3566 258.774 64.4913 259.759 64.7609C260.755 65.0187 261.622 65.3292 262.36 65.6925L260.778 69.8409C259.934 69.5011 259.149 69.2257 258.423 69.0148C257.696 68.7921 256.97 68.6808 256.243 68.6808C255.306 68.6808 254.526 68.9034 253.905 69.3488C253.284 69.7823 252.821 70.4386 252.516 71.3175C252.212 72.1964 252.059 73.298 252.059 74.6222C252.059 75.923 252.224 77.0011 252.552 77.8566C252.88 78.712 253.354 79.3507 253.975 79.7726C254.597 80.1827 255.352 80.3878 256.243 80.3878C257.356 80.3878 258.347 80.2413 259.214 79.9484C260.081 79.6437 260.925 79.2218 261.745 78.6827V83.2706C260.925 83.7863 260.063 84.1554 259.161 84.3781C258.27 84.6124 257.14 84.7296 255.768 84.7296Z" fill="#1E3E7A"/>
<path d="M141.95 47.6085H132.905V31.9034H141.95V34.632H136.235V38.0802H141.553V40.8087H136.235V44.8585H141.95V47.6085ZM150.254 31.9034C152.28 31.9034 153.759 32.3403 154.69 33.214C155.621 34.0805 156.087 35.2765 156.087 36.8019C156.087 37.4894 155.983 38.1482 155.775 38.7784C155.568 39.4015 155.227 39.9565 154.755 40.4435C154.289 40.9305 153.666 41.3172 152.886 41.6036C152.105 41.8829 151.142 42.0226 149.996 42.0226H148.567V47.6085H145.237V31.9034H150.254ZM150.082 34.632H148.567V39.2941H149.663C150.286 39.2941 150.827 39.2117 151.285 39.047C151.743 38.8823 152.098 38.6245 152.349 38.2736C152.599 37.9226 152.724 37.4715 152.724 36.92C152.724 36.1466 152.51 35.5737 152.08 35.2013C151.65 34.8217 150.984 34.632 150.082 34.632ZM159.052 31.9034H162.049V39.4874C162.049 39.8598 162.042 40.2716 162.027 40.7228C162.02 41.174 162.006 41.618 161.984 42.0548C161.97 42.4845 161.956 42.8605 161.941 43.1827C161.927 43.505 161.913 43.7198 161.898 43.8273H161.963L169.214 31.9034H173.199V47.6085H170.234V40.0675C170.234 39.6665 170.241 39.2296 170.256 38.757C170.27 38.2843 170.288 37.826 170.309 37.382C170.338 36.9379 170.363 36.5548 170.385 36.2325C170.406 35.9031 170.42 35.6847 170.428 35.5773H170.342L163.058 47.6085H159.052V31.9034ZM177.163 47.6085V31.9034H189.592V47.6085H186.272V34.6749H180.493V47.6085H177.163Z" fill="#EC7D43"/>
<path d="M4.47803 0.2276H114.07V113.228C114.07 115.437 112.279 117.228 110.07 117.228H8.47803C6.26889 117.228 4.47803 115.437 4.47803 113.228V0.2276Z" fill="#1E3E7A"/>
<mask id="mask0_47_2" style="mask-type:alpha" maskUnits="userSpaceOnUse" x="13" y="7" width="73" height="70">
<path d="M49.9669 7.60321L85.7918 42.2389L48.8528 76.2182L13.0278 41.5826L49.9669 7.60321Z" fill="url(#paint0_linear_47_2)"/>
</mask>
<g mask="url(#mask0_47_2)">
<path d="M26.9994 28.7321L49.8623 55.0881L57.4991 46.2949L42.2654 28.7321H26.9994ZM49.8984 28.7321L65.1248 46.2847C68.6906 42.1771 70.479 40.1164 70.4827 40.1062C71.824 38.5523 71.777 36.3489 70.4609 34.8357L66.4985 30.2657C65.6547 29.2966 64.3963 28.7321 63.0659 28.7321H49.8984Z" fill="white"/>
</g>
<mask id="mask1_47_2" style="mask-type:alpha" maskUnits="userSpaceOnUse" x="31" y="32" width="80" height="75">
<path d="M110.353 64.5998L76.4032 106.863L31.6942 74.9198L65.6441 32.657L110.353 64.5998Z" fill="url(#paint1_linear_47_2)"/>
</mask>
<g mask="url(#mask1_47_2)">
<path d="M51.146 88.815H64.3173C65.6439 88.815 66.9024 88.254 67.7461 87.2849L89.5598 62.1466C90.8976 60.6098 90.8976 58.3927 89.5598 56.8524L84.2236 50.7014L51.146 88.815Z" fill="white"/>
</g>
<mask id="mask2_47_2" style="mask-type:alpha" maskUnits="userSpaceOnUse" x="0" y="11" width="107" height="102">
<path d="M106.989 54.5205L60.7586 112.071L0.664673 69.1349L46.8917 11.5849L106.989 54.5205Z" fill="url(#paint2_linear_47_2)"/>
</mask>
<g mask="url(#mask2_47_2)">
<path d="M70.4835 40.1063C70.4801 40.1165 68.6917 42.1771 65.1256 46.2848L28.2154 88.8162H43.4922L78.1021 48.937C79.4399 47.3967 79.4399 45.183 78.1021 43.6427L70.462 34.8358C71.7781 36.349 71.8248 38.5524 70.4835 40.1063Z" fill="white"/>
</g>
<defs>
<linearGradient id="paint0_linear_47_2" x1="-6.21851" y1="69.1935" x2="22.6403" y2="100.564" gradientUnits="userSpaceOnUse">
<stop stop-color="#FFAA64"/>
<stop offset="1" stop-color="#FF513E"/>
</linearGradient>
<linearGradient id="paint1_linear_47_2" x1="30.8912" y1="14.7583" x2="2.73571" y2="54.1669" gradientUnits="userSpaceOnUse">
<stop stop-color="#FFAA64"/>
<stop offset="1" stop-color="#FF513E"/>
</linearGradient>
<linearGradient id="paint2_linear_47_2" x1="-0.517035" y1="-15.8741" x2="-40.3273" y2="39.8476" gradientUnits="userSpaceOnUse">
<stop stop-color="#FFAA64"/>
<stop offset="1" stop-color="#FF513E"/>
</linearGradient>
</defs>
</svg>
